<svg width="960" height="292" fill="none" xmlns="http://www.w3.org/2000/svg"><path d="M256.507 220.234h1.218l-.237-1.194-3.503-17.691-3.504-17.692-.16-.806h-47.498v-62.537h-40.649v62.537H54.614L194.39 2.613 195.641 1h-46.934l-.3.384L1.212 189.82l-.212.27v30.144h159.941V291h41.882v-70.766h53.684zm701.493 0h1v-37.383h-54.684v-62.537h-40.649v62.537H756.106L895.883 2.613 897.134 1H850.2l-.301.384L702.704 189.82l-.143.183-.048.229-5.992 28.8-.25 1.203h166.162V291h41.883v-70.766H958z" stroke="#DAB465" stroke-width="2"/></svg>