<svg width="118" height="61" fill="none" xmlns="http://www.w3.org/2000/svg"><path d="M0 19.81c0 .142.003.286.005.43.17 7.294 4.796 15.371 13.303 16.692 6.088.945 13.881-1.801 16.332-8.752 1.229-3.474.554-7.67-1.711-10.69-1.921-2.559-4.651-3.88-7.69-3.72-3.248.17-6.312 1.956-7.801 4.547-1.213 2.108-1.24 4.51-.078 6.76a1.007 1.007 0 001.79-.92c-1.075-2.083-.576-3.781.033-4.84 1.14-1.985 3.618-3.407 6.164-3.543 2.345-.123 4.467.913 5.97 2.918 1.873 2.499 2.433 5.963 1.427 8.822-2.092 5.929-8.84 8.256-14.126 7.435-7.415-1.153-11.449-8.296-11.6-14.756-.194-8.505 6.18-15.905 14.832-17.171 10.652-1.558 20.401 4.59 25.264 8.396 7.184 5.617 13.062 13.226 18.75 20.586 7.946 10.287 16.163 20.923 28.063 26.263 8.66 3.884 20.827 3.773 26.354-4.08 2.897-4.134 3.582-10.686 1.556-14.915-2.24-4.682-5.969-7.43-10.503-7.735a.993.993 0 00-1.073.933.993.993 0 00.925 1.07c3.783.255 6.922 2.597 8.84 6.598 1.69 3.516 1.046 9.421-1.395 12.896-4.722 6.718-15.856 7.006-23.877 3.402C78.312 51.302 70.61 41.333 62.457 30.78c-5.763-7.458-11.72-15.17-19.1-20.943C34.52 2.927 25.003-.2 16.558 1.036 7.047 2.428 0 10.456 0 19.81z" fill="#DAB465"/><path d="M94.458 34.54a.994.994 0 00-.16-.544 1.016 1.016 0 00-.846-.46c-2.897-.031-6.656-.95-8.982-2.667 2.722-1.302 6.662-1.512 9.371-.983a.988.988 0 00.899-.28.963.963 0 00.268-.912c-.362-1.733-.094-4.212.711-6.191.43 3.444 1.717 7.658 4.065 9.896-2.75 1.73-4.87 5.616-5.996 8.923-.39-2.164-.135-4.74.59-6.38.053-.128.08-.266.08-.401zm-12.696-3.838c0 .252.095.498.27.683 2.299 2.465 6.55 3.782 10.038 4.088-.831 3.041-.63 7.302 1.114 9.714.242.333.657.485 1.06.389.389-.098.697-.428.751-.834.563-3.951 3.77-10.38 7.042-11.166a.991.991 0 00.765-1.12 1.01 1.01 0 00-.657-.802c-2.992-1.513-4.79-8.303-4.548-12.224.04-.398-.2-.793-.576-.97a1.01 1.01 0 00-1.114.167c-2.186 2.013-3.233 5.992-3.045 9.086-3.481-.37-7.912.213-10.676 2.17a1.002 1.002 0 00-.424.819z" fill="#DAB465"/></svg>