<svg width="327" height="92" fill="none" xmlns="http://www.w3.org/2000/svg"><path d="M38.775 17.527l30.693-7.083 34.234-5.115 31.48-2.755 35.808-.787 29.512 1.574 29.513 3.148 50.761 9.05 7.87 2.362.393 11.41 36.202 9.445-16.92 23.216 14.559 27.545-64.927-14.166-.787-13.379-14.559-2.754-44.466-4.722-36.595-1.574-51.942 3.148-40.136 6.296v6.69l-.787 5.902-16.134 3.541L3.754 89.93l14.56-28.33L2.18 38.776l14.166-3.542 22.429-5.902V17.527z" fill="#070D14"/><path d="M163.499 52.729c41.782 0 83.559 5.114 124.198 15.346V17.97c-81.263-20.525-167.133-20.525-248.396 0v50.106C79.94 57.843 121.717 52.73 163.499 52.73zm124.985 17.144a.812.812 0 01-.193-.024c-81.64-20.727-167.945-20.727-249.584 0a.785.785 0 01-.98-.763v-51.73c0-.36.244-.674.592-.762 81.893-20.792 168.467-20.792 250.359 0 .35.088.593.402.593.762v51.73a.786.786 0 01-.787.787z" fill="#B5985C" stroke="#DAB465" stroke-width=".4"/><path d="M323.163 91.047a.753.753 0 01-.224-.034 508.643 508.643 0 00-65.638-14.804.784.784 0 01-.654-.899.785.785 0 01.898-.656 510.166 510.166 0 0164.064 14.327l-13.758-26.39a.79.79 0 01.054-.817l16.033-22.752a508.145 508.145 0 00-35.616-9.086.786.786 0 11.332-1.538 508.99 508.99 0 0136.782 9.426.783.783 0 01.421 1.207l-16.388 23.257 14.392 27.608a.784.784 0 01-.091.863.785.785 0 01-.607.288z" fill="#B5985C" stroke="#DAB465" stroke-width=".4"/><path d="M257.428 76.225a.79.79 0 01-.787-.787V62.227a.787.787 0 111.574 0v12.246l30.115-6.158a.786.786 0 11.316 1.54l-31.061 6.353a.729.729 0 01-.157.017zM3.837 91.047a.785.785 0 01-.608-.288.783.783 0 01-.09-.863l14.393-27.608-16.39-23.257a.789.789 0 01.421-1.207 509.34 509.34 0 0136.782-9.426.786.786 0 11.334 1.538A508.075 508.075 0 003.06 39.022l16.033 22.752c.17.241.19.556.055.817l-13.76 26.39a510.151 510.151 0 0164.065-14.327.79.79 0 01.9.656.786.786 0 01-.656.9A508.666 508.666 0 004.06 91.012a.75.75 0 01-.223.034z" fill="#B5985C" stroke="#DAB465" stroke-width=".4"/><path d="M69.574 76.225a.732.732 0 01-.157-.017l-31.062-6.353a.786.786 0 11.316-1.54l30.116 6.158V62.227a.787.787 0 011.574 0v13.21a.786.786 0 01-.787.788z" fill="#B5985C" stroke="#DAB465" stroke-width=".4"/><path d="M112.116 41.622c-1.429.317-2.778.269-4.046-.144a7.25 7.25 0 01-3.184-2.148c-.855-1.02-1.432-2.205-1.732-3.558-.35-1.582-.25-3.023.3-4.322a7.674 7.674 0 012.499-3.238c1.134-.848 2.354-1.416 3.661-1.706 1.459-.323 2.819-.262 4.079.185a6.957 6.957 0 013.133 2.135 7.662 7.662 0 011.691 3.373 7.244 7.244 0 01-.254 4.095 8.12 8.12 0 01-2.361 3.425 8.38 8.38 0 01-3.786 1.903zm.633-.745a3.911 3.911 0 002.142-1.248c.579-.66.955-1.51 1.128-2.547.17-1.054.107-2.249-.19-3.586-.313-1.414-.807-2.626-1.483-3.637-.678-1.027-1.495-1.765-2.449-2.214-.954-.45-1.977-.554-3.068-.312-1.398.31-2.356 1.078-2.874 2.305-.522 1.212-.573 2.763-.154 4.653.33 1.491.849 2.779 1.557 3.863.719 1.066 1.544 1.842 2.475 2.33.945.483 1.917.614 2.916.393zm38.161-5.304c.047-.004.074.04.082.135.009.094-.011.143-.058.147l-3.622.316a.942.942 0 01-.581-.14c-.168-.111-.478-.408-.931-.89-.454-.497-1.202-1.372-2.243-2.625l-.713-.838c-.618-.752-1.074-1.273-1.368-1.564-.295-.306-.598-.508-.906-.608-.295-.116-.677-.154-1.148-.113l.48 5.504c.041.47.11.82.209 1.048a.788.788 0 00.557.402c.257.056.653.061 1.186.015.047-.004.075.04.083.135.008.094-.011.143-.058.147a29.18 29.18 0 01-1.32.091l-1.954.147-1.715.173c-.312.043-.735.088-1.268.134-.047.004-.075-.04-.083-.135-.008-.094.011-.143.059-.147.533-.047.921-.12 1.165-.22a.787.787 0 00.479-.492c.073-.244.09-.6.049-1.071l-.949-10.89c-.041-.47-.118-.811-.231-1.023a.786.786 0 00-.556-.401c-.244-.074-.632-.088-1.165-.041-.047.004-.075-.041-.083-.135-.008-.094.011-.143.058-.148l1.249-.085a41.65 41.65 0 001.721-.102c.533-.046 1.19-.12 1.972-.22l1.291-.135c.047-.005.075.04.083.135.008.094-.011.143-.058.147-.518.045-.898.125-1.141.241a.856.856 0 00-.474.54c-.075.227-.092.576-.051 1.047l.43 4.939c.422-.053.955-.107 1.598-.163l2.174-3.602c.565-.95.822-1.723.77-2.319-.026-.297-.133-.525-.32-.683-.188-.157-.43-.223-.728-.197-.032.003-.051-.043-.06-.137-.008-.094.004-.142.035-.145l1.084-.07a41.187 41.187 0 001.839-.114 40.42 40.42 0 001.901-.213l1.009-.111c.047-.004.075.04.083.135.008.094-.011.143-.058.147-.69.06-1.444.379-2.263.956a7.73 7.73 0 00-2.024 2.072l-2.852 4.253c.614-.021 1.126.052 1.536.222.408.154.819.426 1.232.817.429.39 1.039 1.047 1.831 1.973l.475.552a62.77 62.77 0 001.707 1.913 5.63 5.63 0 001.247.981c.415.233.85.337 1.307.313zm19.152-14.736c.047 0 .071.047.072.14 0 .095-.023.143-.071.143-.456.002-.927.21-1.413.62-.486.397-.877.934-1.173 1.612l-3.97 8.92c-.358.82-.645 1.578-.862 2.271-.14.426-.256.718-.35.876a.455.455 0 01-.4.214l-4.486.022c-.031 0-.047-.047-.048-.141 0-.095.015-.142.047-.142 1.038-.005 2.076-.301 3.112-.889 1.051-.603 1.811-1.37 2.279-2.301l-5.264-9.324c-.365-.644-.674-1.083-.927-1.318-.253-.235-.6-.35-1.041-.349-.031 0-.047-.047-.048-.141 0-.095.015-.142.047-.142.346-.002.59.005.732.02.472.03 1.086.042 1.842.038a65.952 65.952 0 002.762-.06c.204-.017.448-.026.731-.028.032 0 .048.047.048.142.001.094-.015.141-.046.141-.992.005-1.486.244-1.484.716.001.22.081.464.24.73l3.716 6.688 2.662-5.94c.156-.362.233-.67.232-.921a1.141 1.141 0 00-.454-.943c-.3-.234-.71-.35-1.229-.348-.032 0-.048-.047-.048-.141-.001-.095.015-.142.046-.142l1.063.018c.598.029 1.134.042 1.606.04a13.4 13.4 0 001.086-.053l.991-.028zm9.152 13.265c-.035.503-.007.876.087 1.12.094.227.287.398.579.513.307.117.798.199 1.474.246.047.004.067.052.06.147-.006.094-.033.14-.08.136a37.073 37.073 0 01-1.506-.13l-2.047-.168-1.721-.098c-.315-.007-.74-.029-1.274-.066-.047-.004-.067-.052-.06-.147.006-.094.033-.14.08-.136.503.036.867.022 1.092-.041a.71.71 0 00.503-.414c.095-.23.159-.58.192-1.052l.77-10.904c.033-.471.019-.82-.044-1.045a.71.71 0 00-.44-.48c-.229-.111-.587-.184-1.073-.218-.047-.003-.068-.052-.061-.146.007-.095.034-.14.081-.137l1.246.112c.72.082 1.292.138 1.716.168.377.027.826.035 1.348.025a22.077 22.077 0 011.865.06c1.602.113 2.842.54 3.72 1.28.88.726 1.271 1.787 1.172 3.184-.069.973-.378 1.78-.928 2.42a4.729 4.729 0 01-2.063 1.393 5.98 5.98 0 01-2.462.346 4.608 4.608 0 01-1.099-.196c-.031-.002-.044-.042-.039-.12a.467.467 0 01.034-.14c.034-.045.067-.059.097-.04.231.079.496.129.794.15.723.051 1.343-.244 1.862-.886.534-.641.845-1.582.933-2.822.087-1.24-.112-2.217-.598-2.93-.471-.712-1.208-1.103-2.213-1.174-.44-.03-.745.05-.917.243-.171.193-.278.588-.32 1.185l-.76 10.762zm23.937-10.434a13.23 13.23 0 012.12.51c.73.22 1.292.456 1.684.706.133.068.209.143.229.226.037.07.058.192.064.368l-.208 3.287c-.007.047-.05.072-.131.076-.08.004-.123-.027-.129-.091-.344-1.31-.91-2.365-1.697-3.168-.786-.803-1.763-1.292-2.931-1.467-1.541-.232-2.817.158-3.828 1.167-1.011 1.01-1.661 2.473-1.948 4.387-.216 1.432-.187 2.773.087 4.024.289 1.253.794 2.292 1.513 3.117.738.81 1.636 1.296 2.694 1.455.996.15 1.933-.044 2.809-.58.895-.55 1.755-1.456 2.581-2.717.025-.06.075-.076.151-.049.091.03.133.068.126.115l-.828 3.123c-.059.182-.116.3-.173.356-.038.042-.131.083-.281.124a12.33 12.33 0 01-4.388.129c-1.899-.286-3.431-.898-4.595-1.837-1.162-.954-1.959-2.053-2.393-3.296a8.043 8.043 0 01-.34-3.776c.222-1.478.816-2.726 1.78-3.743.98-1.015 2.179-1.734 3.595-2.158a10.178 10.178 0 014.437-.288zm20.229 15.584c.007-.03.041-.04.102-.025a.16.16 0 01.105.073c.042.026.062.047.058.062a26.395 26.395 0 00-.987 3.212c-.029.123-.073.21-.133.26-.057.036-.154.037-.292.005l-10.166-2.357c-.046-.01-.058-.062-.037-.154.021-.092.055-.133.101-.122.491.114.852.157 1.085.13a.71.71 0 00.561-.33c.13-.212.248-.548.355-1.008l2.469-10.65c.107-.46.147-.805.12-1.038a.708.708 0 00-.359-.543c-.208-.146-.55-.273-1.026-.384-.046-.01-.058-.062-.037-.154.022-.092.055-.132.101-.122l9.752 2.262c.153.035.214.122.182.26l-.663 3.07c-.007.03-.059.043-.154.037-.08-.003-.123-.029-.128-.078-.039-.947-.3-1.702-.783-2.266-.483-.565-1.2-.957-2.15-1.178l-.69-.16c-.46-.106-.821-.085-1.082.065-.261.15-.439.431-.535.845l-1.088 4.692 1.909.443c.889.206 1.607.21 2.153.014.547-.196.884-.57 1.012-1.122.011-.046.054-.06.131-.043.092.022.133.055.122.101l-.503 2.065-.233 1.11c-.09.528-.171.945-.242 1.252-.007.03-.057.035-.149.014-.092-.022-.134-.047-.127-.078.146-.629.014-1.176-.395-1.643-.39-.478-1.037-.822-1.942-1.032l-1.885-.437-1.206 5.198c-.103.444-.095.794.024 1.047.119.254.362.424.73.51l.759.175c1.196.277 2.211.254 3.046-.07.834-.323 1.539-.96 2.115-1.908z" fill="#B5985C"/></svg>