<svg width="287" height="287" fill="none" xmlns="http://www.w3.org/2000/svg"><path d="M27.718 115.573a118.847 118.847 0 1187.859 143.284l.415-1.73a117.075 117.075 0 00122.027-45.057 117.073 117.073 0 005.071-129.98A117.071 117.071 0 0063.8 57.342a117.068 117.068 0 00-34.352 58.646l-1.73-.415z" fill="url(#paint0_linear_1102_226)"/><circle cx="115.145" cy="257.139" transform="rotate(180 115.145 257.139)" fill="#DAB465" r="3.5"/><path d="M93.116 251.023a118.84 118.84 0 01-68.679-107.546 118.849 118.849 0 0168.329-107.77l.756 1.611a117.069 117.069 0 00.345 212.092l-.751 1.613z" fill="url(#paint1_linear_1102_226)"/><path d="M89.312 27.794a.5.5 0 01.838-.385l3.711 3.403a.5.5 0 00.508.102l4.736-1.713a.5.5 0 01.625.678l-2.09 4.582a.5.5 0 00.06.514l3.092 3.975a.5.5 0 01-.451.804l-5.004-.572a.5.5 0 00-.47.216l-2.825 4.17a.5.5 0 01-.904-.182l-1.002-4.935a.5.5 0 00-.351-.38l-4.838-1.399a.5.5 0 01-.107-.915l4.384-2.478a.5.5 0 00.253-.452l-.165-5.033z" fill="#D1AD64"/><defs><linearGradient id="paint0_linear_1102_226" x1="115.577" y1="258.857" x2="-9.818" y2="154.258" gradientUnits="userSpaceOnUse"><stop stop-color="#DAB465"/><stop offset="1" stop-color="#DAB465" stop-opacity="0"/></linearGradient><linearGradient id="paint1_linear_1102_226" x1="28.139" y1="117.638" x2="75.639" y2="243.638" gradientUnits="userSpaceOnUse"><stop stop-color="#DAB465"/><stop offset="1" stop-color="#DAB465" stop-opacity="0"/></linearGradient></defs></svg>