<svg width="307" height="68" fill="none" xmlns="http://www.w3.org/2000/svg"><path d="M1.41 18.184v-6.032c0-.505.375-.934.867-1.047 1.357-.311 4.037-1.147 6.058-3.165 1.99-1.988 2.704-4.613 2.952-5.987.094-.52.537-.929 1.065-.929h6.242m287.125 17.16v-6.032c0-.505-.375-.934-.867-1.047-1.357-.311-4.037-1.147-6.058-3.165-1.991-1.988-2.705-4.613-2.952-5.987-.094-.52-.537-.929-1.065-.929h-6.243m.129 65.696h6.043c.504 0 .934-.375 1.047-.867.312-1.355 1.149-4.03 3.17-6.048 1.991-1.989 4.62-2.701 5.996-2.949.52-.093.929-.536.929-1.065V49.56M1.281 49.304v6.033c0 .504.375.934.867 1.046 1.357.312 4.037 1.147 6.058 3.166 1.99 1.987 2.705 4.613 2.952 5.986.094.52.537.929 1.065.929h6.243" stroke="#DAB465" stroke-width="1.5"/><path d="M.129 1a1 1 0 011-1h3.13a1 1 0 011 1v3.122a1 1 0 01-1 1h-3.13a1 1 0 01-1-1V1z" fill="#DAB465"/><rect width="5.13" height="5.122" rx="1" transform="matrix(-1 0 0 1 307 0)" fill="#DAB465"/><rect width="5.122" height="5.13" rx="1" transform="matrix(0 -1 -1 0 306.871 68)" fill="#DAB465"/><rect width="5.13" height="5.122" rx="1" transform="matrix(1 0 0 -1 0 67.487)" fill="#DAB465"/><path d="M1.41 44.472V23.12c0-1.049.811-1.93 1.846-2.104 2.913-.491 8.644-1.909 12.517-5.777 3.876-3.87 5.361-9.531 5.89-12.402.187-1.02 1.062-1.813 2.1-1.813H283.23c.985 0 1.831.717 2.072 1.673.679 2.69 2.45 8.076 6.416 12.024 4.41 4.389 9.493 5.961 12.154 6.51 1.031.213 1.845 1.101 1.845 2.154v20.971c0 1-.735 1.852-1.712 2.064-3.06.663-9.49 2.494-13.18 6.705-3.486 3.979-4.851 9.01-5.354 11.653-.195 1.021-1.071 1.813-2.11 1.813H23.612c-1.08 0-1.98-.856-2.145-1.924-.437-2.84-1.792-8.266-5.95-12.419-3.841-3.835-9.377-5.196-12.238-5.66-1.045-.17-1.869-1.057-1.869-2.116z" stroke="#DAB465" stroke-width="1.5"/></svg>