<svg width="25" height="25" fill="none" xmlns="http://www.w3.org/2000/svg"><path d="M.75 7v6.015c0 .512.385.944.888 1.042 1.484.289 4.51 1.101 6.568 3.158 2.005 2.002 2.732 4.712 2.985 6.112.094.517.535.923 1.06.923H18.5" stroke="#DAB465" stroke-width="1.5"/><path d="M0 24a1 1 0 001 1h3a1 1 0 001-1v-3a1 1 0 00-1-1H1a1 1 0 00-1 1v3z" fill="#DAB465"/><path d="M.75 0v2.444c0 1.06.827 1.947 1.874 2.111 2.92.459 8.622 1.814 12.483 5.669 4.125 4.12 5.485 9.337 5.93 12.102.171 1.067 1.073 1.924 2.154 1.924H25" stroke="#DAB465" stroke-width="1.5"/></svg>