<svg width="88" height="88" fill="none" xmlns="http://www.w3.org/2000/svg"><path d="M47.496 51.567c-.048 0-.096 0-.144.01a.752.752 0 00-.48.355c-1.203 2.125-3.328 4.53-5.76 5.876 1.038-2.385 1.586-5.54 1.586-7.857 0-1.307-.125-5.173-1.548-8.49 3.317 1.422 7.183 1.557 8.49 1.557 2.309 0 5.463-.558 7.847-1.596-1.346 2.433-3.75 4.558-5.875 5.76a.724.724 0 00-.221 1.058 35.26 35.26 0 014.346 7.817c-2.836-1.153-5.462-2.615-7.808-4.356a.768.768 0 00-.433-.134zm-8.039 8.439a.732.732 0 00.202-.028c2.923-.853 6.02-3.42 8.059-6.651 2.702 1.913 5.74 3.48 9.029 4.654.26.096.558.029.75-.173a.722.722 0 00.173-.75c-1.183-3.29-2.74-6.318-4.654-9.03 3.231-2.039 5.799-5.135 6.647-8.058a.73.73 0 00-.282-.798.736.736 0 00-.845.019c-1.981 1.49-6.078 2.385-8.895 2.385-3.145 0-7.414-.683-9.953-2.587a.73.73 0 00-.942.067.707.707 0 00-.068.943c1.904 2.548 2.577 6.808 2.577 9.952 0 2.818-.884 6.924-2.375 8.905a.71.71 0 00-.019.838.71.71 0 00.596.312z" fill="#5A5A5A"/><path d="M.73 88a.724.724 0 00.72-.721V1.447h85.833a.724.724 0 00.72-.721.718.718 0 00-.72-.722H.729a.714.714 0 00-.72.722v86.553c0 .398.317.721.72.721z" fill="#5A5A5A"/><path d="M.727 27.709a.739.739 0 00.596-.308c3.202-4.692 14.569-6.943 20.963-4.163a.726.726 0 00.952-.953c-2.779-6.394-.519-17.76 4.164-20.972a.713.713 0 00.183-1 .713.713 0 00-1-.183c-4.885 3.337-7.376 14.088-5.222 21.232C14.22 19.2 3.468 21.7.131 26.584a.713.713 0 00.596 1.125zm16.456 21.857c.192 0 .384.01.567.03.827.076 1.981.393 2.721 1.394.587.788.654 1.904.145 2.596-.51.702-1.443 1.077-2.26.904-.587-.125-1.01-.52-1.51-.971-.134-.125-.269-.25-.404-.366-.615-.538-1.586-1.25-2.875-1.279-.423 0-.904.058-1.385.202.24-.385.53-.73.856-1.029 1.02-.913 2.626-1.48 4.145-1.48zm1.26 13.505c4.211 0 7.933-1.414 10.827-4.129 3.308-3.096 5.203-7.645 5.203-12.472 0-5.76-3.337-11.405-8.51-14.386-4.51-2.606-10.367-2.99-15.656-1.038C4.336 33.248.008 39.335.008 45.518c0 .404.318.721.721.721a.72.72 0 00.722-.721c0-5.597 3.933-11.116 9.356-13.117 4.895-1.807 10.29-1.461 14.434.933 4.731 2.731 7.79 7.885 7.79 13.136 0 4.423-1.732 8.587-4.751 11.424-2.875 2.696-6.674 3.968-11.001 3.697-3.28-.212-5.885-3.043-5.914-6.457 0-.24.01-.49.038-.73.135-.684 1.356-1.126 2.126-1.087.644.019 1.25.298 1.971.923.125.115.25.22.375.336.567.53 1.212 1.126 2.183 1.327 1.385.289 2.885-.307 3.721-1.47.875-1.203.818-3.01-.144-4.309-.846-1.125-2.135-1.808-3.74-1.962-2.078-.211-4.366.5-5.818 1.808-1.395 1.25-2.174 3.145-2.154 5.183.038 4.154 3.23 7.616 7.27 7.877.413.027.836.041 1.25.041zm33.636-50.893a4.55 4.55 0 00-.202 1.385c.029 1.289.74 2.26 1.279 2.875.115.135.24.27.365.404.452.5.846.924.971 1.51.173.817-.202 1.75-.904 2.26-.692.5-1.807.442-2.596-.144-1-.75-1.317-1.895-1.394-2.722-.164-1.663.413-3.558 1.452-4.712a4.918 4.918 0 011.029-.856zm-5.607 22.29c4.828 0 9.376-1.894 12.476-5.211 2.978-3.174 4.391-7.347 4.085-12.078-.26-4.03-3.72-7.222-7.877-7.26h-.077c-2.01 0-3.866.778-5.097 2.154-1.317 1.461-2.029 3.74-1.817 5.817.154 1.606.836 2.895 1.962 3.741 1.298.962 3.106 1.02 4.317.144 1.154-.846 1.74-2.336 1.462-3.721-.202-.971-.798-1.616-1.327-2.183-.106-.125-.221-.25-.337-.375-.625-.721-.904-1.327-.923-1.971-.01-.78.404-1.99 1.087-2.126.24-.028.49-.038.74-.038 3.404.029 6.235 2.635 6.448 5.914.279 4.318-1 8.126-3.698 11-2.827 3.02-7 4.751-11.424 4.751-5.25 0-10.404-3.058-13.135-7.789-2.385-4.144-2.74-9.539-.933-14.434 2-5.423 7.52-9.356 13.116-9.356a.72.72 0 00.721-.721.714.714 0 00-.72-.722c-6.184 0-12.27 4.328-14.473 10.3-1.952 5.288-1.558 11.144 1.039 15.654 2.98 5.164 8.625 8.51 14.385 8.51z" fill="#5A5A5A"/></svg>