<svg width="670" height="41" fill="none" xmlns="http://www.w3.org/2000/svg"><path d="M628.226 31.035a1 1 0 01-.777-1.628c.196-.242 4.534-5.557 10.94-9.195-6.412-3.709-10.69-9.429-10.882-9.691a1 1 0 011.608-1.19c.048.067 4.951 6.614 11.844 9.987a1.001 1.001 0 010 1.797c-6.928 3.39-11.905 9.488-11.954 9.55a1 1 0 01-.779.37z" fill="#DAB465"/><path d="M614.357 20.199c10.483 3.133 18.389 12.881 20.793 16.136 9.706-10.723 19.847-14.735 26.312-16.232-6.45-1.694-16.592-5.959-26.296-16.688-2.398 3.376-10.31 13.525-20.809 16.784zm20.708 18.738c-.021 0-.041 0-.063-.002a1.004 1.004 0 01-.768-.439c-.116-.173-11.794-17.279-26.382-17.279a1 1 0 010-2c14.577 0 26.257-17.786 26.373-17.966a.997.997 0 01.768-.454c.315-.016.62.105.825.34 15.266 17.535 32.263 18.078 32.434 18.08h.005l.039.003h.014l.004.002h.01a1 1 0 01.906 1.015c-.01.553-.48 1.035-1.018.98-.167.006-17.174-.105-32.394 17.377a.997.997 0 01-.753.343z" fill="#DAB465"/><path d="M607.849 21.217H511a1 1 0 010-2h96.849a1 1 0 010 2z" fill="#DAB465"/><path d="M591.053 40.434a6.42 6.42 0 01-1.849-.266c-2.946-.881-4.904-3.95-4.367-6.841.332-1.78 1.548-3.195 3.097-3.601.938-.248 1.999-.052 2.838.52.762.522 1.236 1.274 1.332 2.12a1 1 0 01-.879 1.108 1.004 1.004 0 01-1.108-.88c-.04-.351-.313-.587-.475-.696-.358-.246-.82-.339-1.198-.238-.782.204-1.456 1.04-1.64 2.032-.351 1.884 1.01 3.972 2.973 4.559 1.916.573 4.201-.21 5.563-1.905 2.502-3.123 1.726-8.144-.568-10.876-2.219-2.642-5.967-4.222-10.063-4.252h-.256a1 1 0 010-2h.256c4.097-.031 7.844-1.612 10.063-4.254 2.294-2.732 3.07-7.753.568-10.876-1.36-1.696-3.646-2.481-5.562-1.905-1.964.587-3.325 2.673-2.974 4.56.184.99.858 1.827 1.64 2.03.377.102.838.01 1.198-.237.162-.11.435-.345.475-.696a.992.992 0 011.108-.88 1 1 0 01.879 1.107c-.096.845-.57 1.599-1.332 2.12-.839.573-1.9.77-2.838.521-1.549-.408-2.765-1.821-3.097-3.6-.537-2.892 1.421-5.961 4.367-6.842 2.674-.802 5.84.256 7.697 2.573 3.217 4.015 2.195 10.087-.597 13.41-1.48 1.763-3.522 3.12-5.872 3.969 2.35.846 4.392 2.204 5.872 3.966 2.792 3.324 3.814 9.396.597 13.411-1.44 1.799-3.671 2.839-5.848 2.839zM41.004 31.035a.994.994 0 01-.777-.37c-.05-.062-5.041-6.168-11.955-9.55a1 1 0 010-1.797c6.908-3.38 11.796-9.92 11.844-9.987a1 1 0 011.608 1.19c-.192.262-4.47 5.982-10.882 9.691 6.405 3.638 10.744 8.953 10.94 9.195a1 1 0 01-.778 1.628z" fill="#DAB465"/><path d="M7.77 20.103c6.463 1.497 16.606 5.51 26.311 16.232 2.404-3.255 10.31-13.003 20.792-16.136C44.377 16.94 36.465 6.79 34.067 3.415 24.36 14.145 14.22 18.41 7.77 20.103zm26.397 18.834a.996.996 0 01-.754-.343C18.171 21.086 1.203 21.24 1.021 21.216c-.513.011-1.009-.426-1.02-.98a1.001 1.001 0 01.978-1.02c.17-.003 17.207-.587 32.434-18.08a1 1 0 011.594.114c.116.18 11.796 17.966 26.373 17.966a1 1 0 010 2c-14.588 0-26.268 17.106-26.384 17.28a.999.999 0 01-.768.438l-.061.002z" fill="#DAB465"/><path d="M664 21.219H61.379a1 1 0 010-2H664a1 1 0 010 2z" fill="#DAB465"/><path d="M78.18 40.434c-2.178 0-4.408-1.04-5.849-2.839-3.217-4.015-2.195-10.087.596-13.41 1.481-1.763 3.523-3.12 5.872-3.967-2.35-.848-4.39-2.206-5.872-3.968-2.79-3.324-3.813-9.396-.596-13.411C74.188.522 77.352-.534 80.028.266c2.946.88 4.903 3.95 4.366 6.84-.33 1.78-1.546 3.193-3.096 3.602-.94.247-2.002.05-2.839-.521-.761-.521-1.235-1.275-1.33-2.12a.998.998 0 01.88-1.107 1.007 1.007 0 011.106.88c.04.35.313.587.473.696.362.247.823.34 1.2.238.782-.206 1.456-1.04 1.64-2.031.35-1.887-1.012-3.973-2.973-4.56-1.917-.577-4.203.21-5.563 1.905-2.502 3.123-1.728 8.144.567 10.876 2.219 2.642 5.967 4.222 10.064 4.254h.256a1 1 0 010 2h-.256c-4.097.029-7.845 1.61-10.064 4.252-2.295 2.732-3.07 7.753-.567 10.876 1.36 1.694 3.647 2.48 5.562 1.905 1.962-.587 3.324-2.675 2.973-4.56-.183-.99-.857-1.825-1.639-2.03-.378-.103-.84-.01-1.2.237-.16.109-.433.345-.473.696a.999.999 0 11-1.987-.227c.096-.847.57-1.599 1.331-2.121.837-.571 1.9-.767 2.839-.52 1.55.408 2.765 1.821 3.096 3.601.537 2.89-1.42 5.96-4.366 6.841-.6.18-1.22.266-1.849.266z" fill="#DAB465"/></svg>