<svg width="275" height="81" fill="none" xmlns="http://www.w3.org/2000/svg"><path d="M221.372 63.399H53.224a.818.818 0 010-1.635h168.148a.818.818 0 010 1.635zm17.679 8.704a.817.817 0 01-.644-1.32c.171-.22 3.968-5.044 9.567-8.225-5.592-3.183-9.33-8.012-9.498-8.232a.817.817 0 111.297-.994c.043.056 4.307 5.554 10.308 8.491a.817.817 0 010 1.468c-6.017 2.945-10.341 8.441-10.383 8.496a.821.821 0 01-.647.316z" fill="#595959"/><path d="M226.837 62.572c9.221 2.712 16.174 11.438 18.224 14.255 8.53-9.447 17.452-12.973 23.05-14.286-5.594-1.384-14.514-4.997-23.045-14.448-2.048 2.858-9.001 11.727-18.229 14.48zm18.15 16.39l-.054-.003a.819.819 0 01-.628-.363c-.101-.152-10.252-15.2-22.941-15.2a.818.818 0 010-1.635c12.685 0 22.837-15.282 22.938-15.437a.818.818 0 011.302-.09c13.26 15.232 28.03 15.526 28.178 15.527a.817.817 0 01-.007 1.636h-.007c-.247 0-14.986.145-28.164 15.283a.82.82 0 01-.617.281zm-38.205 1.115a5.52 5.52 0 01-1.591-.228c-2.532-.759-4.216-3.397-3.754-5.881.283-1.527 1.324-2.738 2.651-3.087.803-.209 1.708-.043 2.424.447.648.444 1.05 1.085 1.132 1.803a.817.817 0 01-.719.905.824.824 0 01-.905-.72c-.037-.324-.287-.539-.433-.638-.323-.222-.739-.304-1.083-.214-.696.182-1.297.924-1.46 1.802-.309 1.66.889 3.5 2.617 4.015 1.679.505 3.689-.183 4.882-1.671 2.187-2.73 1.511-7.116-.494-9.503-1.936-2.305-5.206-3.683-8.781-3.71h-.215a.817.817 0 010-1.636h.215c3.575-.025 6.845-1.405 8.781-3.71 2.005-2.387 2.681-6.773.494-9.503-1.193-1.488-3.205-2.175-4.882-1.671-1.728.516-2.926 2.355-2.617 4.014.163.88.764 1.622 1.46 1.804.344.09.76.008 1.083-.214.146-.1.396-.315.433-.639a.818.818 0 111.624.185c-.082.719-.484 1.36-1.132 1.804-.716.488-1.621.654-2.424.445-1.327-.347-2.368-1.56-2.651-3.086-.462-2.483 1.222-5.121 3.754-5.881 2.303-.686 5.029.222 6.627 2.217 2.69 3.355 1.904 8.694-.516 11.578-1.307 1.555-3.123 2.747-5.211 3.475 2.088.728 3.902 1.92 5.211 3.476 2.42 2.883 3.206 8.223.516 11.578-1.24 1.549-3.161 2.444-5.036 2.444zm-171.24-7.974a.817.817 0 01-.644-.315c-.042-.053-4.38-5.535-10.386-8.473a.819.819 0 010-1.47c6.014-2.94 10.265-8.456 10.308-8.512a.818.818 0 111.3.992c-.169.22-3.907 5.068-9.5 8.255 5.599 3.178 9.396 7.982 9.567 8.202a.817.817 0 01-.645 1.321z" fill="#595959"/><path d="M6.482 62.542c5.598 1.313 14.52 4.838 23.05 14.285 2.05-2.816 9.002-11.542 18.224-14.253-9.228-2.752-16.181-11.623-18.229-14.481-8.531 9.45-17.451 13.065-23.045 14.449zm23.125 16.42a.822.822 0 01-.618-.282C15.813 63.544 1.079 63.398.825 63.398H.821a.835.835 0 01-.821-.81.819.819 0 01.811-.825c.185-.002 14.966-.352 28.179-15.529a.816.816 0 011.3.09c.102.154 10.254 15.44 22.94 15.44a.818.818 0 010 1.634c-12.704 0-22.841 15.045-22.942 15.198a.821.821 0 01-.628.363l-.053.002zm38.205 1.118c-1.875 0-3.796-.895-5.037-2.445-2.689-3.355-1.904-8.696.516-11.578 1.308-1.556 3.123-2.747 5.21-3.476-2.087-.729-3.902-1.92-5.21-3.476-2.42-2.882-3.206-8.221-.517-11.577 1.6-1.995 4.325-2.906 6.628-2.217 2.533.76 4.217 3.398 3.755 5.881-.285 1.525-1.325 2.737-2.653 3.087-.802.208-1.707.043-2.422-.446-.648-.443-1.05-1.084-1.132-1.805a.817.817 0 01.719-.905.824.824 0 01.905.72c.037.325.287.542.431.64.324.223.739.304 1.085.215.695-.184 1.295-.926 1.46-1.805.308-1.659-.89-3.499-2.617-4.015-1.68-.503-3.69.185-4.882 1.672-2.188 2.73-1.512 7.117.493 9.503 1.936 2.305 5.206 3.684 8.777 3.71h.218a.818.818 0 010 1.635h-.218c-3.572.028-6.841 1.405-8.777 3.71-2.004 2.386-2.68 6.775-.493 9.505 1.191 1.488 3.202 2.177 4.882 1.671 1.726-.516 2.925-2.356 2.617-4.015-.165-.88-.765-1.62-1.46-1.803-.345-.09-.76-.009-1.085.214-.144.099-.394.315-.431.639a.826.826 0 01-.905.72.817.817 0 01-.72-.906c.082-.718.484-1.36 1.133-1.803.715-.49 1.62-.656 2.422-.447 1.327.35 2.368 1.56 2.653 3.088.462 2.484-1.222 5.122-3.755 5.88a5.563 5.563 0 01-1.59.229zm116.942-24.925a.819.819 0 01-.142-1.623l12.379-2.197a.818.818 0 01.285 1.61l-12.378 2.197a.814.814 0 01-.144.013zm-2.718-20.609a.817.817 0 01-.445-1.503l6.238-4.047a.817.817 0 11.89 1.37l-6.238 4.048a.81.81 0 01-.445.132zM90.4 54.993a.813.813 0 01-.144-.013l-12.379-2.197a.817.817 0 01.286-1.61l12.377 2.198a.816.816 0 01-.14 1.622zm27.319 4.846a.82.82 0 01-.143-.013l-16.467-2.915a.817.817 0 11.285-1.61l16.467 2.915a.817.817 0 01-.142 1.623zm1.1-3.933a.78.78 0 01-.299-.058l-37.505-14.79a.817.817 0 11.6-1.52l37.504 14.79a.816.816 0 01-.3 1.578zM93.114 34.387a.81.81 0 01-.445-.132l-6.238-4.048a.817.817 0 11.89-1.371l6.237 4.048a.817.817 0 01-.444 1.503zm27.54 17.867a.816.816 0 01-.445-.133l-19.964-12.949a.819.819 0 01-.243-1.131.819.819 0 011.132-.24L121.1 50.75a.818.818 0 01-.446 1.503zm34.898-.521a.818.818 0 01-.445-1.503l19.182-12.436a.818.818 0 01.89 1.371l-19.182 12.436a.815.815 0 01-.445.132zm-32.364-2.693a.81.81 0 01-.572-.235L93.894 20.642a.816.816 0 111.144-1.167L123.76 47.64a.819.819 0 01-.573 1.4zm-10.334-22.533a.818.818 0 01-.677-.358l-9.083-13.396a.818.818 0 111.353-.918l9.083 13.396a.817.817 0 01-.676 1.276zm13.452 19.839a.816.816 0 01-.677-.36l-8.883-13.098a.818.818 0 011.354-.918l8.882 13.1a.818.818 0 01-.676 1.276zm3.591-2.016a.817.817 0 01-.755-.503L113.693 6.84a.817.817 0 111.508-.63l15.449 36.987a.818.818 0 01-.753 1.133zm-2.55-34.05a.82.82 0 01-.802-.66l-1.279-6.47a.817.817 0 111.604-.317l1.279 6.47a.817.817 0 01-.802.976zm6.482 32.772a.818.818 0 01-.801-.658l-5.153-26.042a.819.819 0 01.644-.96.82.82 0 01.961.642l5.153 26.043a.817.817 0 01-.804.975zm24.956 16.645a.815.815 0 01-.803-.675.817.817 0 01.661-.948l15.669-2.774a.817.817 0 01.286 1.61l-15.669 2.774a.823.823 0 01-.144.013zm-1.159-4.081a.81.81 0 01-.817-.809v-.02a.82.82 0 01.519-.761l36.767-14.49a.817.817 0 11.598 1.521L158.026 55.51a.818.818 0 01-.4.107zm-4.668-6.996a.82.82 0 01-.573-1.402l28.284-27.745a.82.82 0 011.157.01.82.82 0 01-.011 1.157l-28.284 27.745a.817.817 0 01-.573.235zm9.89-22.113a.818.818 0 01-.676-1.277l9.084-13.395a.818.818 0 011.354.918l-9.084 13.396a.817.817 0 01-.678.358zm-13.183 19.457a.818.818 0 01-.676-1.277l8.623-12.714a.818.818 0 011.353.918l-8.623 12.714a.817.817 0 01-.677.359zm-3.738-1.937a.815.815 0 01-.753-1.133l15.328-36.687a.818.818 0 011.509.63l-15.33 36.688a.817.817 0 01-.754.502zm2.431-33.747a.817.817 0 01-.803-.977l1.281-6.47a.818.818 0 011.604.317l-1.281 6.47a.816.816 0 01-.801.66zm-6.437 32.61a.819.819 0 01-.804-.977l5.11-25.888a.817.817 0 111.604.317l-5.109 25.889a.818.818 0 01-.801.66zm-4.059-.316a.818.818 0 01-.818-.817l-.021-40.94a.818.818 0 011.636 0l.02 40.94a.817.817 0 01-.816.817h-.001z" fill="#595959"/><path d="M159.12 63.412a.818.818 0 01-.818-.818c0-1.185-.11-2.385-.326-3.566a19.013 19.013 0 00-1.113-3.914 20.84 20.84 0 00-1.899-3.606 20.273 20.273 0 00-2.585-3.12 21.076 21.076 0 00-3.152-2.557 19.828 19.828 0 00-3.581-1.859 20.03 20.03 0 00-3.871-1.09 19.137 19.137 0 00-3.514-.308h-.399a18.193 18.193 0 00-3.848.458c-1.268.26-2.535.672-3.784 1.228a19.509 19.509 0 00-3.458 1.938 19.515 19.515 0 00-2.986 2.584 19.13 19.13 0 00-2.441 3.094 20.619 20.619 0 00-1.763 3.511 19.343 19.343 0 00-1.055 3.775 20.319 20.319 0 00-.286 3.432.818.818 0 01-1.636 0c0-1.264.104-2.514.311-3.712.256-1.45.641-2.828 1.144-4.094a22.222 22.222 0 011.905-3.789 20.57 20.57 0 012.642-3.349 21.187 21.187 0 016.969-4.89 20.053 20.053 0 014.089-1.325 19.76 19.76 0 014.186-.497h.41c1.342 0 2.621.112 3.804.333 1.363.234 2.774.631 4.178 1.178a21.655 21.655 0 013.883 2.015 23.017 23.017 0 013.398 2.756 22 22 0 012.798 3.378 22.549 22.549 0 012.058 3.902 20.748 20.748 0 011.206 4.246 21.43 21.43 0 01.351 3.848.818.818 0 01-.817.818z" fill="#595959"/></svg>