<svg width="73" height="25" fill="none" xmlns="http://www.w3.org/2000/svg"><path d="M.54 11.78H71a.538.538 0 010 1.075H.54a.537.537 0 110-1.076z" fill="#DAB465"/><path d="M50.695 11.78h21.029a.538.538 0 010 1.075h-21.03a.537.537 0 110-1.076z" fill="#DAB465"/><path d="M58.198 0c1.215 0 2.477.51 3.48 1.512 2.158 2.159 2.895 5.329 1.835 7.889-.91 2.196-2.93 3.455-5.543 3.455a.538.538 0 110-1.076c2.157 0 3.815-1.017 4.55-2.79.896-2.164.251-4.863-1.602-6.717-1.444-1.444-3.551-1.601-4.8-.357-.892.891-1.168 2.469-.081 3.567.677.687 1.34.693 1.776.579.617-.163 1.044-.63 1.145-1.008.073-.272-.032-.416-.116-.502a.537.537 0 11.76-.76c.406.405.55.967.394 1.542-.22.814-.987 1.524-1.909 1.767-.581.155-1.72.246-2.815-.862-1.558-1.574-1.178-3.822.087-5.085A3.974 3.974 0 0158.2 0z" fill="#DAB465"/><path d="M61.298 1.354c.137 0 .275.054.38.158l10.426 10.426a.537.537 0 11-.76.761L60.918 2.273a.537.537 0 01.38-.919zM57.97 11.78c2.613 0 4.634 1.26 5.543 3.456 1.06 2.56.323 5.73-1.835 7.889-1.87 1.868-4.645 2.025-6.318.357-1.266-1.263-1.646-3.51-.088-5.085 1.094-1.108 2.234-1.014 2.815-.862.922.244 1.69.954 1.91 1.768.155.574.01 1.137-.395 1.542a.537.537 0 11-.76-.76c.084-.086.19-.23.116-.502-.101-.378-.528-.845-1.145-1.008-.437-.115-1.098-.107-1.776.578-1.086 1.098-.811 2.676.082 3.567 1.247 1.243 3.354 1.087 4.799-.356 1.853-1.855 2.498-4.553 1.602-6.717-.735-1.774-2.393-2.791-4.55-2.791a.538.538 0 110-1.076z" fill="#DAB465"/><path d="M71.724 11.78a.538.538 0 01.38.919L61.678 23.125a.537.537 0 11-.76-.76l10.426-10.427a.536.536 0 01.38-.158zM48.06 4.882c.297 0 .538.24.538.538v4.269a.537.537 0 11-1.076 0v-4.27c0-.296.241-.537.538-.537zm-.004 9.532c.297 0 .538.24.538.538v4.265a.538.538 0 01-1.076 0v-4.265c0-.297.241-.538.538-.538z" fill="#DAB465"/><path d="M48.058 14.414a2.1 2.1 0 002.097-2.097 2.097 2.097 0 00-4.194 0 2.1 2.1 0 002.097 2.097zm0-5.264a3.173 3.173 0 013.172 3.167 3.176 3.176 0 01-3.172 3.172 3.176 3.176 0 01-3.172-3.172 3.173 3.173 0 013.172-3.167z" fill="#DAB465"/></svg>