<svg width="47" height="47" fill="none" xmlns="http://www.w3.org/2000/svg"><g clip-path="url(#clip0_622_582)"><mask id="a" style="mask-type:luminance" maskUnits="userSpaceOnUse" x="0" y="0" width="47" height="47"><path d="M46 46V1H1v45h45z" fill="#fff" stroke="#fff" stroke-width="2"/></mask><g mask="url(#a)" stroke="#DAB465" stroke-width="2"><path d="M21.627 23.996l7.881-4.573c1.166-.677 1.166-2.368 0-3.045l-7.881-4.573C20.46 11.128 19 11.973 19 13.327v9.147c0 1.353 1.46 2.2 2.627 1.522z" stroke-miterlimit="10" stroke-linejoin="round"/><path d="M45.164 28.457a5.508 5.508 0 01-5.508 5.508H7.344a5.508 5.508 0 01-5.508-5.508V7.344a5.508 5.508 0 015.508-5.508h32.312a5.508 5.508 0 015.508 5.508v11.842m-32.771 24.05H1.835m43.327 0H21.57" stroke-miterlimit="10" stroke-linecap="round" stroke-linejoin="round"/><path d="M12.39 40.656a2.672 2.672 0 100 5.344 2.672 2.672 0 000-5.344z" fill="#000"/></g></g><defs><clipPath id="clip0_622_582"><path fill="#fff" d="M0 0h47v47H0z"/></clipPath></defs></svg>