<svg width="47" height="47" fill="none" xmlns="http://www.w3.org/2000/svg"><path d="M1.836 40.855h43.328m-38.355.377v2.813m33.4-2.813v2.813m-22.845-3.19h12.272V6.608a3.653 3.653 0 00-3.653-3.653h-4.966a3.653 3.653 0 00-3.653 3.653v34.247zm0 0H5.093V11.45a3.653 3.653 0 013.652-3.653h4.966a3.653 3.653 0 013.653 3.653v29.406h0zm.417-28.541H29.22m.642 3.549h11.863m-36.427 0H17.16m24.747 15.813V11.449a3.653 3.653 0 00-3.652-3.653h-4.967a3.653 3.653 0 00-3.652 3.653v29.406h5.55" stroke="#DAB465" stroke-width="2" stroke-miterlimit="10" stroke-linecap="round" stroke-linejoin="round"/></svg>