<svg width="47" height="47" fill="none" xmlns="http://www.w3.org/2000/svg"><path d="M10.527 16.105c.905-8.032 7.74-14.274 16.037-14.27 8.828.006 16.063 7.18 16.118 15.983.01 1.54-.198 3.03-.593 4.442l.495.212c2.574 1.099 2.1 4.872-.665 5.305l-2.997.469a16.202 16.202 0 01-2.227 2.183" stroke="#DAB465" stroke-width="2" stroke-miterlimit="10" stroke-linecap="round" stroke-linejoin="round"/><path d="M34.55 36.85a15.922 15.922 0 002.02-7.86c-.049-8.81-7.2-15.944-16.033-15.996-8.819-.05-16 6.884-16.22 15.677a16.082 16.082 0 00.59 4.747l-.496.212c-2.574 1.099-2.1 4.872.665 5.305l2.997.469a16.112 16.112 0 0012.552 5.76 16.03 16.03 0 007.372-1.884" stroke="#DAB465" stroke-width="2" stroke-miterlimit="10" stroke-linecap="round" stroke-linejoin="round"/><path d="M16.586 28.752l3.602 4.024 5.154-6.575" stroke="#DAB465" stroke-width="2" stroke-miterlimit="10" stroke-linecap="round" stroke-linejoin="round"/></svg>