<svg width="160" height="143" fill="none" xmlns="http://www.w3.org/2000/svg"><path fill-rule="evenodd" clip-rule="evenodd" d="M120.439 19.231l1.11.192 5.267.316v4.78c.017 9.057-.157 18.134-.682 27.184-.266 4.667-.638 9.33-1.15 13.978a128.08 128.08 0 01-2.251 14.082 54.11 54.11 0 01-2.081 7.113c-.213.625-.487 1.224-.746 1.83-.26.604-.563 1.141-.85 1.72l-.045.09-.051.093a33.187 33.187 0 01-2.047 3.345c-2.889 4.115-6.568 7.552-10.575 10.457a73.989 73.989 0 01-12.279 7.088 90.76 90.76 0 01-6.443 2.704c-2.136.797-4.293 1.531-6.48 2.145l-1.276.353-1.275-.353c-2.194-.614-4.353-1.352-6.48-2.149a92.87 92.87 0 01-6.45-2.702 74.16 74.16 0 01-12.28-7.088c-4.01-2.907-7.698-6.349-10.574-10.475l-.055-.08c-.37-.552-.753-1.085-1.084-1.668l-.379-.636-.31-.514-.27-.537-.385-.753-.18-.354c-.102-.194-.18-.39-.274-.592l-.02-.042-.02-.046c-.26-.608-.524-1.206-.745-1.83a54.886 54.886 0 01-2.07-7.139 127.01 127.01 0 01-2.257-14.09c-.519-4.653-.878-9.316-1.144-13.986-.512-9.039-.682-18.098-.682-27.15v-4.771l5.254-.33 1.088-.187 1.1-.31 1.083-.417 1.076-.532 1.022-.627.993-.71.946-.801.886-.884.85-.979c.253-.333.498-.662.747-1.013.248-.352.444-.71.665-1.065.22-.356.382-.738.57-1.105.186-.366.314-.762.467-1.142.137-.375.25-.759.342-1.148.04-.184.079-.354.115-.553l.585-2.76L54.207 3.9l1.66-.563a53.738 53.738 0 013.356-1.012c1.14-.305 2.287-.58 3.44-.815h.055l1.664-.323 1.738-.29 1.75-.234 1.726-.195h.02A82.656 82.656 0 0176.54.04L78.22 0h1.675c1.15 0 2.296 0 3.442.042 1.145.042 2.289.08 3.428.141h.038l1.7.117 1.735.157 1.74.2 1.731.24 1.737.287 1.7.33h.034c1.134.236 2.268.506 3.401.808a77.74 77.74 0 013.408.991h.051l1.613.581 3.469 1.273.703 3.333c.115.376.23.758.34 1.133.135.391.291.774.466 1.147.159.38.372.744.565 1.104.194.36.425.71.655 1.063l.757 1.042.816.968.876.883.941.82.982.709 1.027.63 1.05.523 1.076.42 1.062.3v-.01zm-.62 2.976l1.409.24 2.655.16v1.912c.017 9.002-.158 18.01-.683 26.996-.265 4.608-.62 9.216-1.137 13.808a124.034 124.034 0 01-2.193 13.725 51.74 51.74 0 01-1.964 6.737c-.213.57-.447 1.115-.683 1.672-.236.557-.518 1.065-.778 1.577l-.017.035-.021.04a30.416 30.416 0 01-1.868 3.038c-2.695 3.839-6.141 7.044-9.893 9.752a70.916 70.916 0 01-11.799 6.799 91.383 91.383 0 01-6.242 2.609 76.212 76.212 0 01-6.256 2.07l-.512.146-.508-.146c-2.126-.59-4.202-1.303-6.262-2.072a88.934 88.934 0 01-6.247-2.618 70.851 70.851 0 01-11.795-6.808c-3.745-2.697-7.193-5.913-9.884-9.766l-.025-.028c-.34-.5-.68-.974-.978-1.502l-.402-.678-.242-.411-.225-.442-.385-.758-.187-.355c-.079-.148-.136-.299-.213-.442v-.022c-.236-.55-.478-1.105-.682-1.66a51.584 51.584 0 01-1.966-6.757 124.252 124.252 0 01-2.2-13.744c-.519-4.603-.865-9.206-1.129-13.845-.508-8.977-.682-17.97-.659-26.965v-1.913l2.655-.168 1.365-.236 1.364-.385 1.333-.512 1.318-.636 1.241-.751 1.186-.853 1.123-.937 1.052-1.042.982-1.138c.3-.397.589-.802.886-1.206.298-.404.53-.85.79-1.277.262-.426.462-.883.683-1.336.221-.453.387-.928.576-1.392.19-.464.298-.958.449-1.418.05-.234.098-.468.146-.709l.232-1.104 1.903-.71 1.585-.538a59.22 59.22 0 013.229-.96 56.37 56.37 0 013.273-.775h.028l1.63-.315 1.658-.277 1.669-.22 1.675-.19a84.293 84.293 0 013.339-.263 80.995 80.995 0 013.356-.135l1.669-.033h1.653c1.12 0 2.239 0 3.357.04 1.118.04 2.227.077 3.343.141l1.68.117 1.67.15 1.669.188 1.664.234 1.654.252 1.638.32h.017c1.097.237 2.188.494 3.274.769a44.09 44.09 0 013.228.952h.028l1.573.532 1.902.71.396 1.798c.146.475.287.95.44 1.418.153.468.372.932.565 1.394.194.461.447.896.682 1.336.236.44.515.853.783 1.275l.882 1.219.958 1.135 1.027 1.058 1.11.96 1.177.856 1.244.74 1.275.639 1.322.514 1.365.385z" fill="#DAB465"/><path d="M119.408 24.197l-1.534-.442-1.488-.576-1.435-.71-1.365-.84-1.307-.95-1.228-1.063-1.146-1.156-1.063-1.248-.965-1.325c-.297-.468-.576-.939-.867-1.418-.291-.48-.504-.99-.757-1.485-.253-.494-.425-1.036-.637-1.557-.197-.53-.365-1.07-.502-1.62l-.17-.8-.85-.312-1.552-.526a46.517 46.517 0 00-3.148-.935 68.177 68.177 0 00-3.175-.75l-1.593-.299L93 5.933l-1.617-.22-1.624-.19-1.63-.155-1.637-.115a151.964 151.964 0 00-3.282-.137 81.962 81.962 0 00-3.299-.035h-1.654l-1.645.033a106.1 106.1 0 00-3.28.13c-1.093.06-2.184.145-3.27.254l-1.625.186-1.62.22-1.61.266-1.601.313a68.176 68.176 0 00-3.176.754c-1.062.28-2.093.596-3.133.93l-1.55.528-.85.311c-.059.27-.112.543-.174.809-.168.545-.342 1.09-.506 1.628a12.658 12.658 0 01-.637 1.56 25.699 25.699 0 01-.768 1.492c-.265.49-.576.946-.88 1.416-.303.47-.648.884-.977 1.326l-1.087 1.243-1.158 1.153-1.24 1.063-1.306.928-1.384.835-1.443.709-1.507.583-1.546.442-1.577.27-.92.059c-.021 8.95.153 17.91.654 26.839.264 4.577.615 9.15 1.119 13.695a124.292 124.292 0 002.16 13.514 50.423 50.423 0 001.9 6.517c.184.53.412 1.038.637 1.546.055.117.117.276.162.354l.193.384.389.762.191.382.213.356.425.709c.266.475.6.923.908 1.38 2.55 3.645 5.845 6.694 9.42 9.294a70.149 70.149 0 0011.478 6.627 89.557 89.557 0 006.109 2.56c2.013.751 4.066 1.449 6.109 2.023a77.187 77.187 0 006.106-2.019c2.013-.751 4.082-1.648 6.095-2.564a70.415 70.415 0 0011.478-6.612c3.573-2.602 6.878-5.644 9.424-9.278a26.79 26.79 0 001.743-2.836c.243-.495.525-.987.734-1.48.208-.492.463-1.064.637-1.568a50.306 50.306 0 001.894-6.488 123.046 123.046 0 002.168-13.508c.51-4.546.863-9.116 1.127-13.695.508-8.942.682-17.906.665-26.872l-.918-.082-1.607-.272.008.007z" fill="#DAB465"/><path fill-rule="evenodd" clip-rule="evenodd" d="M79.863 5.08v55.538h40.728c.281-3.068.5-6.143.682-9.215.511-8.94.683-17.906.666-26.872l-.925-.071-1.605-.272-1.536-.442-1.488-.576-1.435-.71-1.365-.84-1.307-.95-1.226-1.063-1.148-1.155-1.063-1.249-.965-1.325c-.298-.468-.576-.939-.867-1.418-.291-.48-.504-.99-.757-1.484-.253-.495-.425-1.036-.638-1.558a15.7 15.7 0 01-.501-1.619l-.17-.802-.85-.311-1.552-.526a52.384 52.384 0 00-3.148-.926 68.177 68.177 0 00-3.176-.75l-1.59-.299L93 5.933l-1.617-.22-1.624-.19-1.63-.155-1.637-.115c-1.09-.057-2.184-.103-3.282-.137a82.074 82.074 0 00-3.299-.035h-.047zm.002 55.538H39.13c.133 1.48.281 2.957.444 4.431a124.32 124.32 0 002.16 13.515 50.37 50.37 0 001.892 6.516c.184.53.414 1.038.637 1.546.055.117.117.276.162.354l.193.384.39.762.19.382.213.356.425.71c.266.474.6.922.908 1.38 2.55 3.645 5.847 6.693 9.42 9.293a70.149 70.149 0 0011.478 6.627 90.178 90.178 0 006.109 2.56c2.013.751 4.066 1.449 6.109 2.023h.021l-.015-50.839z" fill="#1D1D1B"/><path fill-rule="evenodd" clip-rule="evenodd" d="M103.668 10.16l-.062-.02-1.516-.512a69.636 69.636 0 00-3.069-.903 63.866 63.866 0 00-3.07-.729l-1.59-.305-1.56-.247-1.583-.221-1.605-.179-1.585-.146-1.618-.11a113.711 113.711 0 00-6.493-.177h-1.633l-1.64.029a74.869 74.869 0 00-3.227.13c-1.076.064-2.143.15-3.189.252l-1.607.181-1.583.24-1.569.264-1.558.3a65.439 65.439 0 00-3.105.738c-1.031.276-2.047.58-3.042.901l-1.522.515-.064.024v.058l-.017.06c-.172.551-.342 1.104-.518 1.66v.047l-.022.05a50.288 50.288 0 01-.66 1.6l-.018.037-.02.042c-.262.508-.515 1.023-.79 1.527l-.019.037-.025.036c-.308.463-.617.96-.927 1.422l-.023.036-.024.035c-.342.442-.659.903-.997 1.35l-.031.035-1.14 1.325-1.241 1.23-1.33 1.132-1.418 1.016-1.488.897-1.558.77-1.624.623-1.681.473-1.337.221c0 8.451.176 16.91.654 25.346.26 4.548.606 9.09 1.112 13.613.46 4.486 1.169 8.94 2.125 13.34a48.368 48.368 0 001.828 6.291v.034c.173.488.387.96.59 1.435.035.08.07.17.108.252l.212.411.39.764.167.332.185.307.425.709v.022c.244.442.563.857.825 1.25 2.46 3.521 5.65 6.457 9.07 8.938a67.917 67.917 0 0011.237 6.476 85.53 85.53 0 006.007 2.516 79.686 79.686 0 005.607 1.88c1.894-.546 3.752-1.188 5.606-1.875a83.29 83.29 0 006.006-2.51 67.761 67.761 0 0011.236-6.47c3.401-2.48 6.611-5.412 9.076-8.928a26.668 26.668 0 001.635-2.651c.225-.457.484-.91.682-1.383.198-.473.425-.967.608-1.462v-.04a47.993 47.993 0 001.879-6.265 120.41 120.41 0 002.138-13.335c.508-4.52.851-9.057 1.12-13.603.494-8.451.662-16.923.666-25.379l-1.365-.234-1.675-.47-1.617-.628-1.552-.773-1.467-.903-1.398-1.02-1.337-1.127-1.229-1.237-1.135-1.326-1.024-1.418-.024-.037c-.299-.473-.586-.955-.88-1.436l-.023-.035-.021-.04c-.266-.5-.515-1.01-.77-1.513l-.025-.047-.019-.046c-.226-.524-.426-1.063-.649-1.584l-.021-.05-.017-.067c-.176-.546-.34-1.105-.512-1.648l-.019-.07v-.05h-.017zm-.8.82l-1.062-.355a58.046 58.046 0 00-6.035-1.593l-1.558-.303-1.554-.271-1.558-.221-1.566-.181-1.565-.142-1.605-.123a110.465 110.465 0 00-6.436-.175h-1.624l-1.64.029c-1.063.02-2.126.07-3.189.13-1.063.06-2.102.146-3.135.25l-1.586.176-1.556.221-1.545.257-1.547.3c-1.025.22-2.047.453-3.055.71a48.064 48.064 0 00-2.975.883l-1.11.415c-.132.442-.266.884-.412 1.308l-.028.081-.03.078c-.225.543-.438 1.089-.682 1.623l-.032.069-.03.066c-.266.52-.523 1.04-.801 1.546l-.034.062-.043.064c-.3.486-.595.979-.907 1.458l-.04.06-.041.057c-.342.457-.682.92-1.022 1.368l-.05.061-1.183 1.372-1.276 1.284-1.388 1.18-1.477 1.062-1.569.954-1.632.808-1.7.663-1.777.495-.555.097c0 8.153.19 16.284.65 24.414.258 4.526.604 9.056 1.11 13.556a120.24 120.24 0 002.125 13.23 47.133 47.133 0 001.794 6.142l.022.053c.163.464.365.915.559 1.366l.093.22.2.391.389.77.15.295.167.279.44.74v.033c.23.41.523.788.771 1.162 2.39 3.423 5.503 6.282 8.832 8.692a66.908 66.908 0 0011.076 6.381 84.94 84.94 0 005.935 2.481c1.74.652 3.496 1.259 5.273 1.767a77.9 77.9 0 005.272-1.767 80.028 80.028 0 005.939-2.481 66.713 66.713 0 0011.072-6.381c3.332-2.41 6.44-5.269 8.842-8.69a26.082 26.082 0 001.562-2.53c.213-.441.459-.865.655-1.325.195-.46.412-.921.576-1.396v-.064a47.108 47.108 0 001.783-6.148 118.992 118.992 0 002.126-13.216c.506-4.502.85-9.021 1.116-13.55.463-8.153.637-16.288.663-24.437l-.58-.1-1.771-.501-1.7-.663-1.633-.813-1.547-.95-1.467-1.062-1.365-1.19-1.275-1.293-1.186-1.396-1.048-1.456-.04-.064c-.304-.479-.597-.967-.891-1.453l-.04-.064-.034-.064c-.27-.508-.523-1.02-.782-1.531l-.037-.075-.034-.078c-.229-.532-.437-1.064-.654-1.603l-.036-.084-.03-.088c-.172-.422-.296-.849-.432-1.273v-.009z" fill="#fff"/><path fill-rule="evenodd" clip-rule="evenodd" d="M153.405 83.544c-3.448 1.526-7.474 1.767-11.004 2.836a79.354 79.354 0 00-12.035 4.562c-4.196 2.02-8.547 4.455-12.218 7.744-1.003.901-2.126 1.957-2.763 3.314a6.335 6.335 0 00-.402 1.104 3.386 3.386 0 00-.072.4 4.589 4.589 0 00.171 1.717c.165.555.434 1.07.792 1.517a4.116 4.116 0 001.685.866 3.988 3.988 0 001.881.011c2.262-.488 4.464-1.767 6.377-3.314.036-.035.07.042.034.076-1.979 1.888-6.107 5.228-9.182 4.548.063.179.125.353.18.534.311.113.617.221.925.294.937-.221 1.977-.181 2.867-.442a14.574 14.574 0 004.855-2.262c.04-.031.072.045.036.08-1.452 1.383-2.878 2.631-4.634 3.338-.342.134-.716.287-1.109.422.591-.073 1.18-.201 1.764-.323l.474-.095a63.709 63.709 0 002.308-.974 55.987 55.987 0 007.506-4.02c.31-.204.812-.482 1.322-.802.059-.038.11-.082.168-.117l.102-.06.072-.053c.519-.373 1.365-1.29.153-1.217a8.053 8.053 0 00-1.821.243c-.064.024-.103-.093-.045-.137.812-.592 1.488-1.381 2.514-1.155-.773-.681-2.85-.354-3.441-.17a.052.052 0 01-.027-.007.046.046 0 01-.017-.022.041.041 0 01-.002-.029.045.045 0 01.014-.024c.85-.771 1.786-1.257 2.859-1.127.529.064 1.197.181 1.596.639-.259-2.145-4.497-.897-5.201-.732a.051.051 0 01-.031-.011.066.066 0 01-.017-.029.05.05 0 01.003-.034.053.053 0 01.022-.025c1.607-.663 5.439-3.349 6.51-.084.638 1.933-.637 3.475-2.008 4.588a3.055 3.055 0 01-.425.329c-.525.393-1.025.709-1.437.985a56.09 56.09 0 01-11.444 5.788c-26.906 10.636-55.652 10.636-82.55 0a56.05 56.05 0 01-11.462-5.774c-.395-.263-.912-.592-1.437-.985-.148-.1-.29-.21-.425-.33-1.364-1.104-2.64-2.65-2.006-4.588 1.063-3.264 4.906-.572 6.508.084.056.022.032.115-.02.1-.707-.166-4.943-1.418-5.202.731.4-.457 1.063-.574 1.594-.638 1.078-.131 2.009.355 2.857 1.126.032.029 0 .097-.028.082-.589-.195-2.67-.51-3.443.17 1.022-.221 1.7.563 2.512 1.155.06.044 0 .161-.047.137a7.951 7.951 0 00-1.821-.243c-1.212-.073-.362.844.153 1.217l.076.053.098.06c.062.035.113.079.17.117.512.32 1.025.599 1.324.802a56.064 56.064 0 007.51 4.014c.767.353 1.537.662 2.308.974l.479.095c.58.121 1.169.249 1.762.322-.396-.135-.77-.287-1.112-.422-1.754-.707-3.188-1.955-4.632-3.337-.034-.036 0-.111.034-.08a14.523 14.523 0 004.857 2.251c.89.252 1.932.221 2.866.442.308-.078.614-.181.928-.294.054-.177.115-.356.181-.535-3.071.681-7.206-2.65-9.187-4.548-.033-.033 0-.11.039-.075 1.898 1.56 4.113 2.836 6.376 3.313a4.03 4.03 0 001.885-.012 4.136 4.136 0 001.688-.871 4.553 4.553 0 00.961-3.234 4.311 4.311 0 00-.072-.4 6.458 6.458 0 00-.404-1.104c-.638-1.354-1.751-2.41-2.763-3.314-3.671-3.291-8.02-5.725-12.216-7.747a79.308 79.308 0 00-12.035-4.559c-3.528-1.047-7.552-1.305-11.002-2.836a3.718 3.718 0 01-2.165-1.699c-1.14-2.158.873-3.645 2.508-3.375A4.45 4.45 0 018 78.404a4.47 4.47 0 00-.078 1.356h-.34l-.536.029a1.045 1.045 0 00-.459.042 1.11 1.11 0 00-.397.24 4.28 4.28 0 011.674.122l.117.022c.07.355.185.698.34 1.023-.454-.025-.91-.025-1.364 0a.896.896 0 00-.425.121c.415.181.841.336 1.275.464.34.089.682.15 1.022.203.06.067.117.135.181.2a.09.09 0 00.114.008.095.095 0 00.036-.052.099.099 0 00-.003-.063v-.046c.584.081 1.171.152 1.747.283.03.185.068.353.106.55-.117.041-.236.077-.342.11.901.183 1.788.378 2.665.636l1.063.276c1.239.312 2.47.648 3.697 1.005a11.682 11.682 0 01-1.178-1.628c-.034-.053.03-.128.072-.093.977.797 2.07 1.427 3.238 1.865a17.252 17.252 0 01-2.035-2.061c-.044-.058.024-.137.068-.086 2.083 2.158 4.844 3.463 7.778 3.675 1.416.188 2.854.108 4.242-.236.936-.276 1.673-.861 2.538-1.23a18.4 18.4 0 01.57-1.94c-2.674 2.86-6.99 2.48-10.203 1.202-2.576-1.034-7.924-5.556-12.558-7.444-2.727-.422-6.48-.968-7.084 3.19a4.963 4.963 0 00.233 2.645A4.77 4.77 0 005.33 84.9c.063.407.114.81.153 1.213-.109-.06-.213-.128-.34-.199a6.52 6.52 0 01-1.297-.744l.085.442c.372.532.72 1.148 1.207 1.484.131.091.267.175.406.252 0 .442-.006.883-.019 1.325a3.858 3.858 0 01-.878-.484 4.681 4.681 0 01-.306-.234c.051.424.092.857.109 1.297v.353c.276.306.586.577.924.806-.061.469-.136.935-.212 1.419a3.068 3.068 0 01-.797-.475 15.63 15.63 0 01-.249 1.546c.25.13.504.245.763.356-.102.463-.213.923-.323 1.385a3.558 3.558 0 01-.793-.354c-.087.307-.198.64-.306.974.248.21.515.395.797.553l-.34 1.347a2.692 2.692 0 01-.92-.588c-.151.354-.343.747-.513 1.12.321.327.694.595 1.101.791-.08.33-.157.663-.231.986a4.493 4.493 0 01-1.218-.51c0 .441.23.845.85 1.154 1.15.568 3.174.04 4.464.237.227.037.452.079.682.126a20.5 20.5 0 016.236.978c1.337.442 4.22 1.418 5.871 2.991.22.186.423.392.608.614v-.099c0-.186-.027-.356-.042-.546-.026-.081-.058-.168-.081-.252-.09-.088-.174-.174-.26-.251-.367-.327-.726-.678-1.105-.992l.113-.561c.357.126.7.293 1.022.497a8.053 8.053 0 010-1.014 11.562 11.562 0 00-.808-.508l.164-.756c.268.062.527.155.774.279.028-.162.06-.316.1-.477.04-.319.104-.633.191-.942-.23-.138-.457-.273-.682-.404.08-.293.163-.59.255-.883.284.033.562.108.827.22.093-.204.197-.403.312-.596l-.064-.053-.735-.53c.106-.287.213-.585.34-.884.399.13.781.308 1.14.53.276-.318.588-.6.93-.841-.278-.113-.554-.22-.818-.354l-.801-.393c.102-.227.217-.448.342-.662.491.117.975.264 1.45.442.316.116.65.22.954.355a4.917 4.917 0 011.985-.203 37.865 37.865 0 00-3.613-1.803c.117-.14.244-.274.378-.397.007.023.02.043.038.06a.127.127 0 00.062.03.127.127 0 00.07 0 .15.15 0 00.058-.04c.048-.041.089-.094.133-.14a30.485 30.485 0 016.764 3.215 92.509 92.509 0 015.622 3.67c.45.315.925.627 1.403.949-.155-.139-.304-.285-.461-.419a72.335 72.335 0 00-6.377-5.013c-.043-.028 0-.101.036-.077 2.525 1.418 5.116 2.684 7.474 4.513 1.166.899 3.203 2.127 3.806 3.839.087-.069.166-.147.236-.234-.102-1.02-1.022-2.209-1.364-2.613a15.479 15.479 0 00-1.852-1.734 33.428 33.428 0 00-3.692-2.48c-2.727-1.673-5.456-3.372-8.432-4.344-.036 0-.019-.081 0-.07a38.564 38.564 0 0111.793 5.558c.828.558 1.61 1.187 2.338 1.88a5.234 5.234 0 011.75 1.793 3.84 3.84 0 01.928 2.375c0 1.767-1.292 1.829-2.387 1.634-5.554-.996-9.371-8.082-14.906-8.487a3.658 3.658 0 00-.466.025 4.162 4.162 0 00-1.913.784 8.454 8.454 0 00-1.539 2.158v.157a.161.161 0 01-.04.121.144.144 0 01-.05.037.133.133 0 01-.063.012 6.225 6.225 0 00-.227.634 5.475 5.475 0 00.682 3.722c.555.965 1.586 1.893 2.668 2.699-.134.453-.268.906-.394 1.363a9.71 9.71 0 01-2.646-1.884c.08.404.16.811.227 1.219.083.137.168.277.26.411a8.143 8.143 0 001.743 1.767c-.092.356-.18.71-.27 1.065a10.149 10.149 0 01-1.458-1.252c.03.634.007 1.27-.073 1.899.426.413.863 1.14 1.102 1.37-.122.535-.245 1.062-.362 1.601a4.889 4.889 0 01-1.118-1.137 17.65 17.65 0 01-.618 1.798c.263.287.501.709.71.91.174.189.362.365.56.526-.095.457-.19.912-.28 1.369a6.07 6.07 0 01-1.562-1.493l-.16.345c-.227.488-.425.952-.637 1.416.234.484.534.93.89 1.325.308.266.652.481 1.023.638l-.226 1.226a5.293 5.293 0 01-2.178-1.955c-.316.881-.56 1.789-.727 2.713 1.386 2.152 4.049 3.218 6.14 3.165.045 0 .069.089.024.113a3.951 3.951 0 01-2.223.473c1.821.883 3.666 1.513 4.531 1.928 3.072 1.482 6.141 2.971 9.23 4.336 2.833 1.246 5.698 2.304 8.578 3.285 27.288 7.495 42.13 7.495 69.406 0 2.878-.981 5.739-2.039 8.579-3.285 3.101-1.365 6.164-2.854 9.227-4.336.867-.415 2.712-1.042 4.534-1.928a3.96 3.96 0 01-2.226-.473c-.042-.024-.019-.113.026-.113 2.093.053 4.755-1.013 6.138-3.165a16.562 16.562 0 00-.722-2.713 5.396 5.396 0 01-2.572 2.145c-.132-.386-.26-.775-.385-1.162a3.655 3.655 0 001.488-.808c.429-.383.768-.864.988-1.405a32.65 32.65 0 00-.637-1.418l-.153-.336a5.66 5.66 0 01-2.322 1.864c-.112-.404-.212-.804-.316-1.208a6.54 6.54 0 001.364-1.065c.213-.22.447-.622.706-.91a18.138 18.138 0 01-.616-1.798 5.178 5.178 0 01-1.941 1.646 40.903 40.903 0 01-.304-1.56c.261-.147.508-.32.738-.517.231-.203.68-.976 1.128-1.4a11.063 11.063 0 01-.085-1.891c-.371.378-.769.726-1.19 1.043a8.214 8.214 0 01-.952.62c-.051-.355-.096-.731-.141-1.104l.226-.152a8.34 8.34 0 002.019-1.988c.091-.133.176-.272.259-.411.068-.407.147-.815.228-1.22a9.74 9.74 0 01-2.81 1.969c-.064-.292-.132-.579-.194-.869a.329.329 0 00-.042-.117.389.389 0 00-.064-.097.29.29 0 00-.106-.051.34.34 0 00-.232.042.337.337 0 00-.136.197.369.369 0 000 .124c0 .353.038.733.066 1.104-.568.239-1.137.442-1.701.625-.044-.17-.087-.338-.129-.508a.284.284 0 00-.183-.219c1.579-.983 4.16-2.617 5.174-4.371a5.492 5.492 0 00.699-3.722 5.832 5.832 0 00-.228-.634.148.148 0 01-.114-.051.133.133 0 01-.032-.055.173.173 0 010-.064v-.157a8.412 8.412 0 00-1.539-2.158 4.158 4.158 0 00-1.924-.784 3.271 3.271 0 00-.465-.025c-5.527.405-9.353 7.491-14.905 8.487-1.082.195-2.367.135-2.387-1.635a3.84 3.84 0 01.927-2.374 5.235 5.235 0 011.754-1.794 17.994 17.994 0 012.338-1.88 38.518 38.518 0 0111.754-5.56c.009 0 .018.004.024.01.007.007.01.016.01.026 0 .01-.003.018-.01.025a.033.033 0 01-.024.01c-2.961.972-5.692 2.668-8.432 4.343a33.43 33.43 0 00-3.688 2.48 15.326 15.326 0 00-1.851 1.735c-.342.399-1.263 1.59-1.365 2.611.068.087.146.165.232.234.604-1.721 2.644-2.938 3.807-3.84 2.368-1.828 4.95-3.079 7.478-4.512.04-.025.074.05.034.08a72.675 72.675 0 00-6.309 5.018c-.155.135-.306.28-.459.42.476-.323.952-.637 1.401-.95a94.37 94.37 0 015.617-3.672 32.561 32.561 0 016.069-2.984c.24.186.468.387.682.603-.961.442-1.913.948-2.857 1.476a4.884 4.884 0 011.986.2 7.85 7.85 0 01.95-.353c.314-.103.535-.187.805-.27.164.222.321.478.472.736l-.257.126c-.266.126-.542.243-.818.354.341.24.654.522.931.84.204-.129.417-.24.637-.337v.01c.145.322.27.649.387.978l-.31.22-.066.054c.113.192.213.39.315.596.1-.044.204-.081.31-.11.102.355.193.709.278 1.062l-.197.122c.083.31.146.625.191.943.038.159.068.316.1.475a2.86 2.86 0 01.212-.095l.175.914-.26.166c.018.338.012.677-.017 1.014.149-.093.3-.172.451-.252l.153.791c-.187.175-.376.353-.567.517a6.06 6.06 0 00-.258.252c-.025.086-.055.17-.083.252 0 .181-.023.355-.04.545v.1c.185-.224.389-.428.61-.612 1.647-1.586 4.534-2.547 5.871-2.993a20.573 20.573 0 016.245-1.003c.225-.047.455-.089.682-.124a15.201 15.201 0 012.47.024l.032.06c.017.033.057 0 .047-.027v-.028a4.197 4.197 0 001.923-.268c.638-.307.85-.709.85-1.155a4.419 4.419 0 01-1.398.557 9.636 9.636 0 00-.196-.968 3.808 3.808 0 001.244-.855c-.168-.37-.362-.75-.512-1.12a2.76 2.76 0 01-1.089.663c-.057-.22-.117-.442-.17-.662-.053-.221-.102-.458-.153-.685a4.77 4.77 0 00.944-.628c-.113-.333-.213-.662-.31-.974a3.545 3.545 0 01-.914.376c-.096-.46-.185-.926-.277-1.39.29-.11.574-.237.85-.38a16.509 16.509 0 01-.246-1.546c-.256.212-.543.38-.85.5a45.17 45.17 0 01-.213-1.386 4.87 4.87 0 00.986-.848v-.353c.015-.442.054-.873.109-1.3a4.386 4.386 0 01-.308.235 4.172 4.172 0 01-1.006.532l-.066-.662c-.021-.221-.029-.405-.04-.608.208-.104.41-.222.604-.353.488-.336.833-.955 1.207-1.485l.083-.441a6.518 6.518 0 01-1.297.744c-.226.15-.462.282-.705.397a4.261 4.261 0 00-.23-.883l.11-.058.313-.187c1.447-1.08 2.48-2.631 2.125-5.017-.62-4.15-4.361-3.605-7.084-3.19-4.632 1.882-9.99 6.406-12.556 7.445-3.218 1.288-7.533 1.659-10.202-1.202.224.635.414 1.282.569 1.94.868.353 1.603.954 2.538 1.23 1.386.347 2.82.43 4.234.247 2.932-.219 5.689-1.528 7.767-3.689.047-.05.113.027.068.084a16.645 16.645 0 01-2.017 2.063 11.576 11.576 0 003.237-1.864c.045-.035.111.04.077.093-.348.576-.744 1.12-1.184 1.623a97.09 97.09 0 013.696-1.002l1.063-.279c.88-.258 1.766-.442 2.667-.638a3.686 3.686 0 01-.945-.376.037.037 0 01-.017-.02.04.04 0 010-.026.047.047 0 010-.029.04.04 0 01.017-.02c.102-.035.212-.064.314-.093v.04c0 .042.062.04.07 0v-.068a12.568 12.568 0 011.509-.279l.028.354c0 .106.138.141.157.026l.047-.395a13.469 13.469 0 001.647-.29c.434-.129.86-.285 1.276-.466a.896.896 0 00-.425-.119c-.508-.035-1.025 0-1.533 0-.283 0-.569.022-.85.036l.093-.829 1.365-.256a4.268 4.268 0 011.671-.121 1.04 1.04 0 00-.395-.24 1.007 1.007 0 00-.455-.043l-.54-.029c-.445-.022-.897 0-1.344 0h-.231c.057-.468.114-.908.174-1.237.684-.17 1.393-.2 2.087-.088 1.631-.27 3.646 1.215 2.504 3.375a3.707 3.707 0 01-2.187 1.703l.028.009zM31.795 89.33l-.342.849c-.34-.181-.704-.356-1.063-.526a3.62 3.62 0 001.365-.323h.04zm-1.205-1.148a6.697 6.697 0 01-2.217.51 84.736 84.736 0 00-1.93-.835c1.93.22 4.317.106 5.992-1.206l-.081.3c-.614.314-1.073.937-1.76 1.23h-.004zm98.804 0c-.682-.294-1.148-.917-1.764-1.23l-.083-.301c1.675 1.312 4.064 1.418 5.994 1.206-.645.27-1.288.548-1.93.835a6.682 6.682 0 01-2.212-.51h-.005zm-1.207 1.148a3.65 3.65 0 001.379.323c-.34.17-.701.356-1.05.526l-.34-.849h.011zm-120.89-.44c-.334.03-.672.02-1.004-.031 0-.387.02-.77 0-1.156.34.146.682.274 1.022.394l-.026.793h.009zm142.928-7.586c-.425.022-.85.042-1.276.05l.056-.496c.389-.11.778-.206 1.173-.292.011.265.034.517.051.747l-.004-.009zm1.12 7.35c-.032 0-.028-.06 0-.072l.425-.167.036.355c-.155-.03-.31-.068-.465-.106l.004-.01zm-10.169 7.35c.036 0 .051.076 0 .091a5.545 5.545 0 00-.761.325c-.042-.142-.085-.276-.129-.415.293-.02.587-.02.88 0h.01zm10.885-1.888c-.027 0-.038-.077 0-.084l.638-.121c.045.183.093.353.14.545a6.168 6.168 0 01-.769-.353l-.009.013zm-11.452 0c.027 0 .027.049 0 .06a32.77 32.77 0 00-.851.39c-.042-.097-.078-.194-.121-.291l.963-.159h.009zm8.153-6.788a.034.034 0 01-.024-.01.038.038 0 01-.01-.025.04.04 0 01.01-.026.035.035 0 01.024-.01c.931-.285 1.892-.548 2.84-.866l.049.652c-.948.152-1.913.22-2.88.285h-.009zm-6.993 13.006c.047 0 .064.084.024.111l-.57.335-.034-.38c.213-.011.41-.033.585-.057l-.005-.009zm12.622-2.911l-.259-1.063c.231-.057.457-.121.682-.188l.061-.017c.111.41.234.82.372 1.22a5.575 5.575 0 01-.85.059l-.006-.011zm-12.862.784a.044.044 0 01.024.016.045.045 0 01.009.027c0 .01-.003.02-.009.028a.044.044 0 01-.024.015 5.37 5.37 0 00-.604.186l-.07-.354c.255.022.487.053.683.078l-.009.004zm10.507-1.5a11.54 11.54 0 001.407-.201c.095.294.193.583.3.884a4.396 4.396 0 01-1.733-.56c-.04-.028-.013-.108.03-.114l-.004-.009zm2.897 2.925l-.213-.738c.283-.06.557-.124.774-.161a1.13 1.13 0 00.242-.056c.135.292.285.575.451.849a6.426 6.426 0 01-1.286.1l.032.006zm-3.21-8.154a.04.04 0 01-.013-.017.082.082 0 010-.022v-.02a.04.04 0 01.013-.018c.143-.08.29-.15.442-.21l.102.592a2.78 2.78 0 01-.539-.296l-.005-.008zm.948-2.602l-.095-.755c.297-.106.593-.221.89-.334.017.356.041.71.075 1.083-.29.028-.581.028-.87 0v.006zm-13.986 3.477c.722-.126 1.45-.207 2.181-.24.034 0 .04.066 0 .072a18.55 18.55 0 00-1.962.572l-.213-.384-.006-.02zm-.893.186l.285.503c-.232.089-.463.188-.699.283a7.904 7.904 0 00-.491-.55c.306-.075.606-.152.91-.22l-.005-.016zm14.641-5.673l-.072-.775c.374-.146.744-.303 1.101-.475-.017.318-.028.638-.03.956-.326.12-.658.222-.995.303l-.004-.009zM22.868 120.771c.645.29 1.314.521 1.998.692-.062.355-.115.689-.17 1.031a6.647 6.647 0 01-2.338-.609c-.113-.049-.213-.1-.322-.153.096-.395.188-.797.287-1.197.183.084.368.159.545.236zm130.084-21.81c0-.019 0-.06.019-.05.449.161.933.188 1.396.078.096.22.194.442.296.651-.682-.046-1.363-.22-1.701-.68h-.01zm.232-6.91c-.068-.354-.134-.71-.198-1.063.253-.053.508-.106.774-.177.061.413.129.829.212 1.24a3.303 3.303 0 01-.788-.011v.01zm-14.35 2.383c.085.155.17.316.249.477l-.562.28a5.6 5.6 0 00-.34-.622c.213-.051.425-.093.638-.135h.015zm14.902.272l-.212-.959a9.81 9.81 0 00.731-.22c.078.388.166.799.261 1.22a3.855 3.855 0 01-.78-.052v.01zm-12.987 5.772l.117.534c-.236.144-.474.281-.71.429a23.584 23.584 0 00-.091-.829c.224-.058.452-.103.682-.134h.002zm-1.124-4.363c.085.208.159.424.236.647-.19.115-.377.234-.562.356a11.68 11.68 0 00-.304-.862c.21-.062.423-.112.638-.15l-.008.01zm.622 2.006l.141.605a7.817 7.817 0 00-.583.305 17.186 17.186 0 00-.212-.884c.217-.027.436-.04.654-.037v.01zM19.152 96c.428-.007.855.03 1.275.112l-.027.075-.213.587a7.37 7.37 0 00-1.116-.576l.062-.22.02.021zm-11.178.708a.06.06 0 01.03.017c.008.009.014.02.017.031a.066.066 0 01-.022.065c-.391.23-.816.392-1.258.48l.213-.728c.342.06.682.111 1.024.135h-.004zm11.801-2.538c.425.07.865.142 1.299.221-.068.155-.136.314-.198.475a40.07 40.07 0 00-1.16-.555l.059-.14zm6.296 24.228c.44.105.887.178 1.337.221.038 0 .05.075 0 .088a7.938 7.938 0 01-1.488.276l.136-.585h.015zm-.58-.163l-.16.779a5.151 5.151 0 01-2.463-.616l.34-1.279c.706.488 1.48.86 2.295 1.105l-.012.011zm107.57-6.641c.467-.232.924-.475 1.364-.744.039.338.083.674.134 1.009-.434.194-.88.359-1.334.493l-.177-.758h.013zM7.923 94.041c.042 0 .027.07 0 .084a6.393 6.393 0 01-.464.22l.075-.38.389.076zm133.236 8.153l.083.294a7.66 7.66 0 00-1.024.802v-.795c.302-.131.616-.232.937-.301h.004zm-6.685 16.055a9.261 9.261 0 001.384-.561c.108.355.225.733.342 1.104a5.41 5.41 0 01-1.583.221l-.151-.769.008.005zm-1.322 3.698c-.034-.022 0-.08 0-.087a19.025 19.025 0 001.741-.353l.255.976a3.7 3.7 0 01-2.013-.547l.017.011zM6.372 96.471l-.194.93a5.278 5.278 0 01-1.7-.087c.157-.406.303-.817.444-1.236l.28.092c.39.117.784.221 1.182.3H6.37zm20.594 18.199c.532.172 1.043.41 1.52.712a.106.106 0 01.034.137.12.12 0 01-.035.039 4.698 4.698 0 01-1.787.316l.285-1.206-.017.002zm-.638-.221c-.11.458-.218.916-.32 1.372a5.81 5.81 0 01-2.267-.791l.413-1.515a8.51 8.51 0 002.18.934h-.006zM6.73 94.606a4.324 4.324 0 01-1.409.146c.115-.41.222-.825.321-1.243.403.125.807.234 1.214.329-.04.263-.081.514-.126.768zm4.502-7.34c.034 0 .028.073 0 .07-1.022-.079-2.047-.134-3.04-.309v-.709c1.025.356 2.048.632 3.047.937l-.007.011zm-2.589 1.336c.028 0 .03.064 0 .071-.174.046-.34.084-.518.117l.021-.38c.166.06.34.124.497.192zm-.365 2.848l.015.015a.083.083 0 010 .022.069.069 0 010 .022.06.06 0 01-.015.018 2.92 2.92 0 01-.408.245l.057-.497a2.6 2.6 0 01.34.175h.01zm-1.244 7.464a.032.032 0 01.026.018.035.035 0 01-.002.033 1.792 1.792 0 01-1.093.594c.068-.166.134-.354.198-.51a1.74 1.74 0 00.871-.146v.01zm11.196 1.442c.316.047.716.075 1.124.139-.03.199-.055.4-.079.603l-1.062-.631v-.1h.025l-.008-.011zm3.932-7.797c-.122.15-.237.305-.342.468a25.685 25.685 0 00-1.252-.442l.178-.3c.48.07.955.163 1.422.27l-.006.004zm4.655 29.317c.01 0 .02.004.029.012a.044.044 0 010 .06.043.043 0 01-.03.012c-.563.35-1.206.54-1.863.55.091-.316.18-.627.268-.939.518.119 1.047.221 1.579.305h.017zm108.297-.393a12.884 12.884 0 001.856-.632c.153.38.314.751.478 1.12-.675.3-1.393.481-2.126.534l-.208-1.022zM29.346 112.74c.058.024.058.156 0 .145-.63-.08-1.255-.199-1.872-.355l.142-.619c.582.272 1.167.53 1.743.811l-.013.018zm104.353 1.718a14.09 14.09 0 001.239-.442c.102.508.215 1.012.34 1.511a5.844 5.844 0 01-1.286.318l-.289-1.382-.004-.005zM18.58 98.194a8.64 8.64 0 011.242-.09c-.056.207-.107.421-.158.633a5.942 5.942 0 00-1.111-.417l.027-.126zm112.053 14.535c.608-.294 1.225-.568 1.837-.855l.142.643a18.88 18.88 0 01-1.962.353c-.07 0-.07-.119-.017-.144v.003zm-104.64-4.995c.61.418 1.204.793 1.7 1.105l-.198.775a19.074 19.074 0 01-2.045-.782l.279-1.012c0 .221.023.442.027.663 0 .135.158.13.164 0a6.63 6.63 0 01.068-.771l.004.022zM7.35 86v.84a8.594 8.594 0 01-1.088-.354 14.542 14.542 0 00-.109-1.042c.389.206.787.393 1.193.558L7.35 86zM4.48 98.761c.364.069.863.2 1.363.259l-.121.585a5.969 5.969 0 01-1.458.018 6.947 6.947 0 01-.708-.113c.136-.291.268-.59.395-.883.176.057.356.103.538.137l-.009-.003zm6.709-17.82c.31.096.618.202.922.323a.038.038 0 01.021.016.045.045 0 010 .028.04.04 0 010 .027.036.036 0 01-.008.011.035.035 0 01-.013.007c-.302.022-.606.028-.907.024v-.442l-.015.007zm-.48-.134c.016.188.033.376.057.563-.583 0-1.167-.053-1.745-.077-.05-.298-.09-.592-.128-.884.608.11 1.222.234 1.815.398zm16.3 30.841l-.191.727a9.626 9.626 0 01-2.113-.883l.29-1.001c.644.429 1.318.811 2.014 1.142v.015zm104.495 3.756a7.024 7.024 0 011.624-.747l.31 1.237a4.709 4.709 0 01-1.898-.322.124.124 0 01-.038-.034.124.124 0 01-.017-.05.11.11 0 010-.051.096.096 0 01.029-.042l-.01.009zm1.063 3.313a.043.043 0 01-.024-.018.039.039 0 010-.026.048.048 0 010-.029.041.041 0 01.024-.017c.501-.052.998-.141 1.487-.268l.171.647a7.767 7.767 0 01-1.671-.289h.013zM7.183 91.007c-.027.33-.057.664-.091.99a3.44 3.44 0 01-1.146.02 24.6 24.6 0 00.19-1.257l.093.027c.34.095.644.15.954.22zm11.956 1.105l.604.051-.064.17c-.182-.048-.365-.1-.548-.141-.034 0-.028-.075 0-.075l.008-.005zm-7.947-12.739c.41.208.808.438 1.194.69a.038.038 0 01.013.022.066.066 0 010 .028.056.056 0 01-.017.022.044.044 0 01-.023 0 16.11 16.11 0 00-1.178-.19v-.58l.01.008zm-.591-.276c-.009.264 0 .529.028.791a25.085 25.085 0 00-1.671-.102h-.134a31.953 31.953 0 01-.106-1.283 8.565 8.565 0 011.883.599v-.005zm131.147 22.973c.057 0 .062.095 0 .117-.145.066-.287.14-.425.221v-.274c.14-.024.278-.048.425-.066v.002zm8.415-22.244c-.359.02-.716.053-1.075.09.014-.236.021-.465.021-.688a10.1 10.1 0 011.109-.442c-.041.352-.06.707-.055 1.062v-.022zm-1.558 1.535a6.398 6.398 0 01-.714-.026c-.041 0-.047-.07 0-.088.229-.091.461-.17.682-.248l.028.354.004.008zm-.083-1.371c-.3.042-.597.09-.89.152a.06.06 0 01-.026 0 .047.047 0 010-.073c.285-.18.585-.355.903-.537V80l.013-.01zM18.257 102.079c.31.038.615.101.914.188v.493a4.162 4.162 0 00-.91-.564c-.048-.022-.044-.123 0-.117h-.004zm113.673 7.186c.032.166.068.329.102.497-.75.221-1.46.4-2.07.548-.041 0-.075-.066-.03-.091.655-.38 1.326-.744 1.998-1.117a.342.342 0 00-.008.156l.008.007zm-101.853.954c.045.025 0 .106-.034.091a40.769 40.769 0 01-1.938-.51l.145-.601c.605.347 1.218.665 1.819 1.014l.009.006zM11.602 82.561a.076.076 0 01.017.02c.002.01.002.02 0 .028a.062.062 0 010 .027.053.053 0 01-.017.02 2.986 2.986 0 01-.425.199v-.416c.134.04.268.076.398.122h.027z" fill="#DAB465"/><path fill-rule="evenodd" clip-rule="evenodd" d="M7.307 88.901c-.335.03-.673.02-1.005-.033 0-.386.021-.768.017-1.155.342.146.682.274 1.024.393 0 .268-.017.528-.027.795h-.009zm142.927-7.587c-.425.022-.85.044-1.275.05a20.4 20.4 0 00.055-.497 17.8 17.8 0 011.169-.289c.011.254.034.506.051.736zm1.12 7.349c-.032 0-.028-.06 0-.07.138-.058.283-.114.425-.166.006.118.019.236.038.353a8.909 8.909 0 01-.467-.106l.004-.011zm-10.169 7.353c.037 0 .051.073 0 .089-.26.09-.515.198-.761.325-.04-.142-.085-.277-.129-.414.293-.022.587-.022.88 0h.01zm10.885-1.89c-.027 0-.038-.078 0-.084l.638-.122c.045.186.091.356.138.546a5.906 5.906 0 01-.769-.354l-.007.014zm-11.843 8.352c.303-.13.616-.231.937-.301l.083.294a7.981 7.981 0 00-1.024.802v-.795h.004zm.401-8.363c.028 0 .028.05 0 .061-.284.124-.565.254-.85.39-.04-.096-.078-.195-.119-.29l.961-.161h.008zM11.197 79.375c.408.209.808.441 1.194.688a.042.042 0 01.013.022c.003.01.003.02 0 .03a.052.052 0 01-.015.021.058.058 0 01-.025 0c-.39-.08-.782-.139-1.178-.188v-.583l.01.01zm137.575 7.951c-.034 0-.041-.064 0-.07.931-.283 1.893-.546 2.841-.864 0 .22.03.442.047.652-.948.152-1.913.207-2.878.282h-.01zm-6.994 13.018c.049 0 .066.084.024.11l-.57.336a3.179 3.179 0 00-.034-.378c.208-.022.406-.044.58-.068zm12.622-2.912a90.457 90.457 0 01-.259-1.062c.231-.058.457-.12.682-.188l.062-.017c.112.41.233.819.372 1.219a5.305 5.305 0 01-.851.06l-.006-.012zM30.422 89.666c.34.17.702.355 1.063.525a7.52 7.52 0 01.34-.832 3.66 3.66 0 01-1.364.322l-.038-.015zm.177-1.471c.682-.294 1.146-.917 1.764-1.23l.08-.301c-1.674 1.312-4.061 1.418-5.991 1.208a69.12 69.12 0 011.93.833 6.695 6.695 0 002.217-.51zm97.597 1.14c.115.271.225.547.34.832.342-.181.7-.356 1.05-.526a3.665 3.665 0 01-1.381-.322l-.009.015zm1.207-1.151a6.762 6.762 0 002.217.512 55.31 55.31 0 011.93-.833c-1.93.208-4.317.102-5.992-1.21l.081.302c.617.312 1.086.935 1.764 1.228zm28.124 9.474c-.166-.374-.362-.754-.51-1.122a2.83 2.83 0 01-1.089.662c-.057-.22-.117-.441-.172-.662-.055-.221-.102-.458-.153-.683.337-.17.655-.381.946-.627-.113-.334-.213-.663-.31-.977a3.492 3.492 0 01-.914.376c-.096-.46-.185-.924-.277-1.39.285-.112.566-.236.838-.377a17.078 17.078 0 01-.245-1.547 3.02 3.02 0 01-.85.497 39.583 39.583 0 01-.212-1.382 4.95 4.95 0 00.984-.849v-.335c.017-.442.055-.873.11-1.297-.11.088-.212.166-.308.234-.31.224-.649.402-1.005.53l-.066-.663c-.022-.22-.03-.404-.041-.605.209-.105.41-.224.604-.355.487-.336.833-.952 1.207-1.485l.083-.442a6.545 6.545 0 01-1.296.745c-.227.15-.462.282-.706.398a4.548 4.548 0 00-.23-.884l.109-.055.314-.188c1.448-1.082 2.481-2.631 2.126-5.017-.621-4.153-4.364-3.605-7.085-3.192-4.633 1.885-9.99 6.406-12.557 7.447-3.216 1.285-7.531 1.659-10.203-1.202.225.634.415 1.281.57 1.937.865.356 1.602.955 2.538 1.23 1.384.347 2.818.432 4.231.25 2.934-.208 5.697-1.508 7.782-3.662.047-.05.113.029.068.084a16.705 16.705 0 01-2.015 2.063 11.465 11.465 0 003.235-1.864c.045-.036.111.04.077.093-.348.576-.744 1.12-1.184 1.623a96.513 96.513 0 013.698-1.003l1.063-.276c.88-.26 1.766-.455 2.668-.638a3.774 3.774 0 01-.946-.376.074.074 0 01-.017-.022.043.043 0 01-.009-.026c0-.01.003-.02.009-.027a.074.074 0 01.017-.022c.104-.035.212-.064.314-.09a.118.118 0 000 .037.037.037 0 00.013.02.044.044 0 00.024 0 .036.036 0 00.021 0 .039.039 0 00.015-.02v-.066c.496-.125.999-.218 1.507-.28 0 .145.023.258.027.353.005.095.141.143.158.026.017-.117.027-.22.046-.393a13.88 13.88 0 001.648-.292 11.8 11.8 0 001.275-.464.895.895 0 00-.425-.121c-.508-.035-1.025 0-1.533 0-.282 0-.569.022-.85.035.028-.258.06-.54.094-.828l1.364-.256a4.303 4.303 0 011.671-.122 1.003 1.003 0 00-.852-.283l-.54-.028c-.442-.02-.897 0-1.344 0h-.231c.057-.466.117-.906.174-1.237.684-.17 1.393-.2 2.087-.089 1.631-.27 3.646 1.215 2.504 3.371a3.709 3.709 0 01-2.189 1.69c-3.448 1.526-7.474 1.767-11.004 2.834a79.652 79.652 0 00-12.035 4.564c-4.196 2.021-8.547 4.455-12.218 7.744-1.003.902-2.125 1.958-2.763 3.314a6.417 6.417 0 00-.402 1.104 3.645 3.645 0 00-.072.4 4.567 4.567 0 00.172 1.717c.165.555.434 1.07.791 1.517a4.124 4.124 0 001.685.87 4.031 4.031 0 001.882.014c2.261-.488 4.463-1.767 6.376-3.314.038-.035.07.042.034.075-1.979 1.889-6.106 5.229-9.182 4.549.064.179.125.353.18.534.311.113.617.221.925.294.937-.221 1.977-.181 2.867-.442a14.568 14.568 0 004.889-2.255c.041-.031.073.044.039.079-1.454 1.383-2.881 2.631-4.636 3.34-.343.135-.717.287-1.11.422.591-.075 1.18-.203 1.764-.322l.474-.098a58.806 58.806 0 002.309-.974 55.697 55.697 0 007.505-4.02c.31-.203.812-.482 1.324-.802.058-.037.109-.082.166-.117l.102-.06.072-.053c.519-.373 1.365-1.29.153-1.214a7.938 7.938 0 00-1.821.24c-.064.025-.102-.092-.045-.134.812-.592 1.488-1.383 2.515-1.156-.774-.682-2.851-.355-3.442-.172a.04.04 0 01-.026-.006.049.049 0 01-.018-.022.045.045 0 01-.001-.028.045.045 0 01.016-.024c.85-.773 1.783-1.259 2.856-1.128.53.064 1.199.181 1.597.638-.257-2.145-4.496-.897-5.202-.729a.042.042 0 01-.03-.012.053.053 0 01-.018-.028.064.064 0 01.003-.034.05.05 0 01.022-.025c1.607-.663 5.442-3.351 6.511-.086.637 1.932-.638 3.474-2.009 4.588a3.072 3.072 0 01-.425.329c-.525.393-1.025.709-1.437.985a56.057 56.057 0 01-11.45 5.781c-26.906 10.636-55.65 10.636-82.55 0a56.162 56.162 0 01-11.462-5.774c-.395-.263-.912-.592-1.436-.986a3.759 3.759 0 01-.426-.329c-1.364-1.104-2.64-2.651-2.006-4.588 1.063-3.265 4.906-.57 6.508.086.055.02.032.113-.019.1-.708-.168-4.944-1.418-5.203.729.4-.458 1.063-.575 1.594-.639 1.078-.13 2.009.356 2.857 1.129.032.027 0 .095-.026.08-.59-.195-2.672-.511-3.445.172 1.022-.221 1.7.563 2.514 1.155.058.042 0 .159-.049.135a7.895 7.895 0 00-1.821-.241c-1.212-.075-.362.842.153 1.215l.076.053.098.06.17.117c.512.32 1.025.598 1.324.802a55.782 55.782 0 007.51 4.013c.767.354 1.537.663 2.308.974l.479.098c.58.119 1.169.247 1.762.322-.396-.135-.77-.287-1.112-.422-1.754-.709-3.188-1.957-4.632-3.34-.034-.035 0-.11.034-.079a14.614 14.614 0 004.857 2.253c.89.25 1.932.208 2.865.431.309-.082.615-.181.93-.294.055-.177.114-.354.18-.535-3.07.681-7.203-2.65-9.187-4.548-.034-.033 0-.11.039-.075 1.9 1.56 4.113 2.836 6.376 3.313a4.013 4.013 0 001.884-.013 4.118 4.118 0 001.687-.87c.357-.447.626-.963.79-1.518a4.58 4.58 0 00.171-1.716c-.017-.141-.045-.27-.07-.4a6.56 6.56 0 00-.406-1.104c-.638-1.354-1.752-2.412-2.763-3.314-3.671-3.289-8.02-5.725-12.216-7.747a79.307 79.307 0 00-12.033-4.55c-3.528-1.047-7.552-1.306-11.002-2.836a3.707 3.707 0 01-2.166-1.701c-1.139-2.156.874-3.636 2.509-3.371a4.45 4.45 0 011.096-.058 4.402 4.402 0 00-.076 1.357h-.342l-.536.029a1.025 1.025 0 00-.857.284 4.244 4.244 0 011.675.12l.117.022c.07.355.185.7.34 1.025-.454-.025-.91-.025-1.364 0a.895.895 0 00-.425.119c.415.181.841.336 1.275.464.337.086.678.154 1.022.203.06.066.117.135.181.199a.09.09 0 00.114.008.095.095 0 00.036-.05.099.099 0 00-.003-.064v-.047c.584.082 1.17.153 1.747.283.032.186.068.356.106.55a6.99 6.99 0 01-.342.11c.901.184 1.788.378 2.665.637l1.063.278c1.239.31 2.47.644 3.697 1.003a11.562 11.562 0 01-1.178-1.628c-.034-.053.03-.128.072-.093a11.58 11.58 0 003.238 1.867 17.43 17.43 0 01-2.035-2.063c-.044-.058.024-.135.068-.086 2.083 2.158 4.844 3.463 7.778 3.675 1.417.188 2.855.108 4.244-.236.934-.276 1.671-.862 2.538-1.23.155-.657.344-1.305.568-1.94-2.674 2.86-6.991 2.483-10.203 1.202-2.576-1.034-7.924-5.554-12.555-7.444-2.73-.422-6.483-.968-7.087 3.192a4.967 4.967 0 00.234 2.644 4.774 4.774 0 001.554 2.11c.063.406.115.81.155 1.212-.11-.062-.223-.128-.342-.199a6.75 6.75 0 01-1.297-.744c.032.148.057.296.085.442.372.532.72 1.148 1.207 1.486.13.088.268.172.406.25 0 .442-.006.883-.019 1.325a4.082 4.082 0 01-.878-.484 5.333 5.333 0 01-.306-.234c.051.424.092.857.109 1.297v.356c.276.304.587.574.924.803-.061.469-.136.937-.212 1.419a3.007 3.007 0 01-.797-.475 15.63 15.63 0 01-.25 1.546c.254.133.505.245.764.356-.102.464-.21.925-.323 1.385a3.558 3.558 0 01-.793-.354c-.087.307-.198.64-.306.974.249.21.516.395.8.553l-.343 1.347a2.692 2.692 0 01-.92-.588c-.151.354-.343.75-.513 1.12.322.327.694.594 1.101.791-.08.33-.155.663-.231.986a4.358 4.358 0 01-1.218-.51c0 .441.23.847.85 1.154 1.15.568 3.173.04 4.464.239.227.035.452.077.682.124 2.114.001 4.216.33 6.236.976 1.337.442 4.22 1.418 5.871 2.991.22.186.423.391.608.614v-.099c0-.184-.028-.354-.04-.546-.028-.082-.06-.166-.083-.252-.09-.088-.175-.174-.26-.252-.367-.326-.727-.675-1.105-.991l.113-.561c.357.127.7.294 1.024.497a7.332 7.332 0 010-1.014c-.268-.177-.535-.356-.81-.508.056-.252.107-.502.164-.756.267.062.527.155.774.278.027-.161.06-.32.1-.474.041-.319.105-.635.191-.944-.23-.138-.457-.273-.682-.404.08-.294.163-.59.255-.883.284.034.562.108.827.22.093-.204.197-.404.312-.596l-.064-.053-.735-.53c.106-.287.212-.585.34-.884.4.13.782.308 1.141.53a5.12 5.12 0 01.931-.841c-.28-.113-.556-.221-.82-.354-.264-.132-.536-.258-.801-.393a8.96 8.96 0 01.342-.662c.491.117.975.264 1.45.441.316.117.65.221.954.354a4.877 4.877 0 011.985-.201 37.362 37.362 0 00-3.613-1.805c.118-.14.244-.273.378-.398a.156.156 0 00.038.06c.019.015.04.026.062.033a.151.151 0 00.07 0 .106.106 0 00.057-.04c.05-.042.09-.095.134-.141a30.488 30.488 0 016.764 3.216 95.227 95.227 0 015.622 3.67c.45.315.925.627 1.403.949-.153-.141-.304-.283-.461-.417a71.939 71.939 0 00-6.377-5.015c-.043-.026 0-.101.036-.077 2.525 1.418 5.118 2.684 7.473 4.513 1.167.901 3.206 2.127 3.81 3.839.087-.068.165-.146.233-.234-.102-1.021-1.022-2.209-1.364-2.613a14.968 14.968 0 00-1.852-1.732 33.144 33.144 0 00-3.69-2.483c-2.729-1.672-5.458-3.37-8.434-4.343-.034 0-.019-.081 0-.07a38.516 38.516 0 0111.793 5.56c.828.556 1.61 1.184 2.338 1.877a5.256 5.256 0 011.751 1.794c.567.655.895 1.495.927 2.374 0 1.768-1.292 1.832-2.387 1.635-5.554-.996-9.372-8.082-14.907-8.487a3.294 3.294 0 00-.465.027 4.134 4.134 0 00-1.913.782c-.62.63-1.14 1.36-1.539 2.16v.155a.16.16 0 01-.04.121.144.144 0 01-.051.037.133.133 0 01-.062.012 6.2 6.2 0 00-.227.634 5.475 5.475 0 00.682 3.722c.555.965 1.586 1.893 2.668 2.699a72.52 72.52 0 00-.394 1.365 9.771 9.771 0 01-2.646-1.886c.08.404.16.811.227 1.219.083.137.168.276.26.411a8.173 8.173 0 001.743 1.767c-.092.354-.177.707-.268 1.063-.11-.075-.213-.153-.321-.234-.404-.31-.785-.65-1.14-1.019.033.635.009 1.272-.072 1.902.425.411.863 1.138 1.101 1.368-.12.534-.244 1.062-.361 1.601a4.935 4.935 0 01-1.118-1.138 17.75 17.75 0 01-.618 1.799c.263.287.501.709.71.91.174.189.362.365.56.528-.095.457-.19.912-.28 1.369a6.035 6.035 0 01-1.562-1.493l-.16.344c-.227.489-.425.955-.637 1.419.233.484.534.93.89 1.325.308.266.652.481 1.023.638l-.226 1.226a5.301 5.301 0 01-2.178-1.957c-.317.881-.56 1.789-.727 2.713 1.386 2.151 4.049 3.218 6.14 3.165.045 0 .068.089.024.115a3.976 3.976 0 01-2.224.471c1.822.883 3.667 1.513 4.534 1.928 3.07 1.482 6.139 2.971 9.227 4.336 2.834 1.246 5.699 2.304 8.58 3.285 27.287 7.495 42.13 7.495 69.405 0 2.878-.981 5.739-2.039 8.579-3.285 3.097-1.365 6.164-2.854 9.227-4.336.867-.415 2.712-1.043 4.534-1.928a3.962 3.962 0 01-2.224-.471c-.044-.026-.021-.115.024-.115 2.093.053 4.754-1.014 6.14-3.165a17.331 17.331 0 00-.724-2.713 5.39 5.39 0 01-2.572 2.145c-.132-.386-.26-.775-.385-1.162a3.642 3.642 0 001.483-.805c.429-.383.767-.863.989-1.404a31.58 31.58 0 00-.638-1.42l-.153-.336a5.668 5.668 0 01-2.319 1.864c-.112-.404-.212-.804-.319-1.208a6.52 6.52 0 001.365-1.065c.213-.22.446-.622.708-.91a19.16 19.16 0 01-.619-1.798 5.183 5.183 0 01-1.94 1.646 45.214 45.214 0 01-.304-1.56c.261-.147.508-.32.737-.516.232-.204.683-.977 1.129-1.401a10.962 10.962 0 01-.085-1.891c-.372.378-.769.726-1.19 1.043-.304.23-.622.437-.953.621-.051-.354-.095-.732-.14-1.105l.225-.152a8.398 8.398 0 002.02-1.988 8.26 8.26 0 00.259-.411c.068-.409.147-.818.23-1.222a9.77 9.77 0 01-2.813 1.968c-.063-.289-.131-.578-.193-.868a.297.297 0 00-.043-.115.321.321 0 00-.059-.099.35.35 0 00-.108-.053.321.321 0 00-.23.042.316.316 0 00-.138.32c0 .354.038.734.066 1.105-.568.238-1.137.441-1.701.625-.042-.17-.087-.338-.129-.508a.289.289 0 00-.062-.135.269.269 0 00-.121-.084c1.579-.983 4.162-2.615 5.173-4.371a5.491 5.491 0 00.7-3.723 5.988 5.988 0 00-.228-.634.13.13 0 01-.061-.013.111.111 0 01-.053-.037.137.137 0 01-.032-.056.17.17 0 010-.064v-.156a8.475 8.475 0 00-1.537-2.159 4.16 4.16 0 00-1.924-.784 3.314 3.314 0 00-.467-.024c-5.527.404-9.353 7.49-14.905 8.487-1.08.194-2.368.134-2.387-1.635.033-.88.361-1.72.927-2.375a5.261 5.261 0 011.753-1.793 18.062 18.062 0 012.339-1.88 38.525 38.525 0 0111.756-5.558c.038 0 .051.06 0 .07-2.961.973-5.692 2.67-8.432 4.344a33.43 33.43 0 00-3.688 2.48 15.002 15.002 0 00-1.851 1.734c-.342.4-1.263 1.591-1.365 2.614.069.086.147.164.232.234.604-1.723 2.644-2.94 3.807-3.84 2.368-1.83 4.95-3.08 7.477-4.512.041-.027.075.048.034.077a72.408 72.408 0 00-6.306 5.019c-.157.134-.308.278-.461.419.478-.322.952-.636 1.403-.95a93.593 93.593 0 015.617-3.669 32.4 32.4 0 016.069-2.986c.239.186.467.387.682.603a40.94 40.94 0 00-2.859 1.476 4.96 4.96 0 011.986.2c.31-.137.628-.255.952-.353.312-.104.533-.188.803-.27.164.222.321.48.472.739l-.257.123c-.266.128-.542.245-.818.354.341.24.654.523.931.841.204-.128.417-.24.637-.338v.01c.143.322.268.649.385.978l-.31.22-.066.054c.112.192.212.39.314.596a2.87 2.87 0 01.311-.11c.102.355.195.709.28 1.064l-.197.12c.08.31.144.625.191.943.036.157.068.316.098.475.068-.036.142-.067.212-.095.062.3.119.609.175.914l-.26.166c.019.338.013.677-.017 1.014.151-.091.3-.172.451-.252l.153.791c-.187.174-.374.355-.566.517a6.073 6.073 0 00-.259.252l-.083.251c0 .182-.023.356-.04.546v.099c.186-.222.39-.426.61-.611 1.647-1.587 4.534-2.545 5.871-2.994a20.627 20.627 0 016.268-1.002c.213-.047.453-.089.68-.124.823-.058 1.649-.05 2.47.024l.032.06c0 .033.057 0 .047-.027a.066.066 0 000-.028 4.21 4.21 0 001.923-.268c.638-.307.851-.707.851-1.155a4.432 4.432 0 01-1.399.557 9.928 9.928 0 00-.194-.968 3.758 3.758 0 001.242-.855l-.019-.026zm1.843 3.399a1.658 1.658 0 01-.281-.033c.468-.592.51-1.635-.098-3.501-1.126-3.468-2.491-5.768-2.002-9.746.317-2.571 1.303-5.2 1.022-7.853-.138-1.383-.605-2.35-1.264-3.002-.823-1.082-1.975-1.493-3.227-1.504a5.193 5.193 0 00-1.154-.126h-.013c-2.818 0-6.141 1.988-8.224 3.29-2.999 1.868-5.919 4.15-9.233 5.047-3.314.896-6.241-.02-9.074-2.11a5.56 5.56 0 00-.225-.353c-.026-.04-.068 0-.073.035-.004.035 0 .088 0 .135a.138.138 0 00-.049.026.148.148 0 00-.034.049.185.185 0 000 .057c.002.02.007.038.015.055.022.04.045.071.062.106-.096 1.918.304 3.407.78 5.317.009.066.024.13.045.193.028.378.109.75.242 1.104.124.642.3 1.271.525 1.882l.191.71a61.924 61.924 0 00-7.101 4.43c-2.729 1.969-8.73 6.552-6.058 11.54.085.155.174.3.261.442.666 1.467 1.45 2.719 1.881 4.274.011.317.004.634-.021.95-25.932 7.29-46.575 7.29-72.481 0a8.318 8.318 0 01-.022-.95c.425-1.546 1.216-2.807 1.877-4.274.096-.144.183-.29.264-.442 2.674-4.988-3.344-9.571-6.056-11.54a62.113 62.113 0 00-7.101-4.43c.061-.235.125-.47.19-.71.224-.603.397-1.224.52-1.858a4.16 4.16 0 00.242-1.104.742.742 0 01.042-.19c.477-1.926.874-3.415.778-5.317.022-.035.045-.068.066-.108a.15.15 0 00.015-.055.17.17 0 00-.01-.058.145.145 0 00-.083-.075v-.135c0-.048-.045-.073-.068-.035-.083.126-.153.245-.226.356-2.835 2.083-5.781 2.995-9.074 2.11-3.292-.887-6.236-3.193-9.233-5.048-2.083-1.295-5.418-3.283-8.232-3.283h-.032c-.39 0-.777.043-1.157.128a3.82 3.82 0 00-1.786.34 3.969 3.969 0 00-1.45 1.136c-.656.651-1.123 1.619-1.266 3.002-.27 2.65.717 5.281 1.023 7.853.49 3.976-.874 6.277-2.002 9.743-.6 1.876-.555 2.916-.102 3.504a1.657 1.657 0 00-.281.033c-.091.013-.053.102 0 .102l.425.028c.704.663 2.081.621 3.673.663 1.569.03 3.133.194 4.676.488.831.199 1.66.415 2.483.663a40.07 40.07 0 014.827 1.86c.98.442 1.896 1.082 2.835 1.621a17.503 17.503 0 011.518 2.072 15.516 15.516 0 01-1.048 6.152c-.822 2.07-3.367 5.761-2.436 8.248.041.179.094.355.158.526.682 1.811 2.538 2.861 4.287 3.466 2.92 1.767 6.092 3.075 9.089 4.506 32.257 15.388 65.527 15.388 97.786 0 2.995-1.418 6.164-2.741 9.087-4.506 1.749-.605 3.599-1.655 4.287-3.466.063-.171.115-.347.155-.526.931-2.48-1.611-6.185-2.433-8.248a15.421 15.421 0 01-1.059-6.134c.455-.73.962-1.423 1.516-2.074.939-.539 1.857-1.178 2.837-1.62a40.583 40.583 0 014.823-1.862 35.83 35.83 0 012.483-.662 28.143 28.143 0 014.676-.491c1.594-.044 2.976 0 3.675-.662l.425-.029c.055 0 .051-.095 0-.104l.007-.018zM10.644 79.877a26.802 26.802 0 00-1.67-.1h-.13a31.6 31.6 0 01-.106-1.284 8.57 8.57 0 011.883.598c-.01.264 0 .529.027.791l-.004-.004zm131.1 22.196c.058 0 .062.095 0 .117-.145.066-.287.14-.425.221v-.269a6.6 6.6 0 01.425-.069zm-.212-3.856a.044.044 0 01.024.015.045.045 0 01.009.028c0 .01-.003.02-.009.027a.044.044 0 01-.024.016 4.694 4.694 0 00-.604.188l-.072-.356c.255.022.487.053.682.077l-.006.005zm13.391 1.418a39.025 39.025 0 01-.181-.731c.283-.06.557-.124.774-.162.082-.008.163-.026.242-.053.135.29.285.573.451.846a5.948 5.948 0 01-1.284.1h-.002zm-3.208-8.154l-.012-.017a.041.041 0 010-.022.082.082 0 010-.022l.012-.016c.143-.084.292-.158.445-.22l.102.591a2.568 2.568 0 01-.542-.305l-.005.011zm.946-2.602c-.034-.247-.063-.499-.095-.755.297-.106.593-.221.89-.334.017.356.041.71.075 1.083a4.406 4.406 0 01-.87 0v.006zm-15.287 4.45a8.064 8.064 0 00-.491-.55c.3-.085.602-.164.904-.237.1.165.191.335.287.503-.232.089-.464.188-.7.283zm12.786-13.517c-.358.02-.717.053-1.076.092.015-.236.021-.468.021-.691.362-.17.732-.317 1.11-.442a8.381 8.381 0 00-.055 1.063v-.023zm2.193 6.306c.374-.146.744-.302 1.101-.475-.017.318-.028.639-.03.957a8.783 8.783 0 01-.999.294 37.749 37.749 0 01-.072-.776zm-129.48 34.656c.647.288 1.316.519 2 .692-.062.353-.117.687-.172 1.029a6.602 6.602 0 01-2.339-.609 5.834 5.834 0 01-.32-.153c.095-.395.189-.797.286-1.197.183.086.368.159.545.238zm130.084-21.813c0-.018 0-.06.021-.049a2.42 2.42 0 001.394.078c.096.22.196.442.298.651-.682-.044-1.365-.22-1.701-.68h-.012zm-4.434-18.957a14.57 14.57 0 00-.891.152.048.048 0 01-.025 0 .047.047 0 010-.073c.282-.18.582-.355.903-.537v.467l.013-.01zm4.663 12.052c-.07-.354-.134-.71-.2-1.063.253-.053.509-.108.776-.176.062.413.13.828.213 1.239a3.295 3.295 0 01-.789-.011v.01zm-14.103 2.86l-.559.28a5.615 5.615 0 00-.342-.622c.213-.05.425-.093.638-.135.085.155.17.314.248.477h.015zm14.667-.205c-.073-.318-.143-.64-.213-.96.247-.065.489-.136.731-.209.079.39.168.8.262 1.222a4.183 4.183 0 01-.778-.064l-.002.011zm-12.881-2.598c.034 0 .04.069 0 .075-.664.153-1.319.344-1.962.57a15.299 15.299 0 01-.213-.382 17.76 17.76 0 012.166-.263h.009zm11.142 4.716c-.043-.028-.017-.106.027-.114a11.68 11.68 0 001.405-.202c.096.294.196.586.302.884a4.412 4.412 0 01-1.734-.565v-.003zM140.886 101l-.71.431a22.694 22.694 0 00-.094-.831c.225-.058.453-.103.683-.135l.116.535h.005zm-1.025-4.248c-.187.113-.374.234-.559.354a13.004 13.004 0 00-.304-.862c.206-.061.416-.11.627-.148.085.208.162.424.236.647v.009zm8.031-15.414c-.041 0-.049-.07 0-.088.227-.093.461-.17.682-.25 0 .121.017.243.027.356-.24 0-.474 0-.714-.025l.005.007zm-7.642 16.77c.049.204.096.405.14.608a7.874 7.874 0 00-.584.305c-.062-.294-.132-.59-.213-.884a5.16 5.16 0 01.657-.03v.001zM7.972 96.717a.076.076 0 01.032.017c.008.01.014.02.017.031a.075.075 0 010 .038.084.084 0 01-.019.029c-.392.23-.818.39-1.26.477.072-.241.144-.482.212-.727.34.063.681.108 1.025.135h-.007zm11.8-2.538c.437.07.867.141 1.3.22a12.19 12.19 0 00-.197.475 36.956 36.956 0 00-1.161-.552c.021-.04.038-.093.057-.143zm5.564 24.815c-.855.01-1.7-.194-2.463-.594.108-.427.212-.855.34-1.279.706.487 1.48.859 2.295 1.104a106.5 106.5 0 01-.16.78l-.012-.011zm107.73-7.398c.467-.232.924-.475 1.364-.744.039.338.083.674.134 1.009-.434.195-.88.36-1.335.493-.057-.254-.119-.506-.176-.758h.013zM7.93 94.042c.04 0 .025.07 0 .084a6.895 6.895 0 01-.466.22c.026-.123.051-.251.077-.38l.389.076zm125.229 27.905c-.034-.022 0-.077.019-.086a19.216 19.216 0 001.737-.353l.257.978a3.711 3.711 0 01-2.013-.55v.011zM6.376 96.474l-.193.927a5.278 5.278 0 01-1.7-.086 28.1 28.1 0 00.443-1.237c.09.033.181.064.281.093.389.117.784.221 1.184.303h-.015zm19.642 19.359a5.882 5.882 0 01-2.265-.791c.14-.508.276-1.012.412-1.517a8.43 8.43 0 002.18.934c-.108.458-.215.916-.32 1.374h-.007zM6.735 94.598c-.46.125-.935.174-1.409.144.117-.411.213-.824.321-1.244.402.128.807.238 1.214.33-.04.256-.081.514-.126.77zm4.502-7.344c.034 0 .028.075 0 .07-1.022-.077-2.047-.135-3.04-.309v-.707c1.025.353 2.048.63 3.047.934l-.007.011zM8.648 88.59c.028 0 .032.064 0 .07-.174.047-.34.087-.518.118l.02-.38c.169.064.341.128.498.194v-.002zm9.597 13.598c-.049-.022-.044-.123 0-.117.309.038.615.101.914.188v.493a4.333 4.333 0 00-.912-.564h-.002zM8.283 91.422c.006.005.01.01.015.017a.067.067 0 010 .02.07.07 0 010 .022.06.06 0 01-.015.018 2.92 2.92 0 01-.408.245c.02-.168.04-.331.057-.497.118.05.232.108.342.175h.009zm-1.244 7.482a.032.032 0 01.025.019.034.034 0 01-.001.031 1.807 1.807 0 01-1.093.597c.068-.168.134-.356.198-.513.297.031.596-.015.871-.134zm11.196 1.444c.316.044.716.073 1.124.137-.03.199-.053.402-.079.603-.34-.221-.712-.417-1.062-.632v-.099c0-.024 0 0 .025 0l-.008-.009zm10.272 15.041a.093.093 0 01.034.038.104.104 0 010 .101.093.093 0 01-.034.038 4.686 4.686 0 01-1.785.316c.093-.405.19-.804.283-1.206a6.6 6.6 0 011.52.709l-.018.004zM21.81 93.012c-.415-.159-.831-.3-1.252-.442l.178-.302c.48.07.955.163 1.422.27-.12.15-.234.305-.34.468l-.008.006zm5.023 28.854a.04.04 0 01.02.016.043.043 0 01.009.026.047.047 0 01-.008.026 3.636 3.636 0 01-1.887.566c.086-.316.18-.628.27-.939.518.119 1.045.221 1.579.305h.017zm105.102-12.607c.032.168.068.329.102.497-.75.221-1.458.4-2.07.55-.041 0-.075-.068-.03-.093.655-.38 1.326-.744 1.998-1.117a.426.426 0 00-.009.163h.009zm5.048 11.582c.155.38.315.751.478 1.12-.674.3-1.393.481-2.125.534-.072-.353-.14-.682-.213-1.023a12.71 12.71 0 001.852-.631h.008zm-107.632-8.112c.058.027.058.157 0 .146-.63-.08-1.255-.198-1.872-.353l.142-.621c.585.272 1.167.53 1.743.811l-.013.017zm104.352 1.721c.426-.135.838-.274 1.24-.442.102.508.212 1.012.34 1.511a5.98 5.98 0 01-1.286.321c-.096-.462-.189-.924-.289-1.383l-.005-.007zm-103.63-4.254c.046.024 0 .106-.033.09a40.769 40.769 0 01-1.939-.51l.145-.601c.614.354 1.229.674 1.828 1.021zm104.542 8.805c-.049-.254-.102-.513-.151-.769.476-.148.94-.336 1.386-.561l.34 1.104a5.397 5.397 0 01-1.581.221l.006.005zm-115.464-23c.427-.007.855.031 1.275.113l-.025.075c-.069.199-.132.402-.198.603a7.37 7.37 0 00-1.114-.579l.062-.212zm-.566 2.196a8.376 8.376 0 011.242-.093c-.056.21-.107.422-.158.634a6.104 6.104 0 00-1.111-.418.2.2 0 01.027-.123zm8.828 20.424c.038 0 .05.075 0 .088a8.02 8.02 0 01-1.488.276c.047-.196.098-.395.149-.594.44.105.888.179 1.339.221v.009zm103.253-5.744c-.072 0-.072-.119-.019-.145.608-.294 1.226-.566 1.836-.855l.143.643c-.647.153-1.301.271-1.96.353v.004zM12.116 81.252a.04.04 0 01.023.015.05.05 0 01-.006.061.046.046 0 01-.018.012c-.302.02-.604.027-.908.024v-.441c.31.097.617.203.92.324l-.012.005zm13.343 27.579c.092-.354.187-.674.279-1.01 0 .221.025.442.027.663 0 .135.158.13.164 0a6.82 6.82 0 01.068-.769 51.9 51.9 0 001.7 1.105c-.061.258-.127.516-.19.775a19.05 19.05 0 01-2.048-.764zM6.261 86.498a13.021 13.021 0 00-.11-1.043c.392.208.794.394 1.205.56v.84a8.985 8.985 0 01-1.088-.355l-.007-.002zm5.346-3.932a.053.053 0 01.017.02.043.043 0 010 .026c.003.01.003.02 0 .03a.053.053 0 01-.017.02 3.09 3.09 0 01-.412.198v-.415c.136.04.268.075.397.121h.015zM4.484 98.74c.364.066.863.199 1.365.259l-.123.585c-.483.064-.972.07-1.456.018a6.994 6.994 0 01-.71-.115c.136-.29.27-.588.395-.884.177.06.357.106.54.14l-.01-.003zm6.286-17.39c-.583 0-1.165-.053-1.745-.08-.05-.296-.09-.592-.128-.883.608.113 1.216.238 1.815.402.017.194.045.382.058.57v-.009zm16.054 31.018a9.616 9.616 0 01-2.126-.883c.092-.356.188-.663.279-1.01.645.429 1.32.81 2.017 1.14-.051.269-.108.517-.17.762v-.009zm104.722 3.19a.081.081 0 01-.038-.033.095.095 0 01-.019-.049.095.095 0 010-.053.11.11 0 01.029-.042 7.092 7.092 0 011.624-.749l.311 1.237a4.69 4.69 0 01-1.907-.302v-.009zm1.05 3.141a.044.044 0 01-.023-.015.048.048 0 010-.029.048.048 0 010-.029.044.044 0 01.023-.015c.501-.054.999-.144 1.488-.27.057.221.117.442.17.65a7.983 7.983 0 01-1.671-.292h.013zM7.186 91.008c-.026.33-.055.663-.09.99a3.5 3.5 0 01-1.145.022c.074-.42.14-.841.191-1.259l.092.03c.34.092.644.147.952.218zm11.94 1.174c-.035 0-.028-.073 0-.073l.603.048-.062.168c-.185-.05-.37-.1-.55-.143h.008z" fill="#1D1D1B"/><path fill-rule="evenodd" clip-rule="evenodd" d="M72.35 82.556c.323.24.591.55.784.912.108.187.195.386.26.594.031.117.044.248.076.367.008.117.028.232.06.344.11-.22-.052-.823-.137-1.055a5.496 5.496 0 00-.402-.84c-.102-.177-.119-.157-.066-.523 0-.1.022-.2.028-.299a4.56 4.56 0 01.353-1.228 5.59 5.59 0 01.157-.56 4.25 4.25 0 00.102-.663c0-.232.075-1.262-.036-1.432-.297.115-.406.272-.759.272a.84.84 0 01-.394-.095.875.875 0 01-.31-.272c-.08-.115-.101-.22-.23-.305-.213-.117-.532-.077-.683-.916a4.465 4.465 0 01-.043-1.039c-.03-.3.055-.602.236-.839.198-.21 1.063-.826 1.32-.753.132.037.183.17.249.287a9.04 9.04 0 001.213 1.445c.19.154.398.322.591.47.194.148.513.278.577.49a1.09 1.09 0 01-.028.462c-.002.824.076 1.645.231 2.452.239 1.166.738 2.21.893 3.41a5.817 5.817 0 01-.703 3.555c-.094.15-.334.532-.5.565a10.523 10.523 0 01-1.7-.366c-.37-.115-.398-.221-.77-.038-.461.243-1.332.177-1.832.084a7.188 7.188 0 01-1.607-.497c.06-.126.126-.249.2-.367.15-.273.224-.584.212-.899a.759.759 0 00-.14-.426c.017.39-.055.78-.21 1.136a2.47 2.47 0 01-.683.914c-.244.232-.25.117-.25.481a6.629 6.629 0 01-.183 2.057 4.951 4.951 0 01-.179.555.972.972 0 00-.144.594c.032.395.066.992.112 1.37.003.11.02.219.05.324l.101.265c.066.188.12.367.179.557.125.388.223.785.295 1.188-.102-.112-1.56-2.757-1.679-2.97a591.89 591.89 0 01-1.681-2.994l-2.515-4.478c-.134-.243-.778-1.338-.822-1.504.102 0 .807.14.941.172.213.056.742.124.955.177l1.173.221a1.8 1.8 0 01.232.049c.167.035.336.061.506.08a21.507 21.507 0 00-1.21-1.834l-2.461-3.67c-.2-.3-.415-.605-.612-.91-.351-.53-.498-.512-.264-.974.584-1.142-.15-1.469 0-2.569.257-1.833 2.23-2.533 3.735-2.16a5.098 5.098 0 011.913 1.104c.256.254.484.536.68.842.23.34.482.652.353 1.105-.09.177-.161.363-.213.556-.028.234.09.334.187.517.13.243.08.265.317.442.168.128.278.311.144.519-.133.208-.32.188-.353.42.018.214.06.425.124.63.06.366.057.969-.19 1.258-.3.367-.758.073-1.096-.044-.191-.062-.374-.132-.56-.194a3.623 3.623 0 00-.573-.201.934.934 0 00-.508.188 1.007 1.007 0 00-.332.441c.032.395.19.768.447 1.06.295.367.703.283 1.122.385 1.078.25 2.204.736 2.763 1.805.218.392.293.852.213 1.296-.109.734-.49.773-.544.963.114.093.367-.053.459-.134a1.27 1.27 0 00.291-.455c.066-.171.094-.356.083-.54a5.377 5.377 0 00-.064-.638.416.416 0 01.151-.055c.06-.015.12-.026.18-.033a4.227 4.227 0 011.518.082l.353.077c.203.062.398.146.583.252l-.037-.022zM57.357 70.96l.253-.049c.183-.028.542-.2.514-.393-.208.13-.437.219-.676.26-.285.065-.4.222-.727.222a2.293 2.293 0 01-1.096-.323c-.396-.22-.262-.278-.596-.062-.474.312-.29.129-.656.784L53 73.897c-.195.426-.43.83-.702 1.208a1.342 1.342 0 01-.606.472 1.29 1.29 0 01-.756.054 3.004 3.004 0 01-.744-.201c-.353-.137-.568-.332-.638-.14.032.073.268.157.353.19.756.319 1.847.623 2.461-.139.087-.111.158-.235.213-.366a3.224 3.224 0 011.526.22c.504.2.966.496 1.364.873.126.135.151.066.307.018.242-.072.488-.125.737-.162.123 0 .268-.028.393-.035.126-.007.294-.042.374.069.134.176.275.342.409.51.531.663 1.092 1.325 1.617 2.003.264.336.542.663.806 1.005.136.173.741.884.803 1.008-.125.02-2.155-.084-2.506-.09a6.034 6.034 0 00-.85-.027c.216.334.45.655.704.96l4.99 6.71c.948 1.271 1.913 2.544 2.849 3.825l2.125 2.872c.254.31.49.635.704.976-.57.212-1.16.36-1.76.442a12.39 12.39 0 01-2.035.168 15.235 15.235 0 01-5.556-1.094c-.454-.183-.397-.123-.489-.634a4.377 4.377 0 01.009-1.886c.14-.62.413-1.2.8-1.694.057-.069.242-.25.271-.29.062-.106-.03-.322 0-.501.576.475 2.109 3.585 2.168 3.667.03-.33-.523-1.485-.701-1.834a17.072 17.072 0 00-3.367-4.212c-.434-.411-.882-.8-1.346-1.169-.235-.188-.486-.331-.729-.528a7.806 7.806 0 01-1.7-2.092 8.34 8.34 0 01-.795-1.767c.083.017.163.043.24.078l.247.061c.35.071 1.44.239 1.668.115a9.155 9.155 0 01-4.08-1.47 12.319 12.319 0 01-3.946-4.49c-.166-.32-.3-.631-.455-.954a5.771 5.771 0 01-.457-.965c-.174-.769.275-1.467.704-2.061a12.549 12.549 0 012.878-2.77c.57-.406 1.116-.733 1.7-1.105a7.23 7.23 0 011.966-.817 7.919 7.919 0 012.422-.314c.81.08 1.616.203 2.414.37.37.006.73.134 1.025.366.295.31.195.815.212 1.226.024.231.024.465 0 .696-.05.203-.189.25-.35.367-.404.271-.946.938-1.097 1.016a.821.821 0 01-.602 0 4.467 4.467 0 01-.805-.606l-.03-.068z" fill="#DAB465" stroke="#1D1D1B" stroke-width=".5"/><path d="M48.19 37.709a80.85 80.85 0 002.105 4.49c.1.248.244.472.425.663.186.145.407.232.638.25 3.792.572 7.83.837 11.136 3.042a22.624 22.624 0 012.927 2.39c.981.952 1.849 1.946 3.29 2.021 1.632.188 3.203-.492 4.546-1.385.94-.468.534-4.332.32-5.282-.162-.87-.974-.152-1.385.095-.3.19-3.084 2.052-2.697 2.318a.17.17 0 00.03.084.19.19 0 00.066.06.174.174 0 00.087.017.164.164 0 00.083-.029c.391-.22.778-.462 1.186-.651.355-.164.937-.537 1.003.125.042.438-.007.88-.142 1.297-.081.276-.172.426-.468.457-.707.066-1.417.08-2.125.04-.464-.024-.897-.042-1.246-.409-1.337-1.396-2.631-3.616-2.848-4.707a6.574 6.574 0 01-.087-1.937c.175-.96.414-1.907.714-2.834.597-1.688 1.275-4.626 3.424-5.443a.132.132 0 01.1-.01.14.14 0 01.08.064.146.146 0 01.015.103.142.142 0 01-.057.086c-.52.331-.884.804-1.275 1.24a.67.67 0 00-.16.604c.262 1.187.579 2.673.948 3.4a.215.215 0 00.237.102c1.2-.303 2.414-.57 3.613-.91.837-.19 1.558-.977 1.424-1.9a3.47 3.47 0 00-.04-.8c-.034-.22-.353-.19-.406 0-.07.254-.14.517-.4.619-.26.101-1.764.196-2.217.148 0 0-.136-2.046.838-4.64.142-.383.425-.92.17-1.311-.228-.34-.738-.376-1.09-.442-.534-.113-3.76-.692-4.845-.837-.971-.082-2.784-.517-3.613-.027-2.24 1.988-5.378 6.512-6.237 7.811a.634.634 0 00-.023.654 9.896 9.896 0 004.191 4.237c.04.02.072.057.088.101a.164.164 0 010 .135.177.177 0 01-.097.09.168.168 0 01-.13-.004c-.532-.26-1.232-.552-1.701-.93-1.21-.958-2.056-2.06-2.927-3.437a.23.23 0 00-.102-.08.205.205 0 00-.128-.013c-.042 0-.967-.066-1.373-.11-1.885-.16-3.188-.15-4.191-2.054-.82-1.27-1.444-3.424.187-4.31.24-.117.478-.168.637.084.367.642.606 1.355.702 2.096.036.248.408.177.412-.057a13.757 13.757 0 00-.57-4.252.225.225 0 00-.272-.162c-1.337.484-2.338.961-3.29 2.041a2.52 2.52 0 00-.353.332c-.978 1.21-.584 2.683-.412 4.011.168 1.277.784 2.49 1.286 3.656zm14.376 1.767c.29-.113.604-.151.912-.11.307.042.599.163.85.35.02.016.036.038.043.063.01.024.01.052 0 .077a.118.118 0 01-.12.075 1.393 1.393 0 00-.891.17 1.474 1.474 0 00-.616.691 1.55 1.55 0 00-.097.937c.065.315.227.6.46.81.224.202.5.328.794.363a.114.114 0 01.102.095.117.117 0 01-.007.075.11.11 0 01-.05.053c-.991.572-2.126-.258-2.453-1.16a1.994 1.994 0 01-.075-1.116c.082-.372.268-.71.536-.97a1.88 1.88 0 01.612-.412v.01zm46.472 28.284v14.784a.43.43 0 01-.098.27.386.386 0 01-.244.139 10.86 10.86 0 01-1.68.13 9.845 9.845 0 01-1.63-.13 12.195 12.195 0 01-1.83-.468 5 5 0 00-2.064-.35 4.781 4.781 0 00-2.213.763.259.259 0 01-.044.017.206.206 0 01-.096.03h-.057l-.102-.016-.045-.018-.047-.02a4.791 4.791 0 00-2.212-.762 5.002 5.002 0 00-2.064.349c-.599.203-1.211.36-1.832.468a9.785 9.785 0 01-1.629.13c-.562 0-1.123-.043-1.679-.13a.391.391 0 01-.244-.139.42.42 0 01-.096-.272V67.76h-1.218v16.567h8.37l.798.828h3.985l.797-.828h8.368V67.76h-1.194z" fill="#1D1D1B"/><path d="M105.852 70.244a.396.396 0 01.319.166l.478.662v-4.435a9.583 9.583 0 01-1.258-.122c-.12-.017-.226-.042-.336-.064v4.621l.478-.662a.405.405 0 01.319-.166z" fill="#1D1D1B"/><path d="M107.45 66.637v5.68a.43.43 0 01-.077.24.391.391 0 01-.642.007l-.876-1.215-.878 1.215a.387.387 0 01-.641-.002.422.422 0 01-.075-.241v-6.052a25.747 25.747 0 01-.699-.21 5.004 5.004 0 00-2.064-.352c-.711.06-1.4.281-2.02.65v15.505a5.322 5.322 0 012.309-.557c.685.02 1.364.154 2.009.395.563.191 1.139.34 1.723.442.903.144 1.821.16 2.728.046V66.58a10.98 10.98 0 01-.797.057zm-15.942-.121l1.545-.884.85-1.606.85 1.606 1.548.884-1.547.883-.85 1.609-.85-1.609-1.546-.883z" fill="#1D1D1B"/><path d="M96.654 65.7h-.157l.489.278a.604.604 0 01.227.227.634.634 0 01.083.316c0 .112-.03.221-.083.318a.618.618 0 01-.227.22l-1.663.944-.907 1.728a.624.624 0 01-.213.236.58.58 0 01-.823-.236l-.91-1.728-2.53-1.438h-.022v15.609a9.548 9.548 0 002.727-.047 11.37 11.37 0 001.724-.442 5.826 5.826 0 012.353-.384 5.409 5.409 0 011.964.543V66.346a4.74 4.74 0 00-2.032-.647zm-1.404 8.03l-.563 1.07-.564-1.07-1.03-.588 1.03-.585.564-1.071.563 1.071 1.03.585-1.03.588zM60.07 15.96l1.546-.883.85-1.606.85 1.606 1.545.883-1.545.884-.85 1.606-.85-1.606-1.546-.884zm5.953.275l1.031-.585.564-1.07.563 1.07 1.03.585-1.03.585-.563 1.071-.564-1.07-1.03-.586zm1.274 4.418l1.03-.585.564-1.07.563 1.07 1.031.585-1.03.585-.564 1.071-.563-1.07-1.031-.586zm19.264 65.688l4.99 5.18a3.17 3.17 0 00-.409 1.3c-.442.041-.87.186-1.25.423l-7.29-7.572 2.518-2.615.625.65-.86.896 1.052 1.091.86-.883.625.649-.86.881zm9.672 8.701c.203.211.363.463.469.741a2.246 2.246 0 01-.06 1.735c-.125.27-.301.51-.519.704a2.065 2.065 0 01-.746.43 2.012 2.012 0 01-1.66-.194 2.118 2.118 0 01-.636-.59l-.24-.334-.345.221a2.016 2.016 0 01-1.88.148 2.093 2.093 0 01-.785-.591 2.199 2.199 0 01-.443-.896 2.252 2.252 0 01-.006-1.008c.074-.331.222-.64.433-.901.21-.261.477-.467.778-.601.3-.134.628-.193.955-.171l.502.033c0-.049-.032-.488-.032-.521a2.234 2.234 0 01.293-1.252c.218-.377.541-.676.926-.858a2.014 2.014 0 011.23-.16c.417.078.8.286 1.1.595a2.23 2.23 0 01.31 2.65l-.212.359c.2.14.389.294.568.461zm-4.409 1.44l.625-.651-.625-.65-.624.65.624.652zm2.217-3.602l-.627.65.627.65.625-.65-.625-.65zm.54 2.871l-.625.65.625.65.627-.65-.627-.65z" fill="#1D1D1B"/><path fill-rule="evenodd" clip-rule="evenodd" d="M93.018 53.119a5.65 5.65 0 00-.69.813 9.525 9.525 0 00-1.344 2.706c-1.178 3.777-.138 7.875 1.569 11.407l.312.652-4.831 4.197c-2.764-2.552-13.432-2.519-16.176 0l-4.836-4.197.317-.652c1.7-3.534 2.74-7.63 1.562-11.407a9.413 9.413 0 00-1.343-2.706 5.277 5.277 0 00-.684-.813l-.85-.663 4.2-4.521.814.22a33.502 33.502 0 0017.816 0l.81-.22 4.204 4.512-.85.663v.009z" fill="#1D1D1B"/><path fill-rule="evenodd" clip-rule="evenodd" d="M92.377 52.412l-3-3.152a36.26 36.26 0 01-18.87 0l-3 3.152.041.029s6.073 5.246.746 16.017l3.401 2.891v-.022c4.137-1.685 12.316-1.685 16.45 0l.025.022 3.401-2.891c-5.314-10.771.746-16.017.746-16.017l.037-.03h.023z" fill="#DAB465"/><path d="M64.876 18.424L53.98 29.69c-.863.939.425 2.289 1.346 1.396L66.22 19.821c.865-.944-.434-2.291-1.345-1.397z" fill="#1D1D1B"/><path fill-rule="evenodd" clip-rule="evenodd" d="M93.179 38.562h1.51a.455.455 0 01.352.165.52.52 0 01.094.181.478.478 0 010 .206 2.56 2.56 0 00.2 1.533c.159.34.39.638.677.87a2.399 2.399 0 002.42.37c.365-.149.69-.39.944-.7a2.49 2.49 0 00.513-1.081 2.67 2.67 0 00.024-.968.508.508 0 01.089-.41.49.49 0 01.361-.184h2.013a1.4 1.4 0 00.556-.112 1.45 1.45 0 00.472-.325 1.536 1.536 0 00.428-1.065v-1.213a1.017 1.017 0 00-.115-.475.975.975 0 00-.746-.519.971.971 0 00-.448.053c-.292.11-.607.134-.911.071a1.68 1.68 0 01-.815-.429 1.547 1.547 0 01-.325-1.36c.059-.265.188-.507.373-.7.185-.192.418-.326.673-.387a1.47 1.47 0 01.956.077.95.95 0 00.92-.077.997.997 0 00.321-.361c.076-.146.117-.31.117-.476v-1.13a.498.498 0 01.056-.22.486.486 0 01.146-.179.462.462 0 01.213-.088.468.468 0 01.227.017c2.164.7 3.58 1.929 4.213 3.665.123.338.213.68.319 1.04.074.266.149.53.234.791.065.188.143.371.231.548.139.227.225.484.253.751 0 .073-.168.221-.282.327-.167.122-.306.28-.409.462a1.537 1.537 0 00-.189.596c.009.208.066.41.168.59.02.035.036.072.049.11.083.64.348 1.24.761 1.721.461.47.88.984 1.252 1.533a4.104 4.104 0 01-.193.157 2.273 2.273 0 01-.272.152c-.347.181-.825.429-.923.961a1.59 1.59 0 00.115.946c.059.126.123.25.193.37l.017.03c-.18.145-.391.304-.393.304a.488.488 0 00-.193.338.504.504 0 00.1.375c.031.042.059.084.085.129a1.318 1.318 0 00-.464.347 1.423 1.423 0 00-.28.514c-.062.285-.051.581.032.86.084.29.071.602-.039.883a.585.585 0 01-.247.363.545.545 0 01-.42.08 28.748 28.748 0 01-3.261-1.006c-.376-.13-.718-.254-.995-.351a33.255 33.255 0 01-.612-.221c-1.6-.515-1.83-1.091-1.821-1.39a.518.518 0 00-.145-.34.477.477 0 00-.667-.017.516.516 0 00-.16.333c-.025 1.03.817 1.827 2.502 2.368l.585.208.142.048a6.197 6.197 0 00-1.163 2.137.282.282 0 01-.263.192h-7.693a.273.273 0 01-.238-.135.265.265 0 01-.038-.128.241.241 0 01.028-.133c.517-1.162.842-2.407.96-3.682a7.614 7.614 0 00-.565-3.89 9.577 9.577 0 00-1.107-1.803c-.213-.304-.425-.592-.619-.894a5.31 5.31 0 01-.319-.597.492.492 0 01-.05-.247.52.52 0 01.072-.238.485.485 0 01.414-.241zm-3.06-14.621c2.36-1.51 4.999-1.566 7.003-1.264a.471.471 0 01.293.168.517.517 0 01.115.327v.906a.496.496 0 01-.344.481.467.467 0 01-.213.013 2.38 2.38 0 00-.801 0 2.39 2.39 0 00-1.244.61 2.535 2.535 0 00-.795 1.654c-.052.637.133 1.27.517 1.77.27.353.628.624 1.034.785.406.16.846.204 1.274.127a.474.474 0 01.213 0 .491.491 0 01.353.477v.55a.512.512 0 01-.143.354.475.475 0 01-.342.148h-2.631a.928.928 0 00-.457.115.97.97 0 00-.349.327c-.089.139-.142.3-.155.466-.013.166.014.333.078.486.128.312.153.659.073.987a1.474 1.474 0 01-.379.692c-.186.188-.42.32-.673.382-.217.05-.441.05-.657 0a1.434 1.434 0 01-.594-.287 1.524 1.524 0 01-.444-1.777 1.038 1.038 0 00-.076-.963.977.977 0 00-.351-.327.933.933 0 00-.459-.114h-2.6a.487.487 0 01-.484-.458 7.208 7.208 0 01.788-3.983 6.875 6.875 0 012.45-2.652z" fill="#DAB465"/><path d="M52.318 120.434l-4.71 12.721-1.67-.662 3.957-10.694a3.83 3.83 0 00-1.012.618c-.336.268-.682.557-1.035.866l-1.224 1.138a6.952 6.952 0 01-1.216.932 3.695 3.695 0 01-1.275.508 2.891 2.891 0 01-1.412-.199 2.993 2.993 0 01-1.162-.857 3.881 3.881 0 01-.617-1.228 8.406 8.406 0 01-.25-1.5c-.041-.53-.088-1.069-.137-1.617-.048-.547-.133-1.009-.212-1.464a4.122 4.122 0 00-.355-1.215l-3.958 10.693-1.67-.662 4.701-12.726 1.633.663c.317.274.58.61.773.989.21.367.373.762.483 1.173.119.413.201.837.246 1.266.064.431.122.858.172 1.281.044.486.076.928.094 1.325.016.338.056.674.119 1.006.05.242.138.474.26.687.131.196.318.345.535.426.217.097.458.12.689.066a1.93 1.93 0 00.654-.318 5.55 5.55 0 00.755-.663c.283-.275.596-.576.937-.903.3-.285.61-.563.935-.837a8 8 0 011.017-.756 5.012 5.012 0 011.092-.539 3.348 3.348 0 011.23-.181l1.633.663zm8.401 1.942c.355 2.249.694 4.343 1.014 6.284.126.831.257 1.67.393 2.516.138.835.266 1.619.383 2.359.117.74.24 1.405.331 1.988.092.584.18 1.043.228 1.366l-1.894-.431c-.125-.831-.259-1.655-.402-2.474a54.821 54.821 0 01-.383-2.558 4.998 4.998 0 00-1.362-.532 6.857 6.857 0 00-1.076-.155l-1.062-.066-1.622-.1-2.604 3.952-1.913-.442 2.61-4.038a6.681 6.681 0 01-.714-.362 4.661 4.661 0 01-.701-.515l.442-2.127c.309.328.647.624 1.011.884.313.212.65.386 1.002.517l4.261-6.537 2.058.471zm-3.811 6.406h.04a.076.076 0 01.033-.007c.011 0 .023.002.033.007.368 0 .748.028 1.14.057a6.66 6.66 0 011.183.157c.115.026.229.06.34.099.116.027.23.061.343.102l-.039-.442-.722-4.418-2.878 4.401a.796.796 0 01.252.013c.09.025.182.036.275.031zm20.296 4.888a1.027 1.027 0 01-.357.04 1.557 1.557 0 01-.425-.097c-.31-.133-.622-.257-.937-.374a1.936 1.936 0 00-.576-.128c-.204-.014-.408 0-.608.042-.234.035-.462.1-.68.192l.134-2.019a2.586 2.586 0 011.118-.159c.271.022.54.07.803.146.274.077.546.163.819.256.272.093.546.177.818.256a4.524 4.524 0 001.526.151c.239-.031.474-.087.701-.168a6.989 6.989 0 01-.765 2.827 6.201 6.201 0 01-1.617 1.988 6.363 6.363 0 01-2.207 1.149 7.448 7.448 0 01-2.55.252 6.549 6.549 0 01-2.717-.783 6.797 6.797 0 01-2.172-1.868 7.33 7.33 0 01-.952-1.705 8.03 8.03 0 01-.436-1.602 7.92 7.92 0 01-.062-1.595 7.705 7.705 0 01.379-1.915 7.769 7.769 0 01.867-1.725 6.463 6.463 0 011.286-1.431 6.783 6.783 0 014.827-1.571 6.16 6.16 0 011.851.418c.592.214 1.15.519 1.654.905.503.373.952.82 1.333 1.326.401.517.728 1.092.971 1.707.127.297.232.604.315.917l-1.152-.1a12.303 12.303 0 00-.58-.064l-.228-.015-.04-.024a4.861 4.861 0 00-1.69-2.238 4.773 4.773 0 00-2.568-.95 4.796 4.796 0 00-2.325.398 4.73 4.73 0 00-1.242.782 5.138 5.138 0 00-.928 1.067 5.391 5.391 0 00-.543 4.996 4.958 4.958 0 001.669 2.234 4.956 4.956 0 002.61.952c.454.035.91.012 1.358-.069a4.728 4.728 0 001.276-.442c.416-.201.8-.467 1.14-.788.36-.336.665-.732.902-1.171zm6.75 4.332l-1.813.057-.391-13.675 1.813-.058.391 13.676zm4.31-5.551l.075.663c.08.459.257.893.518 1.272.258.341.575.629.935.849.362.207.754.351 1.161.428a4.21 4.21 0 001.263.044 5.219 5.219 0 001.228-.298c.37-.154.715-.366 1.022-.63.283-.241.514-.542.676-.883.16-.355.217-.75.166-1.138a1.513 1.513 0 00-.144-.569 1.463 1.463 0 00-.349-.465 2.121 2.121 0 00-.997-.47 5.697 5.697 0 00-1.358-.141h-1.554c-.531 0-1.063-.04-1.562-.095a3.978 3.978 0 01-1.392-.442 3.288 3.288 0 01-1.078-1.007 4.143 4.143 0 01-.559-1.792 3.492 3.492 0 01.213-1.734c.215-.513.536-.971.941-1.341a4.913 4.913 0 011.45-.923 6.605 6.605 0 011.71-.442 6.49 6.49 0 011.767.024 4.565 4.565 0 011.592.55 3.61 3.61 0 011.233 1.078 3.41 3.41 0 01.623 1.631l.05.455-1.778.221-.051-.442a1.752 1.752 0 00-.493-.837 2.734 2.734 0 00-.817-.559 3.444 3.444 0 00-1.018-.27 4.394 4.394 0 00-2.104.259 2.959 2.959 0 00-.85.497 2.29 2.29 0 00-.549.724 1.66 1.66 0 00-.127.912c.02.397.19.77.472 1.039.304.228.65.387 1.018.466.447.088.901.128 1.356.119.517 0 1.035.01 1.554.031.524.007 1.047.045 1.566.115.497.057.977.214 1.416.462.428.232.793.573 1.063.989a3.82 3.82 0 01.576 1.767c.1.707.036 1.427-.185 2.103a4.044 4.044 0 01-.942 1.516 4.58 4.58 0 01-1.488.949 6.192 6.192 0 01-1.751.475c-1.807.221-3.262-.098-4.366-.956-1.104-.859-1.747-2.174-1.93-3.948l1.798-.256zm20.453-12.533c.096.448.126.909.089 1.367a3.363 3.363 0 01-.293 1.198 2.9 2.9 0 01-.759.958 3.113 3.113 0 01-1.212.586 6.683 6.683 0 01-2.436.141l2.481 10.382-1.717.442-2.66-11.124a6.383 6.383 0 00-1.016-.027 5.07 5.07 0 00-1.016.152 2.567 2.567 0 00-.924.442c-.254.201-.335.521-.243.961l-1.72.442a3 3 0 01-.048-1.288c.083-.381.247-.738.48-1.045a2.94 2.94 0 01.863-.786 4.247 4.247 0 011.21-.515 6.063 6.063 0 011.86-.221c.536.012 1.072.059 1.602.144.505.077.987.146 1.446.208.465.041.935.002 1.388-.118.214-.048.419-.131.608-.247a.772.772 0 00.304-.347c.065-.169.088-.353.065-.534a5.22 5.22 0 00-.091-.738l1.739-.433zm7.277-3.031a840.798 840.798 0 004.228 4.605c.55.614 1.11 1.232 1.679 1.851l1.586 1.726c.506.539.954 1.023 1.346 1.453.403.424.709.756.922.996l-1.798.754a115.66 115.66 0 00-1.662-1.809 58.57 58.57 0 01-1.701-1.894c-.485.05-.961.171-1.413.361a6.84 6.84 0 00-.974.501l-.924.576-1.395.866-.019 4.781-1.811.773-.013-4.873a6.508 6.508 0 01-.784.119 4.47 4.47 0 01-.85-.015l-.778-2.017c.431.088.87.131 1.309.13a4.544 4.544 0 001.105-.159v-7.906l1.947-.819zm.3 7.541l.038-.018a.104.104 0 01.051-.044c.309-.207.638-.415.974-.618a6.49 6.49 0 011.063-.566c.104-.042.212-.081.336-.117a2.7 2.7 0 01.338-.117l-.264-.336-2.976-3.229-.015 5.328a.74.74 0 01.213-.137.832.832 0 00.242-.146z" fill="#1D1D1B"/><path d="M52.318 120.434l-4.71 12.721-1.67-.662 3.957-10.694a3.83 3.83 0 00-1.012.618c-.336.268-.682.557-1.035.866l-1.224 1.138a6.952 6.952 0 01-1.216.932 3.695 3.695 0 01-1.275.508 2.891 2.891 0 01-1.412-.199 2.993 2.993 0 01-1.162-.857 3.881 3.881 0 01-.617-1.228 8.406 8.406 0 01-.25-1.5c-.041-.53-.088-1.069-.137-1.617-.048-.547-.133-1.009-.212-1.464a4.122 4.122 0 00-.355-1.215l-3.958 10.693-1.67-.662 4.701-12.726 1.633.663c.317.274.58.61.773.989.21.367.373.762.483 1.173.119.413.201.837.246 1.266.064.431.122.858.172 1.281.044.486.076.928.094 1.325.016.338.056.674.119 1.006.05.242.138.474.26.687.131.196.318.345.535.426.217.097.458.12.689.066a1.93 1.93 0 00.654-.318 5.55 5.55 0 00.755-.663c.283-.275.596-.576.937-.903.3-.285.61-.563.935-.837a8 8 0 011.017-.756 5.012 5.012 0 011.092-.539 3.348 3.348 0 011.23-.181l1.633.663zm8.401 1.942c.355 2.249.694 4.343 1.014 6.284.126.831.257 1.67.393 2.516.138.835.266 1.619.383 2.359.117.74.24 1.405.331 1.988.092.584.18 1.043.228 1.366l-1.894-.431c-.125-.831-.259-1.655-.402-2.474a54.821 54.821 0 01-.383-2.558 4.998 4.998 0 00-1.362-.532 6.857 6.857 0 00-1.076-.155l-1.062-.066-1.622-.1-2.604 3.952-1.913-.442 2.61-4.038a6.681 6.681 0 01-.714-.362 4.661 4.661 0 01-.701-.515l.442-2.127c.309.328.647.624 1.011.884.313.212.65.386 1.002.517l4.261-6.537 2.058.471zm-3.811 6.406h.04a.076.076 0 01.033-.007c.011 0 .023.002.033.007.368 0 .748.028 1.14.057a6.66 6.66 0 011.183.157c.115.026.229.06.34.099.116.027.23.061.343.102l-.039-.442-.722-4.418-2.878 4.401a.796.796 0 01.252.013c.09.025.182.036.275.031zm20.296 4.888a1.027 1.027 0 01-.357.04 1.557 1.557 0 01-.425-.097c-.31-.133-.622-.257-.937-.374a1.936 1.936 0 00-.576-.128c-.204-.014-.408 0-.608.042-.234.035-.462.1-.68.192l.134-2.019a2.586 2.586 0 011.118-.159c.271.022.54.07.803.146.274.077.546.163.819.256.272.093.546.177.818.256a4.524 4.524 0 001.526.151c.239-.031.474-.087.701-.168a6.989 6.989 0 01-.765 2.827 6.201 6.201 0 01-1.617 1.988 6.363 6.363 0 01-2.207 1.149 7.448 7.448 0 01-2.55.252 6.549 6.549 0 01-2.717-.783 6.797 6.797 0 01-2.172-1.868 7.33 7.33 0 01-.952-1.705 8.03 8.03 0 01-.436-1.602 7.92 7.92 0 01-.062-1.595 7.705 7.705 0 01.379-1.915 7.769 7.769 0 01.867-1.725 6.463 6.463 0 011.286-1.431 6.783 6.783 0 014.827-1.571 6.16 6.16 0 011.851.418c.592.214 1.15.519 1.654.905.503.373.952.82 1.333 1.326.401.517.728 1.092.971 1.707.127.297.232.604.315.917l-1.152-.1a12.303 12.303 0 00-.58-.064l-.228-.015-.04-.024a4.861 4.861 0 00-1.69-2.238 4.773 4.773 0 00-2.568-.95 4.796 4.796 0 00-2.325.398 4.73 4.73 0 00-1.242.782 5.138 5.138 0 00-.928 1.067 5.391 5.391 0 00-.543 4.996 4.958 4.958 0 001.669 2.234 4.956 4.956 0 002.61.952c.454.035.91.012 1.358-.069a4.728 4.728 0 001.276-.442c.416-.201.8-.467 1.14-.788.36-.336.665-.732.902-1.171zm6.75 4.332l-1.813.057-.391-13.675 1.813-.058.391 13.676zm4.31-5.551l.075.663c.08.459.257.893.518 1.272.258.341.575.629.935.849.362.207.754.351 1.161.428a4.21 4.21 0 001.263.044 5.219 5.219 0 001.228-.298c.37-.154.715-.366 1.022-.63.283-.241.514-.542.676-.883.16-.355.217-.75.166-1.138a1.513 1.513 0 00-.144-.569 1.463 1.463 0 00-.349-.465 2.121 2.121 0 00-.997-.47 5.697 5.697 0 00-1.358-.141h-1.554c-.531 0-1.063-.04-1.562-.095a3.978 3.978 0 01-1.392-.442 3.288 3.288 0 01-1.078-1.007 4.143 4.143 0 01-.559-1.792 3.492 3.492 0 01.213-1.734c.215-.513.536-.971.941-1.341a4.913 4.913 0 011.45-.923 6.605 6.605 0 011.71-.442 6.49 6.49 0 011.767.024 4.565 4.565 0 011.592.55 3.61 3.61 0 011.233 1.078 3.41 3.41 0 01.623 1.631l.05.455-1.778.221-.051-.442a1.752 1.752 0 00-.493-.837 2.734 2.734 0 00-.817-.559 3.444 3.444 0 00-1.018-.27 4.394 4.394 0 00-2.104.259 2.959 2.959 0 00-.85.497 2.29 2.29 0 00-.549.724 1.66 1.66 0 00-.127.912c.02.397.19.77.472 1.039.304.228.65.387 1.018.466.447.088.901.128 1.356.119.517 0 1.035.01 1.554.031.524.007 1.047.045 1.566.115.497.057.977.214 1.416.462.428.232.793.573 1.063.989a3.82 3.82 0 01.576 1.767c.1.707.036 1.427-.185 2.103a4.044 4.044 0 01-.942 1.516 4.58 4.58 0 01-1.488.949 6.192 6.192 0 01-1.751.475c-1.807.221-3.262-.098-4.366-.956-1.104-.859-1.747-2.174-1.93-3.948l1.798-.256zm20.453-12.533c.096.448.126.909.089 1.367a3.363 3.363 0 01-.293 1.198 2.9 2.9 0 01-.759.958 3.113 3.113 0 01-1.212.586 6.683 6.683 0 01-2.436.141l2.481 10.382-1.717.442-2.66-11.124a6.383 6.383 0 00-1.016-.027 5.07 5.07 0 00-1.016.152 2.567 2.567 0 00-.924.442c-.254.201-.335.521-.243.961l-1.72.442a3 3 0 01-.048-1.288c.083-.381.247-.738.48-1.045a2.94 2.94 0 01.863-.786 4.247 4.247 0 011.21-.515 6.063 6.063 0 011.86-.221c.536.012 1.072.059 1.602.144.505.077.987.146 1.446.208.465.041.935.002 1.388-.118.214-.048.419-.131.608-.247a.772.772 0 00.304-.347c.065-.169.088-.353.065-.534a5.22 5.22 0 00-.091-.738l1.739-.433zm7.277-3.031a840.798 840.798 0 004.228 4.605c.55.614 1.11 1.232 1.679 1.851l1.586 1.726c.506.539.954 1.023 1.346 1.453.403.424.709.756.922.996l-1.798.754a115.66 115.66 0 00-1.662-1.809 58.57 58.57 0 01-1.701-1.894c-.485.05-.961.171-1.413.361a6.84 6.84 0 00-.974.501l-.924.576-1.395.866-.019 4.781-1.811.773-.013-4.873a6.508 6.508 0 01-.784.119 4.47 4.47 0 01-.85-.015l-.778-2.017c.431.088.87.131 1.309.13a4.544 4.544 0 001.105-.159v-7.906l1.947-.819zm.3 7.541l.038-.018a.104.104 0 01.051-.044c.309-.207.638-.415.974-.618a6.49 6.49 0 011.063-.566c.104-.042.212-.081.336-.117a2.7 2.7 0 01.338-.117l-.264-.336-2.976-3.229-.015 5.328a.74.74 0 01.213-.137.832.832 0 00.242-.146z" stroke="#1D1D1B" stroke-width=".5"/><path d="M101.516 25.238l1.545-.884.85-1.606.85 1.606 1.546.884-1.546.883-.85 1.606-.85-1.606-1.545-.883zm-.637-4.143l1.031-.586.563-1.07.563 1.07 1.031.585-1.031.586-.563 1.07-.563-1.07-1.031-.585z" fill="#DAB465"/><path d="M86.847 53.678v13.254h-1.743v-11.14c-.28.27-.519.584-.707.93a27.7 27.7 0 00-.649 1.162l-.729 1.48a6.95 6.95 0 01-.79 1.29c-.274.37-.61.685-.993.93a2.822 2.822 0 01-2.674 0 3.67 3.67 0 01-.974-.884 8.13 8.13 0 01-.73-1.279 83.783 83.783 0 00-.668-1.416c-.23-.48-.46-.868-.689-1.248a3.877 3.877 0 00-.729-.972v11.147h-1.74V53.678h1.7c.378.133.73.341 1.033.612.312.255.591.552.829.883.247.331.464.685.648 1.058.204.367.4.735.589 1.105.212.424.378.81.527 1.164.128.3.276.589.444.866.127.201.285.38.468.528.184.13.404.196.627.19.23.008.456-.058.648-.19.192-.144.357-.323.487-.528.18-.273.336-.563.465-.866.162-.353.345-.74.547-1.164.175-.365.365-.734.567-1.105.196-.37.42-.724.67-1.058.234-.327.506-.624.81-.883a3.332 3.332 0 011.056-.612h1.7z" fill="#1D1D1B"/></svg>