<?xml version="1.0" encoding="utf-8"?><svg viewBox="0 0 330 88" xmlns="http://www.w3.org/2000/svg" xmlns:xlink="http://www.w3.org/1999/xlink"><style>:root>svg{display:none}:root>svg:target{display:block}</style><svg fill="none" viewBox="0 0 25 25" id="btn-decor-left-bottom" xmlns="http://www.w3.org/2000/svg"><path d="M.75 7v6.015c0 .512.385.944.888 1.042 1.484.289 4.51 1.101 6.568 3.158 2.005 2.002 2.732 4.712 2.985 6.112.094.517.535.923 1.06.923H18.5" stroke="currentColor" stroke-width="1.5"/><path d="M0 24a1 1 0 001 1h3a1 1 0 001-1v-3a1 1 0 00-1-1H1a1 1 0 00-1 1v3z" fill="currentColor"/><path d="M.75 0v2.444c0 1.06.827 1.947 1.874 2.111 2.92.459 8.622 1.814 12.483 5.669 4.125 4.12 5.485 9.337 5.93 12.102.171 1.067 1.073 1.924 2.154 1.924H25" stroke="currentColor" stroke-width="1.5"/></svg><svg fill="none" viewBox="0 0 88 88" id="card-decor-top-left" xmlns="http://www.w3.org/2000/svg"><path d="M47.496 51.567c-.048 0-.096 0-.144.01a.752.752 0 00-.48.355c-1.203 2.125-3.328 4.53-5.76 5.876 1.038-2.385 1.586-5.54 1.586-7.857 0-1.307-.125-5.173-1.548-8.49 3.317 1.422 7.183 1.557 8.49 1.557 2.309 0 5.463-.558 7.847-1.596-1.346 2.433-3.75 4.558-5.875 5.76a.724.724 0 00-.221 1.058 35.26 35.26 0 014.346 7.817c-2.836-1.153-5.462-2.615-7.808-4.356a.768.768 0 00-.433-.134zm-8.039 8.439a.732.732 0 00.202-.028c2.923-.853 6.02-3.42 8.059-6.651 2.702 1.913 5.74 3.48 9.029 4.654.26.096.558.029.75-.173a.722.722 0 00.173-.75c-1.183-3.29-2.74-6.318-4.654-9.03 3.231-2.039 5.799-5.135 6.647-8.058a.73.73 0 00-.282-.798.736.736 0 00-.845.019c-1.981 1.49-6.078 2.385-8.895 2.385-3.145 0-7.414-.683-9.953-2.587a.73.73 0 00-.942.067.707.707 0 00-.068.943c1.904 2.548 2.577 6.808 2.577 9.952 0 2.818-.884 6.924-2.375 8.905a.71.71 0 00-.019.838c.135.2.356.312.596.312z" fill="currentColor"/><path d="M.73 88a.724.724 0 00.72-.721V1.447h85.833a.724.724 0 00.72-.721.718.718 0 00-.72-.722H.729a.714.714 0 00-.72.722v86.553c0 .398.317.721.72.721z" fill="currentColor"/><path d="M.727 27.709a.739.739 0 00.596-.308c3.202-4.692 14.569-6.943 20.963-4.163a.726.726 0 00.952-.953c-2.779-6.394-.519-17.76 4.164-20.972a.713.713 0 00.183-1 .713.713 0 00-1-.183c-4.885 3.337-7.376 14.088-5.222 21.232C14.22 19.2 3.468 21.7.131 26.584a.713.713 0 00.596 1.125zM17.183 49.566c.192 0 .384.01.567.03.827.076 1.981.393 2.721 1.394.587.788.654 1.904.145 2.596-.51.702-1.443 1.077-2.26.904-.587-.125-1.01-.52-1.51-.971-.134-.125-.269-.25-.404-.366-.615-.538-1.586-1.25-2.875-1.279-.423 0-.904.058-1.385.202.24-.385.53-.73.856-1.029 1.02-.913 2.626-1.48 4.145-1.48zm1.26 13.505c4.211 0 7.933-1.414 10.827-4.129 3.308-3.096 5.203-7.645 5.203-12.472 0-5.76-3.337-11.405-8.51-14.386-4.51-2.606-10.367-2.99-15.656-1.038C4.336 33.248.008 39.335.008 45.518c0 .404.318.721.721.721a.72.72 0 00.722-.721c0-5.597 3.933-11.116 9.356-13.117 4.895-1.807 10.29-1.461 14.434.933 4.731 2.731 7.79 7.885 7.79 13.136 0 4.423-1.732 8.587-4.751 11.424-2.875 2.696-6.674 3.968-11.001 3.697-3.28-.212-5.885-3.043-5.914-6.457 0-.24.01-.49.038-.73.135-.684 1.356-1.126 2.126-1.087.644.019 1.25.298 1.971.923.125.115.25.22.375.336.567.53 1.212 1.126 2.183 1.327 1.385.289 2.885-.307 3.721-1.47.875-1.203.818-3.01-.144-4.309-.846-1.125-2.135-1.808-3.74-1.962-2.078-.211-4.366.5-5.818 1.808-1.395 1.25-2.174 3.145-2.154 5.183.038 4.154 3.23 7.616 7.27 7.877.413.027.836.041 1.25.041zM52.079 12.178a4.55 4.55 0 00-.202 1.385c.029 1.289.74 2.26 1.279 2.875.115.135.24.27.365.404.452.5.846.924.971 1.51.173.817-.202 1.75-.904 2.26-.692.5-1.807.442-2.596-.144-1-.75-1.317-1.895-1.394-2.722-.164-1.663.413-3.558 1.452-4.712a4.918 4.918 0 011.029-.856zm-5.607 22.29c4.828 0 9.376-1.894 12.476-5.211 2.978-3.174 4.391-7.347 4.085-12.078-.26-4.03-3.72-7.222-7.877-7.26h-.077c-2.01 0-3.866.778-5.097 2.154-1.317 1.461-2.029 3.74-1.817 5.817.154 1.606.836 2.895 1.962 3.741 1.298.962 3.106 1.02 4.317.144 1.154-.846 1.74-2.336 1.462-3.721-.202-.971-.798-1.616-1.327-2.183-.106-.125-.221-.25-.337-.375-.625-.721-.904-1.327-.923-1.971-.01-.78.404-1.99 1.087-2.126.24-.028.49-.038.74-.038 3.404.029 6.235 2.635 6.448 5.914.279 4.318-1 8.126-3.698 11-2.827 3.02-7 4.751-11.424 4.751-5.25 0-10.404-3.058-13.135-7.789-2.385-4.144-2.74-9.539-.933-14.434 2-5.423 7.52-9.356 13.116-9.356a.72.72 0 00.721-.721.714.714 0 00-.72-.722c-6.184 0-12.27 4.328-14.473 10.3-1.952 5.288-1.558 11.144 1.039 15.654 2.98 5.164 8.625 8.51 14.385 8.51z" fill="currentColor"/></svg><svg fill="none" viewBox="0 0 88 88" id="card-decor-top-right" xmlns="http://www.w3.org/2000/svg"><path d="M40.508 51.567a.73.73 0 01.144.01.752.752 0 01.48.355c1.203 2.125 3.328 4.53 5.76 5.876-1.038-2.385-1.586-5.54-1.586-7.857 0-1.307.125-5.173 1.548-8.49-3.317 1.422-7.183 1.557-8.49 1.557-2.309 0-5.463-.558-7.848-1.596 1.347 2.433 3.75 4.558 5.876 5.76a.724.724 0 01.221 1.058 35.26 35.26 0 00-4.346 7.817c2.836-1.153 5.462-2.615 7.808-4.356a.768.768 0 01.433-.134zm8.039 8.439a.732.732 0 01-.202-.028c-2.923-.853-6.02-3.42-8.059-6.651-2.702 1.913-5.74 3.48-9.03 4.654a.704.704 0 01-.75-.173.722.722 0 01-.172-.75c1.182-3.29 2.74-6.318 4.654-9.03-3.231-2.039-5.799-5.135-6.647-8.058a.73.73 0 01.282-.798.736.736 0 01.845.019c1.981 1.49 6.078 2.385 8.895 2.385 3.145 0 7.414-.683 9.953-2.587a.73.73 0 01.942.067c.26.25.289.654.068.943-1.904 2.548-2.578 6.808-2.578 9.952 0 2.818.885 6.924 2.376 8.905a.71.71 0 01.019.838.711.711 0 01-.596.312z" fill="currentColor"/><path d="M87.274 88a.724.724 0 01-.72-.721V1.447H.72A.724.724 0 010 .726C0 .322.323.004.721.004h86.553c.404 0 .722.318.722.722v86.553a.718.718 0 01-.722.721z" fill="currentColor"/><path d="M87.277 27.709a.739.739 0 01-.596-.308c-3.203-4.692-14.569-6.943-20.964-4.163a.726.726 0 01-.952-.953c2.78-6.394.52-17.76-4.163-20.972a.713.713 0 01-.183-1 .713.713 0 011-.183c4.885 3.337 7.376 14.088 5.222 21.232 7.144-2.163 17.895.337 21.232 5.222a.713.713 0 01-.596 1.125zM70.821 49.566c-.192 0-.385.01-.567.03-.827.076-1.981.393-2.722 1.394-.586.788-.653 1.904-.144 2.596.51.702 1.443 1.077 2.26.904.587-.125 1.01-.52 1.51-.971.134-.125.269-.25.404-.366.615-.538 1.586-1.25 2.875-1.279.423 0 .904.058 1.385.202a4.92 4.92 0 00-.856-1.029c-1.02-.913-2.625-1.48-4.145-1.48zm-1.26 13.505c-4.212 0-7.933-1.414-10.827-4.129-3.308-3.096-5.203-7.645-5.203-12.472 0-5.76 3.337-11.405 8.51-14.386 4.51-2.606 10.367-2.99 15.656-1.038 5.971 2.202 10.299 8.289 10.299 14.472a.714.714 0 01-.722.721.72.72 0 01-.72-.721c0-5.597-3.934-11.116-9.357-13.117-4.895-1.807-10.29-1.461-14.434.933-4.731 2.731-7.79 7.885-7.79 13.136 0 4.423 1.732 8.587 4.751 11.424 2.875 2.696 6.674 3.968 11 3.697 3.28-.212 5.886-3.043 5.915-6.457 0-.24-.01-.49-.038-.73-.135-.684-1.356-1.126-2.126-1.087-.644.019-1.25.298-1.971.923-.125.115-.25.22-.375.336-.567.53-1.212 1.126-2.183 1.327-1.385.289-2.885-.307-3.721-1.47-.875-1.203-.818-3.01.144-4.309.846-1.125 2.135-1.808 3.74-1.962 2.078-.211 4.366.5 5.818 1.808 1.395 1.25 2.173 3.145 2.154 5.183-.038 4.154-3.23 7.616-7.27 7.877-.413.027-.836.041-1.25.041zM35.925 12.178c.145.481.212.962.202 1.385-.029 1.289-.74 2.26-1.279 2.876-.115.134-.24.269-.365.403-.452.5-.846.924-.971 1.51-.173.817.202 1.75.904 2.26.692.5 1.807.442 2.596-.144 1-.75 1.317-1.895 1.394-2.722.164-1.663-.413-3.558-1.452-4.712a4.922 4.922 0 00-1.029-.856zm5.607 22.29c-4.828 0-9.376-1.894-12.476-5.211-2.979-3.174-4.391-7.347-4.085-12.078.26-4.03 3.72-7.222 7.877-7.26h.077c2.01 0 3.866.779 5.097 2.154 1.317 1.461 2.029 3.74 1.817 5.817-.154 1.606-.837 2.895-1.962 3.741-1.298.962-3.106 1.02-4.317.144-1.154-.846-1.74-2.336-1.462-3.721.202-.971.798-1.616 1.327-2.183.106-.125.221-.25.337-.375.625-.721.904-1.327.923-1.971.01-.78-.404-1.99-1.087-2.125a6.246 6.246 0 00-.74-.039c-3.404.029-6.235 2.635-6.448 5.914-.279 4.318 1 8.126 3.698 11 2.827 3.02 7 4.751 11.424 4.751 5.25 0 10.404-3.058 13.135-7.789 2.385-4.144 2.74-9.539.933-14.434-2-5.423-7.52-9.356-13.116-9.356a.72.72 0 01-.722-.721c0-.404.318-.722.722-.722 6.183 0 12.27 4.328 14.472 10.3 1.952 5.288 1.558 11.144-1.039 15.655-2.98 5.163-8.625 8.51-14.386 8.51z" fill="currentColor"/></svg><svg fill="none" viewBox="0 0 330 56" id="disciplines-decor-top" xmlns="http://www.w3.org/2000/svg"><path d="M10.385 27.542c2.547 1.266 5.566 1.827 8.88 1.12a13.896 13.896 0 003.176-1.12 12.723 12.723 0 00-3.176-1.12c-3.31-.707-6.333-.16-8.88 1.12zm57.371 0c2.288 3.44 4.605 6.506 8.964 6.64.416.014.843 0 1.27-.053 3.977-.4 5.758-3.6 5.758-6.587 0-2.987-1.781-6.187-5.759-6.6-.417-.04-.848-.053-1.269-.04-4.359.12-6.676 3.2-8.964 6.64zm-41.46 0c1.941 1.387 3.72 3.053 5.47 4.68 1.79 1.68 3.48 3.267 5.307 4.533 3.228 2.254 8.094 4.814 12.932 4.227 6.546-.813 10.638-6.653 14.248-11.813.376-.533.742-1.08 1.106-1.627-.364-.56-.73-1.106-1.106-1.64-3.61-5.147-7.702-10.987-14.248-11.8-4.845-.6-9.704 1.96-12.932 4.213-1.826 1.28-3.517 2.867-5.308 4.534-1.749 1.64-3.528 3.306-5.469 4.693zM14.351 55.075c-3.087 0-6.11-.986-8.528-2.853-5.695-4.386-7.386-11.533-4.303-18.2a17.843 17.843 0 015.153-6.48c-2.286-1.8-4.057-4.106-5.153-6.48C-1.563 14.382.128 7.25 5.824 2.85 9.176.262 13.7-.631 17.931.449c3.272.853 6.397 3.333 8.156 6.48 1.477 2.653 1.85 5.533 1.053 8.093-.916 2.947-3.276 5.6-6.159 6.947-2.397 1.12-4.912 1.226-7.08.32-2.704-1.134-4.788-3.934-5.072-6.814-.202-2.066.58-3.853 2.152-4.92a1.006 1.006 0 011.39.267.995.995 0 01-.27 1.387c-1.228.827-1.374 2.133-1.28 3.08.21 2.133 1.831 4.307 3.854 5.147 1.642.693 3.584.6 5.462-.28 2.387-1.107 4.34-3.307 5.094-5.72.633-2.04.317-4.36-.89-6.52-1.502-2.707-4.149-4.814-6.909-5.52-3.633-.934-7.519-.174-10.387 2.04-5.98 4.613-5.84 11.172-3.71 15.786a15.794 15.794 0 005.074 6.12c3.122-1.88 6.976-2.787 11.271-1.88 1.736.374 3.32 1.04 4.797 1.893 2.104-1.4 4.032-3.2 5.923-4.96 1.763-1.653 3.585-3.36 5.528-4.72 3.516-2.453 8.853-5.24 14.321-4.56 7.43.92 11.984 7.414 15.643 12.64.225.32.448.654.668.974 2.37-3.48 5.085-6.68 10.103-6.827.508-.013 1.025 0 1.528.053 5.193.534 7.557 4.827 7.557 8.587s-2.364 8.053-7.556 8.573c-.513.054-1.028.08-1.53.067-5.017-.146-7.731-3.346-10.102-6.84-.22.334-.443.654-.668.987-3.659 5.213-8.213 11.72-15.643 12.64-5.468.68-10.805-2.12-14.32-4.574-1.944-1.347-3.766-3.053-5.529-4.706-1.89-1.774-3.82-3.574-5.923-4.974-1.477.867-3.06 1.534-4.798 1.907-4.292.907-8.148-.014-11.27-1.88a15.793 15.793 0 00-5.074 6.12c-2.13 4.6-2.27 11.174 3.71 15.786 2.867 2.214 6.754 2.974 10.39 2.04 2.757-.706 5.405-2.826 6.906-5.52 1.207-2.159 1.523-4.48.89-6.52-.755-2.412-2.707-4.612-5.095-5.72-1.877-.88-3.819-.986-5.461-.292-2.023.853-3.644 3.026-3.855 5.16-.093.946.053 2.24 1.281 3.066a1 1 0 01.27 1.386.997.997 0 01-1.39.28c-1.572-1.066-2.354-2.866-2.152-4.932.283-2.867 2.368-5.667 5.071-6.8 2.17-.92 4.684-.8 7.081.32 2.882 1.333 5.243 4 6.158 6.946.798 2.56.425 5.427-1.052 8.08-1.758 3.16-4.883 5.64-8.155 6.48a14.25 14.25 0 01-3.581.453z" fill="currentColor"/><path d="M154.765 28.542H84.75c-.552 0-1-.454-1-1 0-.56.448-1 1-1h70.015c.552 0 1 .44 1 1 0 .546-.448 1-1 1zM306.877 27.542c1.009.494 2.063.88 3.176 1.12 3.311.693 6.333.146 8.88-1.12-2.547-1.28-5.565-1.827-8.879-1.12a12.71 12.71 0 00-3.177 1.12zm-54.555-6.64c-.333 0-.666.013-.994.04-3.978.413-5.758 3.613-5.758 6.6 0 2.987 1.78 6.187 5.759 6.587.427.053.855.067 1.267.053 4.36-.134 6.677-3.2 8.966-6.64-2.289-3.44-4.606-6.52-8.964-6.64h-.276zm11.638 6.64c.362.547.728 1.094 1.104 1.627 3.612 5.16 7.704 11 14.249 11.813 4.841.587 9.704-1.973 12.932-4.227 1.825-1.266 3.516-2.853 5.307-4.533 1.749-1.627 3.528-3.293 5.469-4.68-1.941-1.387-3.72-3.053-5.469-4.694-1.791-1.666-3.482-3.252-5.307-4.533-3.228-2.253-8.093-4.813-12.932-4.213-6.545.813-10.637 6.653-14.249 11.8-.376.534-.742 1.08-1.104 1.64zm51.006 27.533c-1.193 0-2.397-.146-3.578-.453-3.274-.84-6.399-3.32-8.158-6.48-1.477-2.653-1.85-5.52-1.052-8.08.916-2.947 3.276-5.613 6.159-6.947 2.399-1.12 4.912-1.226 7.08-.32 2.704 1.134 4.788 3.934 5.071 6.8.204 2.067-.58 3.867-2.152 4.934a.996.996 0 01-1.388-.28.998.998 0 01.268-1.387c1.228-.826 1.374-2.12 1.282-3.067-.21-2.133-1.832-4.306-3.856-5.16-1.641-.693-3.581-.587-5.461.294-2.387 1.107-4.339 3.307-5.095 5.72-.632 2.04-.316 4.36.891 6.52 1.501 2.693 4.149 4.813 6.909 5.52 3.635.933 7.52.173 10.387-2.04 5.981-4.613 5.839-11.187 3.711-15.787a15.802 15.802 0 00-5.076-6.12c-3.122 1.866-6.976 2.787-11.27 1.866-1.737-.36-3.32-1.026-4.797-1.893-2.104 1.4-4.032 3.2-5.923 4.974-1.762 1.653-3.586 3.36-5.528 4.706-3.516 2.453-8.846 5.253-14.321 4.574-7.429-.92-11.984-7.427-15.644-12.64-.225-.334-.447-.653-.668-.987-2.371 3.494-5.084 6.694-10.101 6.84a11.723 11.723 0 01-1.53-.067c-5.192-.52-7.556-4.813-7.556-8.573 0-3.76 2.364-8.053 7.556-8.587.503-.053 1.016-.066 1.528-.053 5.019.146 7.732 3.346 10.104 6.827.22-.32.442-.654.667-.974 3.66-5.226 8.215-11.72 15.644-12.64 5.465-.68 10.804 2.107 14.321 4.56 1.942 1.36 3.766 3.067 5.528 4.72 1.891 1.76 3.819 3.56 5.923 4.96 1.477-.853 3.061-1.52 4.799-1.893 4.296-.907 8.148.013 11.268 1.88a15.795 15.795 0 005.076-6.12c2.128-4.614 2.27-11.173-3.711-15.786-2.867-2.214-6.749-2.974-10.389-2.04-2.758.706-5.406 2.826-6.907 5.52-1.207 2.16-1.523 4.48-.889 6.52.753 2.413 2.705 4.613 5.093 5.72 1.88.88 3.82.973 5.461.28 2.024-.84 3.646-3.014 3.856-5.147.092-.947-.054-2.253-1.282-3.08a.994.994 0 01-.268-1.387 1.005 1.005 0 011.388-.267c1.572 1.067 2.356 2.854 2.152 4.92-.283 2.88-2.368 5.68-5.071 6.814-2.168.906-4.684.8-7.081-.32-2.882-1.347-5.242-4-6.158-6.947-.798-2.56-.425-5.44 1.054-8.093 1.757-3.147 4.882-5.627 8.154-6.48 4.232-1.08 8.758-.187 12.11 2.4 5.694 4.4 7.384 11.533 4.302 18.213-1.097 2.374-2.866 4.68-5.154 6.48a17.842 17.842 0 015.154 6.48c3.082 6.667 1.392 13.814-4.304 18.2-2.416 1.867-5.441 2.853-8.528 2.853z" fill="currentColor"/><path d="M244.568 28.542h-70.013c-.552 0-1-.454-1-1 0-.56.448-1 1-1h70.013c.552 0 1 .44 1 1 0 .546-.448 1-1 1z" fill="currentColor"/><path d="M164.663 18.648c-4.902 0-8.89 3.988-8.89 8.894 0 4.893 3.988 8.88 8.89 8.88 4.901 0 8.888-3.986 8.888-8.88 0-4.907-3.987-8.894-8.888-8.894zm0 19.774c-6.004 0-10.89-4.88-10.89-10.88 0-6 4.886-10.894 10.89-10.894 6.004 0 10.888 4.894 10.888 10.894s-4.884 10.88-10.888 10.88z" fill="currentColor"/><path d="M164.66 45.502a17.9 17.9 0 01-16.648-11.2.997.997 0 01.549-1.307.998.998 0 011.303.547 15.901 15.901 0 0014.796 9.96 15.906 15.906 0 0014.796-9.96 1.007 1.007 0 011.301-.547c.512.2.759.787.551 1.307-2.765 6.8-9.3 11.2-16.648 11.2zM180.383 22.155c-.396 0-.77-.24-.927-.626a15.925 15.925 0 00-14.796-9.96 15.925 15.925 0 00-14.796 9.96c-.208.52-.789.76-1.303.56a1.006 1.006 0 01-.549-1.307A17.895 17.895 0 01164.66 9.569c7.348 0 13.883 4.4 16.648 11.213a1.008 1.008 0 01-.551 1.306c-.122.04-.249.067-.374.067z" fill="currentColor"/><circle cx="165" cy="27" r="10" fill="currentColor"/></svg><svg fill="none" viewBox="0 0 275 81" id="faculties-decor-top" xmlns="http://www.w3.org/2000/svg"><path d="M221.372 63.399H53.224a.818.818 0 010-1.635h168.148a.818.818 0 010 1.635zM239.051 72.103a.817.817 0 01-.644-1.32c.171-.22 3.968-5.044 9.567-8.225-5.592-3.183-9.33-8.012-9.498-8.232a.817.817 0 111.297-.994c.043.056 4.307 5.554 10.308 8.491a.817.817 0 010 1.468c-6.017 2.945-10.341 8.441-10.383 8.496a.821.821 0 01-.647.316z" fill="currentColor"/><path d="M226.837 62.572c9.221 2.712 16.174 11.438 18.224 14.255 8.53-9.447 17.452-12.973 23.05-14.286-5.594-1.384-14.514-4.997-23.045-14.448-2.048 2.858-9.001 11.727-18.229 14.48zm18.15 16.39l-.054-.003a.819.819 0 01-.628-.363c-.101-.152-10.252-15.2-22.941-15.2a.818.818 0 010-1.635c12.685 0 22.837-15.282 22.938-15.437a.818.818 0 011.302-.09c13.26 15.232 28.03 15.526 28.178 15.527a.817.817 0 01-.007 1.636h-.007c-.247 0-14.986.145-28.164 15.283a.82.82 0 01-.617.281zM206.782 80.077c-.54 0-1.075-.073-1.591-.228-2.532-.759-4.216-3.397-3.754-5.881.283-1.527 1.324-2.738 2.651-3.087.803-.209 1.708-.043 2.424.447.648.444 1.05 1.085 1.132 1.803a.817.817 0 01-.719.905.824.824 0 01-.905-.72c-.037-.324-.287-.539-.433-.638-.323-.222-.739-.304-1.083-.214-.696.182-1.297.924-1.46 1.802-.309 1.66.889 3.5 2.617 4.015 1.679.505 3.689-.183 4.882-1.671 2.187-2.73 1.511-7.116-.494-9.503-1.936-2.305-5.206-3.683-8.781-3.71h-.215a.817.817 0 010-1.636h.215c3.575-.025 6.845-1.405 8.781-3.71 2.005-2.387 2.681-6.773.494-9.503-1.193-1.488-3.205-2.175-4.882-1.671-1.728.516-2.926 2.355-2.617 4.014.163.88.764 1.622 1.46 1.804.344.09.76.008 1.083-.214.146-.1.396-.315.433-.639a.818.818 0 111.624.185c-.082.719-.484 1.36-1.132 1.804-.716.488-1.621.654-2.424.445-1.327-.347-2.368-1.56-2.651-3.086-.462-2.483 1.222-5.121 3.754-5.881 2.303-.686 5.029.222 6.627 2.217 2.69 3.355 1.904 8.694-.516 11.578-1.307 1.555-3.123 2.747-5.211 3.475 2.088.728 3.902 1.92 5.211 3.476 2.42 2.883 3.206 8.223.516 11.578-1.24 1.549-3.161 2.444-5.036 2.444zM35.542 72.103a.817.817 0 01-.644-.315c-.042-.053-4.38-5.535-10.386-8.473a.819.819 0 010-1.47c6.014-2.94 10.265-8.456 10.308-8.512a.818.818 0 111.3.992c-.169.22-3.907 5.068-9.5 8.255 5.599 3.178 9.396 7.982 9.567 8.202a.817.817 0 01-.645 1.321z" fill="currentColor"/><path d="M6.482 62.542c5.598 1.313 14.52 4.838 23.05 14.285 2.05-2.816 9.002-11.542 18.224-14.253-9.228-2.752-16.181-11.623-18.229-14.481-8.531 9.45-17.451 13.065-23.045 14.449zm23.125 16.42a.822.822 0 01-.618-.282C15.813 63.544 1.079 63.398.825 63.398H.821a.835.835 0 01-.821-.81.819.819 0 01.811-.825c.185-.002 14.966-.352 28.179-15.529a.816.816 0 011.3.09c.102.154 10.254 15.44 22.94 15.44a.818.818 0 010 1.634c-12.704 0-22.841 15.045-22.942 15.198a.821.821 0 01-.628.363l-.053.002zM67.812 80.08c-1.875 0-3.796-.895-5.037-2.445-2.689-3.355-1.904-8.696.516-11.578 1.308-1.556 3.123-2.747 5.21-3.476-2.087-.729-3.902-1.92-5.21-3.476-2.42-2.882-3.206-8.221-.517-11.577 1.6-1.995 4.325-2.906 6.628-2.217 2.533.76 4.217 3.398 3.755 5.881-.285 1.525-1.325 2.737-2.653 3.087-.802.208-1.707.043-2.422-.446-.648-.443-1.05-1.084-1.132-1.805a.817.817 0 01.719-.905.824.824 0 01.905.72c.037.325.287.542.431.64.324.223.739.304 1.085.215.695-.184 1.295-.926 1.46-1.805.308-1.659-.89-3.499-2.617-4.015-1.68-.503-3.69.185-4.882 1.672-2.188 2.73-1.512 7.117.493 9.503 1.936 2.305 5.206 3.684 8.777 3.71h.218a.818.818 0 010 1.635h-.218c-3.572.028-6.841 1.405-8.777 3.71-2.004 2.386-2.68 6.775-.493 9.505 1.191 1.488 3.202 2.177 4.882 1.671 1.726-.516 2.925-2.356 2.617-4.015-.165-.88-.765-1.62-1.46-1.803-.345-.09-.76-.009-1.085.214-.144.099-.394.315-.431.639a.826.826 0 01-.905.72.817.817 0 01-.72-.906c.082-.718.484-1.36 1.133-1.803.715-.49 1.62-.656 2.422-.447 1.327.35 2.368 1.56 2.653 3.088.462 2.484-1.222 5.122-3.755 5.88a5.563 5.563 0 01-1.59.229zM184.754 55.155a.819.819 0 01-.142-1.623l12.379-2.197a.818.818 0 01.285 1.61l-12.378 2.197a.814.814 0 01-.144.013zM182.036 34.546a.817.817 0 01-.445-1.503l6.238-4.047a.817.817 0 11.89 1.37l-6.238 4.048a.81.81 0 01-.445.132zM90.4 54.993a.813.813 0 01-.144-.013l-12.379-2.197a.817.817 0 01.286-1.61l12.377 2.198a.816.816 0 01-.14 1.622zM117.719 59.839a.82.82 0 01-.143-.013l-16.467-2.915a.817.817 0 11.285-1.61l16.467 2.915a.817.817 0 01-.142 1.623zM118.819 55.906a.78.78 0 01-.299-.058l-37.505-14.79a.817.817 0 11.6-1.52l37.504 14.79a.816.816 0 01-.3 1.578zM93.114 34.387a.81.81 0 01-.445-.132l-6.238-4.048a.817.817 0 11.89-1.371l6.237 4.048a.817.817 0 01-.444 1.503zM120.654 52.254a.816.816 0 01-.445-.133l-19.964-12.949a.819.819 0 01-.243-1.131.819.819 0 011.132-.24L121.1 50.75a.818.818 0 01-.446 1.503zM155.552 51.733a.818.818 0 01-.445-1.503l19.182-12.436a.818.818 0 01.89 1.371l-19.182 12.436a.815.815 0 01-.445.132zM123.188 49.04a.81.81 0 01-.572-.235L93.894 20.642a.816.816 0 111.144-1.167L123.76 47.64a.819.819 0 01-.573 1.4zM112.854 26.507a.818.818 0 01-.677-.358l-9.083-13.396a.818.818 0 111.353-.918l9.083 13.396a.817.817 0 01-.676 1.276zM126.306 46.346a.816.816 0 01-.677-.36l-8.883-13.098a.818.818 0 011.354-.918l8.882 13.1a.818.818 0 01-.676 1.276zM129.897 44.33a.817.817 0 01-.755-.503L113.693 6.84a.817.817 0 111.508-.63l15.449 36.987a.818.818 0 01-.753 1.133zM127.347 10.28a.82.82 0 01-.802-.66l-1.279-6.47a.817.817 0 111.604-.317l1.279 6.47a.817.817 0 01-.802.976zM133.829 43.052a.818.818 0 01-.801-.658l-5.153-26.042a.819.819 0 01.644-.96c.441-.085.873.2.961.642l5.153 26.043a.817.817 0 01-.804.975zM158.785 59.697a.815.815 0 01-.803-.675.817.817 0 01.661-.948l15.669-2.774a.817.817 0 01.286 1.61l-15.669 2.774a.823.823 0 01-.144.013zM157.626 55.616a.81.81 0 01-.817-.809v-.02a.82.82 0 01.519-.761l36.767-14.49a.817.817 0 11.598 1.521L158.026 55.51a.818.818 0 01-.4.107zM152.958 48.62a.82.82 0 01-.573-1.402l28.284-27.745a.82.82 0 011.157.01.82.82 0 01-.011 1.157l-28.284 27.745a.817.817 0 01-.573.235zM162.848 26.507a.818.818 0 01-.676-1.277l9.084-13.395a.818.818 0 011.354.918l-9.084 13.396a.817.817 0 01-.678.358zM149.665 45.964a.818.818 0 01-.676-1.277l8.623-12.714a.818.818 0 011.353.918l-8.623 12.714a.817.817 0 01-.677.359zM145.927 44.027a.815.815 0 01-.753-1.133l15.328-36.687a.818.818 0 011.509.63l-15.33 36.688a.817.817 0 01-.754.502zM148.358 10.28a.817.817 0 01-.803-.977l1.281-6.47a.818.818 0 011.604.317l-1.281 6.47a.816.816 0 01-.801.66zM141.921 42.89a.819.819 0 01-.804-.977l5.11-25.888a.817.817 0 111.604.317l-5.109 25.889a.818.818 0 01-.801.66zM137.862 42.574a.818.818 0 01-.818-.817l-.021-40.94a.818.818 0 011.636 0l.02 40.94a.817.817 0 01-.816.817h-.001z" fill="currentColor"/><path d="M159.12 63.412a.818.818 0 01-.818-.818c0-1.185-.11-2.385-.326-3.566a19.013 19.013 0 00-1.113-3.914 20.84 20.84 0 00-1.899-3.606 20.273 20.273 0 00-2.585-3.12 21.076 21.076 0 00-3.152-2.557 19.828 19.828 0 00-3.581-1.859 20.03 20.03 0 00-3.871-1.09 19.137 19.137 0 00-3.514-.308h-.399a18.193 18.193 0 00-3.848.458c-1.268.26-2.535.672-3.784 1.228a19.509 19.509 0 00-3.458 1.938 19.515 19.515 0 00-2.986 2.584 19.13 19.13 0 00-2.441 3.094 20.619 20.619 0 00-1.763 3.511 19.343 19.343 0 00-1.055 3.775 20.319 20.319 0 00-.286 3.432.818.818 0 01-1.636 0c0-1.264.104-2.514.311-3.712.256-1.45.641-2.828 1.144-4.094a22.222 22.222 0 011.905-3.789 20.57 20.57 0 012.642-3.349 21.187 21.187 0 016.969-4.89 20.053 20.053 0 014.089-1.325 19.76 19.76 0 014.186-.497h.41c1.342 0 2.621.112 3.804.333 1.363.234 2.774.631 4.178 1.178a21.655 21.655 0 013.883 2.015 23.017 23.017 0 013.398 2.756 22 22 0 012.798 3.378 22.549 22.549 0 012.058 3.902 20.748 20.748 0 011.206 4.246 21.43 21.43 0 01.351 3.848.818.818 0 01-.817.818z" fill="currentColor"/></svg><svg fill="none" viewBox="0 0 16 16" id="faq-decor-bottom-right" xmlns="http://www.w3.org/2000/svg"><path d="M-1.5 1A2.5 2.5 0 011-1.5h15v3H1.5l-3-.5zM16 16H0h16zm-17.5 0V1A2.5 2.5 0 011-1.5l.5 3V16h-3zM16 0v16V0zM10.92 8.282a2.353 2.353 0 11-4.705 0 2.353 2.353 0 014.706 0z" fill="currentColor"/></svg><svg fill="none" viewBox="0 0 21 18" id="icon-arrow-current-top" xmlns="http://www.w3.org/2000/svg"><path d="M20.91 17.875a.359.359 0 01-.413.094l-9.996-4.26-9.995 4.26c-.298.141-.64-.227-.452-.512L10.19.177c.127-.234.496-.238.623 0l10.136 17.28a.35.35 0 01-.04.418z" fill="#DAB465"/></svg><svg fill="none" viewBox="0 0 35 28" id="icon-arrow-next" xmlns="http://www.w3.org/2000/svg"><path d="M11.415 27.381a.47.47 0 01-.123-.54l5.619-13.09L11.29.664c-.187-.39.299-.838.675-.593l22.8 13.274c.31.166.314.65 0 .816l-22.8 13.273a.466.466 0 01-.551-.052z" fill="#DAB465"/><path opacity=".5" d="M.078 20.567a.246.246 0 01-.058-.27l2.661-6.545L.02 7.207c-.089-.195.14-.419.32-.296l10.8 6.637c.146.083.148.325 0 .408L.34 20.593a.212.212 0 01-.262-.026z" fill="#DAB465"/></svg><svg fill="none" viewBox="0 0 35 28" id="icon-arrow-prev" xmlns="http://www.w3.org/2000/svg"><path d="M23.585 27.381a.47.47 0 00.123-.54L18.09 13.75 23.71.664c.187-.39-.299-.838-.675-.593L.234 13.344c-.31.166-.314.65 0 .816l22.8 13.273a.466.466 0 00.551-.052z" fill="#DAB465"/><path opacity=".5" d="M34.922 20.567a.247.247 0 00.059-.27l-2.662-6.545 2.661-6.545c.089-.195-.14-.419-.32-.296l-10.8 6.637c-.146.083-.148.325 0 .408l10.8 6.637a.212.212 0 00.262-.026z" fill="#DAB465"/></svg><svg fill="none" viewBox="0 0 44 56" id="icon-arrow-scroll" xmlns="http://www.w3.org/2000/svg"><path d="M43.81 18.264a.75.75 0 00-.865-.198l-20.942 8.991-20.943-8.99c-.625-.3-1.34.477-.948 1.078l21.239 36.48c.265.496 1.039.504 1.304 0l21.238-36.48a.746.746 0 00-.083-.881z" fill="#DAB465"/><path opacity=".5" d="M32.905.125a.394.394 0 00-.432-.094L22 4.291 11.531.03c-.313-.141-.671.227-.475.512l10.62 17.28c.132.234.519.238.652 0L32.947.543a.338.338 0 00-.042-.418z" fill="#DAB465"/></svg><svg fill="none" viewBox="0 0 29 19" id="icon-caret" xmlns="http://www.w3.org/2000/svg"><path d="M15.014 18.041L28.815 1.145c.337-.42.2-.612-.306-.428L15.32 5.203c-.506.184-1.326.182-1.832-.004L.492.72c-.505-.186-.644.005-.31.428l13.616 16.889c.335.422.879.424 1.216.003z" fill="currentColor"/></svg><svg fill="none" viewBox="0 0 28 31" id="icon-check-circle" xmlns="http://www.w3.org/2000/svg"><path d="M13.998 7.764c-4.11 0-7.454 3.344-7.454 7.46 0 4.103 3.344 7.446 7.454 7.446 4.11 0 7.453-3.343 7.453-7.447 0-4.115-3.343-7.459-7.453-7.459zm0 16.584c-5.034 0-9.13-4.093-9.13-9.125s4.096-9.136 9.13-9.136c5.035 0 9.13 4.104 9.13 9.136 0 5.032-4.095 9.125-9.13 9.125z" fill="currentColor"/><path d="M14 30.435c-6.153 0-11.624-3.831-13.938-9.753-.175-.453.032-.963.46-1.137.428-.187.918.034 1.091.476C3.67 25.29 8.533 28.693 14 28.693c5.467 0 10.33-3.402 12.388-8.672a.832.832 0 011.09-.477c.428.175.634.685.46 1.138-2.315 5.922-7.786 9.753-13.938 9.753zM27.163 10.954a.841.841 0 01-.775-.546C24.329 5.152 19.467 1.741 14 1.741c-5.466 0-10.329 3.41-12.387 8.667a.83.83 0 01-1.09.488.888.888 0 01-.46-1.138C2.377 3.83 7.847 0 14 0c6.152 0 11.623 3.83 13.938 9.758a.89.89 0 01-.46 1.138.984.984 0 01-.315.057z" fill="currentColor"/><circle cx="14" cy="15.087" r="4" fill="currentColor"/></svg><svg fill="none" viewBox="0 0 21 21" id="icon-done" xmlns="http://www.w3.org/2000/svg"><path d="M15.123 8L9.62 13.503 7 10.883" stroke="currentColor" stroke-width="1.5" stroke-miterlimit="10" stroke-linecap="round" stroke-linejoin="round"/><circle cx="10.5" cy="10.5" r="9.75" stroke="currentColor" stroke-width="1.5"/></svg><svg fill="none" viewBox="0 0 37 37" id="icon-download" xmlns="http://www.w3.org/2000/svg"><path d="M18.37 0a18.37 18.37 0 100 36.74 18.37 18.37 0 000-36.74zm-3.933 17.777a.834.834 0 011.186 0l1.912 1.921V9.185a.835.835 0 111.67 0v10.513l1.913-1.92a.839.839 0 111.185 1.185l-3.34 3.34a.834.834 0 01-1.186 0l-3.34-3.34a.834.834 0 010-1.186zm12.284 8.108a.835.835 0 01-.835.835h-15.03a.835.835 0 01-.836-.834V21.71a.835.835 0 011.67 0v3.34h13.36v-3.34a.835.835 0 011.67 0v4.175z" fill="#DAB465"/></svg><svg fill="none" viewBox="0 0 21 22" id="icon-edit" xmlns="http://www.w3.org/2000/svg"><path d="M20.8 2.708A2.706 2.706 0 0016.18.794L3.495 13.48a.659.659 0 00-.173.303L2.267 17.91a.659.659 0 00.835.792l3.95-1.23a.66.66 0 00.271-.163L20.01 4.623a2.69 2.69 0 00.79-1.915zM6.507 16.263l-2.67.831.717-2.809L15.656 3.182l1.966 1.966L6.506 16.263zM19.078 3.691l-.524.525-1.966-1.966.525-.524a1.39 1.39 0 011.965 1.965zm-4.832 17.401H.66a.659.659 0 110-1.318h13.587a.66.66 0 110 1.318z" fill="currentColor"/></svg><svg fill="none" viewBox="0 0 18 20" id="icon-magic" xmlns="http://www.w3.org/2000/svg"><path d="M6.836 2.78l1.656-.987L9.404 0l.911 1.793 1.657.987-1.657.987-.911 1.793-.912-1.793-1.656-.987zM13.215 3.088l1.105-.653.604-1.197.604 1.197 1.105.653-1.105.654-.604 1.197-.604-1.197-1.105-.654zM14.582 8.023l1.105-.654.604-1.197.604 1.197L18 8.023l-1.105.653-.604 1.197-.604-1.197-1.105-.653zM11.985 5.533L.305 18.114c-.925 1.049.456 2.556 1.443 1.56l11.68-12.582c.926-1.053-.466-2.558-1.443-1.559z" fill="#DAB465"/></svg><svg fill="none" viewBox="0 0 24 29" id="icon-notification" xmlns="http://www.w3.org/2000/svg"><path d="M24 23.476v1.381H0v-1.38l2.667-2.763V12.43c0-4.281 2.706-8.051 6.666-9.267v-.4c0-.733.281-1.435.781-1.953A2.62 2.62 0 0112 0a2.62 2.62 0 011.886.809c.5.518.78 1.22.78 1.953v.4c3.96 1.216 6.667 4.986 6.667 9.267v8.285L24 23.476zm-9.333 2.762c0 .733-.281 1.435-.781 1.953S12.707 29 12 29a2.621 2.621 0 01-1.886-.809 2.813 2.813 0 01-.78-1.953" fill="#fff"/></svg><svg fill="none" viewBox="0 0 88 88" id="icon-play" xmlns="http://www.w3.org/2000/svg"><path d="M44 0C19.7 0 0 19.7 0 44s19.7 44 44 44 44-19.7 44-44S68.3 0 44 0zm15.208 46.332l-22 13.75A2.752 2.752 0 0133 57.75v-27.5a2.749 2.749 0 014.208-2.332l22 13.75a2.753 2.753 0 010 4.664z" fill="currentColor"/></svg><svg fill="none" viewBox="0 0 88 88" id="icon-play-accent" xmlns="http://www.w3.org/2000/svg"><path d="M44 0C19.7 0 0 19.7 0 44s19.7 44 44 44 44-19.7 44-44S68.3 0 44 0zm15.208 46.332l-22 13.75A2.752 2.752 0 0133 57.75v-27.5a2.749 2.749 0 014.208-2.332l22 13.75a2.753 2.753 0 010 4.664z" fill="#DAB465"/></svg><svg fill="none" viewBox="0 0 26 26" id="icon-time" xmlns="http://www.w3.org/2000/svg"><path d="M12.997 24.646A11.646 11.646 0 1124.643 13a11.66 11.66 0 01-11.646 11.646zm0-21.666A10.02 10.02 0 1023.018 13a10.031 10.031 0 00-10.02-10.02z" fill="currentColor"/><path d="M16.25 17.063a.81.81 0 01-.574-.238l-3.25-3.25a.813.813 0 01-.239-.575V5.417a.812.812 0 111.626 0v7.248l3.011 3.011a.812.812 0 01-.574 1.387z" fill="currentColor"/></svg><svg fill="none" viewBox="0 0 25 24" id="icon-unlock" xmlns="http://www.w3.org/2000/svg"><path d="M11 16a1.5 1.5 0 113 0 1.5 1.5 0 01-3 0z" fill="#1D1D1B"/><path fill-rule="evenodd" clip-rule="evenodd" d="M10.307 4.005a3.2 3.2 0 014.164 1.808l.075.192c.093.238.16.486.198.738l.217 1.423 1.483-.226-.217-1.423a4.964 4.964 0 00-.283-1.057l-.075-.193a4.7 4.7 0 00-9.024 2.418l.03.204c.056.362.151.717.284 1.058l.655 1.675-.382.03a2.36 2.36 0 00-2.142 1.972 20.891 20.891 0 000 6.752 2.36 2.36 0 002.142 1.972l1.496.12c2.376.19 4.762.19 7.138 0l1.496-.12a2.361 2.361 0 002.142-1.972 20.892 20.892 0 000-6.752 2.361 2.361 0 00-2.142-1.972l-1.496-.12a44.837 44.837 0 00-6.69-.033l-.82-2.098a3.46 3.46 0 01-.197-.738l-.032-.203a3.2 3.2 0 011.98-3.455zm5.64 8.023a43.358 43.358 0 00-6.9 0l-1.496.12a.86.86 0 00-.78.72 19.39 19.39 0 000 6.265.86.86 0 00.78.72l1.497.12c2.296.183 4.602.183 6.898 0l1.496-.12a.861.861 0 00.782-.72 19.39 19.39 0 000-6.266.86.86 0 00-.782-.72l-1.496-.12.001.001z" fill="#1D1D1B"/></svg><svg fill="none" viewBox="0 0 23 19" id="input-decor" xmlns="http://www.w3.org/2000/svg"><rect width="5" height="5" rx="1" transform="matrix(-1 0 0 1 5 14)" fill="#DAB465"/><path d="M0 .75h8.5a2 2 0 012 2l.001 2.75V8a2 2 0 002 2h5a2 2 0 012 2v4.25a2 2 0 002 2H23" stroke="#DAB465" stroke-width="1.5"/></svg></svg>