<?xml version="1.0" encoding="utf-8"?><svg viewBox="0 0 88 88" xmlns="http://www.w3.org/2000/svg" xmlns:xlink="http://www.w3.org/1999/xlink"><style>:root>svg{display:none}:root>svg:target{display:block}</style><svg fill="none" viewBox="0 0 25 25" id="btn-decor-left-bottom" xmlns="http://www.w3.org/2000/svg"><path d="M.75 7v6.015c0 .512.385.944.888 1.042 1.484.289 4.51 1.101 6.568 3.158 2.005 2.002 2.732 4.712 2.985 6.112.094.517.535.923 1.06.923H18.5" stroke="currentColor" stroke-width="1.5"/><path d="M0 24a1 1 0 001 1h3a1 1 0 001-1v-3a1 1 0 00-1-1H1a1 1 0 00-1 1v3z" fill="currentColor"/><path d="M.75 0v2.444c0 1.06.827 1.947 1.874 2.111 2.92.459 8.622 1.814 12.483 5.669 4.125 4.12 5.485 9.337 5.93 12.102.171 1.067 1.073 1.924 2.154 1.924H25" stroke="currentColor" stroke-width="1.5"/></svg><svg fill="none" viewBox="0 0 88 88" id="card-decor-top-left" xmlns="http://www.w3.org/2000/svg"><path d="M47.496 51.567c-.048 0-.096 0-.144.01a.752.752 0 00-.48.355c-1.203 2.125-3.328 4.53-5.76 5.876 1.038-2.385 1.586-5.54 1.586-7.857 0-1.307-.125-5.173-1.548-8.49 3.317 1.422 7.183 1.557 8.49 1.557 2.309 0 5.463-.558 7.847-1.596-1.346 2.433-3.75 4.558-5.875 5.76a.724.724 0 00-.221 1.058 35.26 35.26 0 014.346 7.817c-2.836-1.153-5.462-2.615-7.808-4.356a.768.768 0 00-.433-.134zm-8.039 8.439a.732.732 0 00.202-.028c2.923-.853 6.02-3.42 8.059-6.651 2.702 1.913 5.74 3.48 9.029 4.654.26.096.558.029.75-.173a.722.722 0 00.173-.75c-1.183-3.29-2.74-6.318-4.654-9.03 3.231-2.039 5.799-5.135 6.647-8.058a.73.73 0 00-.282-.798.736.736 0 00-.845.019c-1.981 1.49-6.078 2.385-8.895 2.385-3.145 0-7.414-.683-9.953-2.587a.73.73 0 00-.942.067.707.707 0 00-.068.943c1.904 2.548 2.577 6.808 2.577 9.952 0 2.818-.884 6.924-2.375 8.905a.71.71 0 00-.019.838c.135.2.356.312.596.312z" fill="currentColor"/><path d="M.73 88a.724.724 0 00.72-.721V1.447h85.833a.724.724 0 00.72-.721.718.718 0 00-.72-.722H.729a.714.714 0 00-.72.722v86.553c0 .398.317.721.72.721z" fill="currentColor"/><path d="M.727 27.709a.739.739 0 00.596-.308c3.202-4.692 14.569-6.943 20.963-4.163a.726.726 0 00.952-.953c-2.779-6.394-.519-17.76 4.164-20.972a.713.713 0 00.183-1 .713.713 0 00-1-.183c-4.885 3.337-7.376 14.088-5.222 21.232C14.22 19.2 3.468 21.7.131 26.584a.713.713 0 00.596 1.125zM17.183 49.566c.192 0 .384.01.567.03.827.076 1.981.393 2.721 1.394.587.788.654 1.904.145 2.596-.51.702-1.443 1.077-2.26.904-.587-.125-1.01-.52-1.51-.971-.134-.125-.269-.25-.404-.366-.615-.538-1.586-1.25-2.875-1.279-.423 0-.904.058-1.385.202.24-.385.53-.73.856-1.029 1.02-.913 2.626-1.48 4.145-1.48zm1.26 13.505c4.211 0 7.933-1.414 10.827-4.129 3.308-3.096 5.203-7.645 5.203-12.472 0-5.76-3.337-11.405-8.51-14.386-4.51-2.606-10.367-2.99-15.656-1.038C4.336 33.248.008 39.335.008 45.518c0 .404.318.721.721.721a.72.72 0 00.722-.721c0-5.597 3.933-11.116 9.356-13.117 4.895-1.807 10.29-1.461 14.434.933 4.731 2.731 7.79 7.885 7.79 13.136 0 4.423-1.732 8.587-4.751 11.424-2.875 2.696-6.674 3.968-11.001 3.697-3.28-.212-5.885-3.043-5.914-6.457 0-.24.01-.49.038-.73.135-.684 1.356-1.126 2.126-1.087.644.019 1.25.298 1.971.923.125.115.25.22.375.336.567.53 1.212 1.126 2.183 1.327 1.385.289 2.885-.307 3.721-1.47.875-1.203.818-3.01-.144-4.309-.846-1.125-2.135-1.808-3.74-1.962-2.078-.211-4.366.5-5.818 1.808-1.395 1.25-2.174 3.145-2.154 5.183.038 4.154 3.23 7.616 7.27 7.877.413.027.836.041 1.25.041zM52.079 12.178a4.55 4.55 0 00-.202 1.385c.029 1.289.74 2.26 1.279 2.875.115.135.24.27.365.404.452.5.846.924.971 1.51.173.817-.202 1.75-.904 2.26-.692.5-1.807.442-2.596-.144-1-.75-1.317-1.895-1.394-2.722-.164-1.663.413-3.558 1.452-4.712a4.918 4.918 0 011.029-.856zm-5.607 22.29c4.828 0 9.376-1.894 12.476-5.211 2.978-3.174 4.391-7.347 4.085-12.078-.26-4.03-3.72-7.222-7.877-7.26h-.077c-2.01 0-3.866.778-5.097 2.154-1.317 1.461-2.029 3.74-1.817 5.817.154 1.606.836 2.895 1.962 3.741 1.298.962 3.106 1.02 4.317.144 1.154-.846 1.74-2.336 1.462-3.721-.202-.971-.798-1.616-1.327-2.183-.106-.125-.221-.25-.337-.375-.625-.721-.904-1.327-.923-1.971-.01-.78.404-1.99 1.087-2.126.24-.028.49-.038.74-.038 3.404.029 6.235 2.635 6.448 5.914.279 4.318-1 8.126-3.698 11-2.827 3.02-7 4.751-11.424 4.751-5.25 0-10.404-3.058-13.135-7.789-2.385-4.144-2.74-9.539-.933-14.434 2-5.423 7.52-9.356 13.116-9.356a.72.72 0 00.721-.721.714.714 0 00-.72-.722c-6.184 0-12.27 4.328-14.473 10.3-1.952 5.288-1.558 11.144 1.039 15.654 2.98 5.164 8.625 8.51 14.385 8.51z" fill="currentColor"/></svg><svg fill="none" viewBox="0 0 88 88" id="card-decor-top-right" xmlns="http://www.w3.org/2000/svg"><path d="M40.508 51.567a.73.73 0 01.144.01.752.752 0 01.48.355c1.203 2.125 3.328 4.53 5.76 5.876-1.038-2.385-1.586-5.54-1.586-7.857 0-1.307.125-5.173 1.548-8.49-3.317 1.422-7.183 1.557-8.49 1.557-2.309 0-5.463-.558-7.848-1.596 1.347 2.433 3.75 4.558 5.876 5.76a.724.724 0 01.221 1.058 35.26 35.26 0 00-4.346 7.817c2.836-1.153 5.462-2.615 7.808-4.356a.768.768 0 01.433-.134zm8.039 8.439a.732.732 0 01-.202-.028c-2.923-.853-6.02-3.42-8.059-6.651-2.702 1.913-5.74 3.48-9.03 4.654a.704.704 0 01-.75-.173.722.722 0 01-.172-.75c1.182-3.29 2.74-6.318 4.654-9.03-3.231-2.039-5.799-5.135-6.647-8.058a.73.73 0 01.282-.798.736.736 0 01.845.019c1.981 1.49 6.078 2.385 8.895 2.385 3.145 0 7.414-.683 9.953-2.587a.73.73 0 01.942.067c.26.25.289.654.068.943-1.904 2.548-2.578 6.808-2.578 9.952 0 2.818.885 6.924 2.376 8.905a.71.71 0 01.019.838.711.711 0 01-.596.312z" fill="currentColor"/><path d="M87.274 88a.724.724 0 01-.72-.721V1.447H.72A.724.724 0 010 .726C0 .322.323.004.721.004h86.553c.404 0 .722.318.722.722v86.553a.718.718 0 01-.722.721z" fill="currentColor"/><path d="M87.277 27.709a.739.739 0 01-.596-.308c-3.203-4.692-14.569-6.943-20.964-4.163a.726.726 0 01-.952-.953c2.78-6.394.52-17.76-4.163-20.972a.713.713 0 01-.183-1 .713.713 0 011-.183c4.885 3.337 7.376 14.088 5.222 21.232 7.144-2.163 17.895.337 21.232 5.222a.713.713 0 01-.596 1.125zM70.821 49.566c-.192 0-.385.01-.567.03-.827.076-1.981.393-2.722 1.394-.586.788-.653 1.904-.144 2.596.51.702 1.443 1.077 2.26.904.587-.125 1.01-.52 1.51-.971.134-.125.269-.25.404-.366.615-.538 1.586-1.25 2.875-1.279.423 0 .904.058 1.385.202a4.92 4.92 0 00-.856-1.029c-1.02-.913-2.625-1.48-4.145-1.48zm-1.26 13.505c-4.212 0-7.933-1.414-10.827-4.129-3.308-3.096-5.203-7.645-5.203-12.472 0-5.76 3.337-11.405 8.51-14.386 4.51-2.606 10.367-2.99 15.656-1.038 5.971 2.202 10.299 8.289 10.299 14.472a.714.714 0 01-.722.721.72.72 0 01-.72-.721c0-5.597-3.934-11.116-9.357-13.117-4.895-1.807-10.29-1.461-14.434.933-4.731 2.731-7.79 7.885-7.79 13.136 0 4.423 1.732 8.587 4.751 11.424 2.875 2.696 6.674 3.968 11 3.697 3.28-.212 5.886-3.043 5.915-6.457 0-.24-.01-.49-.038-.73-.135-.684-1.356-1.126-2.126-1.087-.644.019-1.25.298-1.971.923-.125.115-.25.22-.375.336-.567.53-1.212 1.126-2.183 1.327-1.385.289-2.885-.307-3.721-1.47-.875-1.203-.818-3.01.144-4.309.846-1.125 2.135-1.808 3.74-1.962 2.078-.211 4.366.5 5.818 1.808 1.395 1.25 2.173 3.145 2.154 5.183-.038 4.154-3.23 7.616-7.27 7.877-.413.027-.836.041-1.25.041zM35.925 12.178c.145.481.212.962.202 1.385-.029 1.289-.74 2.26-1.279 2.876-.115.134-.24.269-.365.403-.452.5-.846.924-.971 1.51-.173.817.202 1.75.904 2.26.692.5 1.807.442 2.596-.144 1-.75 1.317-1.895 1.394-2.722.164-1.663-.413-3.558-1.452-4.712a4.922 4.922 0 00-1.029-.856zm5.607 22.29c-4.828 0-9.376-1.894-12.476-5.211-2.979-3.174-4.391-7.347-4.085-12.078.26-4.03 3.72-7.222 7.877-7.26h.077c2.01 0 3.866.779 5.097 2.154 1.317 1.461 2.029 3.74 1.817 5.817-.154 1.606-.837 2.895-1.962 3.741-1.298.962-3.106 1.02-4.317.144-1.154-.846-1.74-2.336-1.462-3.721.202-.971.798-1.616 1.327-2.183.106-.125.221-.25.337-.375.625-.721.904-1.327.923-1.971.01-.78-.404-1.99-1.087-2.125a6.246 6.246 0 00-.74-.039c-3.404.029-6.235 2.635-6.448 5.914-.279 4.318 1 8.126 3.698 11 2.827 3.02 7 4.751 11.424 4.751 5.25 0 10.404-3.058 13.135-7.789 2.385-4.144 2.74-9.539.933-14.434-2-5.423-7.52-9.356-13.116-9.356a.72.72 0 01-.722-.721c0-.404.318-.722.722-.722 6.183 0 12.27 4.328 14.472 10.3 1.952 5.288 1.558 11.144-1.039 15.655-2.98 5.163-8.625 8.51-14.386 8.51z" fill="currentColor"/></svg><svg fill="none" viewBox="0 0 16 16" id="faq-decor-bottom-right" xmlns="http://www.w3.org/2000/svg"><path d="M-1.5 1A2.5 2.5 0 011-1.5h15v3H1.5l-3-.5zM16 16H0h16zm-17.5 0V1A2.5 2.5 0 011-1.5l.5 3V16h-3zM16 0v16V0zM10.92 8.282a2.353 2.353 0 11-4.705 0 2.353 2.353 0 014.706 0z" fill="currentColor"/></svg><svg fill="none" viewBox="0 0 21 18" id="icon-arrow-current-top" xmlns="http://www.w3.org/2000/svg"><path d="M20.91 17.875a.359.359 0 01-.413.094l-9.996-4.26-9.995 4.26c-.298.141-.64-.227-.452-.512L10.19.177c.127-.234.496-.238.623 0l10.136 17.28a.35.35 0 01-.04.418z" fill="#DAB465"/></svg><svg fill="none" viewBox="0 0 35 28" id="icon-arrow-next" xmlns="http://www.w3.org/2000/svg"><path d="M11.415 27.381a.47.47 0 01-.123-.54l5.619-13.09L11.29.664c-.187-.39.299-.838.675-.593l22.8 13.274c.31.166.314.65 0 .816l-22.8 13.273a.466.466 0 01-.551-.052z" fill="#DAB465"/><path opacity=".5" d="M.078 20.567a.246.246 0 01-.058-.27l2.661-6.545L.02 7.207c-.089-.195.14-.419.32-.296l10.8 6.637c.146.083.148.325 0 .408L.34 20.593a.212.212 0 01-.262-.026z" fill="#DAB465"/></svg><svg fill="none" viewBox="0 0 35 28" id="icon-arrow-prev" xmlns="http://www.w3.org/2000/svg"><path d="M23.585 27.381a.47.47 0 00.123-.54L18.09 13.75 23.71.664c.187-.39-.299-.838-.675-.593L.234 13.344c-.31.166-.314.65 0 .816l22.8 13.273a.466.466 0 00.551-.052z" fill="#DAB465"/><path opacity=".5" d="M34.922 20.567a.247.247 0 00.059-.27l-2.662-6.545 2.661-6.545c.089-.195-.14-.419-.32-.296l-10.8 6.637c-.146.083-.148.325 0 .408l10.8 6.637a.212.212 0 00.262-.026z" fill="#DAB465"/></svg><svg fill="none" viewBox="0 0 44 56" id="icon-arrow-scroll" xmlns="http://www.w3.org/2000/svg"><path d="M43.81 18.264a.75.75 0 00-.865-.198l-20.942 8.991-20.943-8.99c-.625-.3-1.34.477-.948 1.078l21.239 36.48c.265.496 1.039.504 1.304 0l21.238-36.48a.746.746 0 00-.083-.881z" fill="#DAB465"/><path opacity=".5" d="M32.905.125a.394.394 0 00-.432-.094L22 4.291 11.531.03c-.313-.141-.671.227-.475.512l10.62 17.28c.132.234.519.238.652 0L32.947.543a.338.338 0 00-.042-.418z" fill="#DAB465"/></svg><svg fill="none" viewBox="0 0 29 19" id="icon-caret" xmlns="http://www.w3.org/2000/svg"><path d="M15.014 18.041L28.815 1.145c.337-.42.2-.612-.306-.428L15.32 5.203c-.506.184-1.326.182-1.832-.004L.492.72c-.505-.186-.644.005-.31.428l13.616 16.889c.335.422.879.424 1.216.003z" fill="currentColor"/></svg><svg fill="none" viewBox="0 0 28 31" id="icon-check-circle" xmlns="http://www.w3.org/2000/svg"><path d="M13.998 7.764c-4.11 0-7.454 3.344-7.454 7.46 0 4.103 3.344 7.446 7.454 7.446 4.11 0 7.453-3.343 7.453-7.447 0-4.115-3.343-7.459-7.453-7.459zm0 16.584c-5.034 0-9.13-4.093-9.13-9.125s4.096-9.136 9.13-9.136c5.035 0 9.13 4.104 9.13 9.136 0 5.032-4.095 9.125-9.13 9.125z" fill="currentColor"/><path d="M14 30.435c-6.153 0-11.624-3.831-13.938-9.753-.175-.453.032-.963.46-1.137.428-.187.918.034 1.091.476C3.67 25.29 8.533 28.693 14 28.693c5.467 0 10.33-3.402 12.388-8.672a.832.832 0 011.09-.477c.428.175.634.685.46 1.138-2.315 5.922-7.786 9.753-13.938 9.753zM27.163 10.954a.841.841 0 01-.775-.546C24.329 5.152 19.467 1.741 14 1.741c-5.466 0-10.329 3.41-12.387 8.667a.83.83 0 01-1.09.488.888.888 0 01-.46-1.138C2.377 3.83 7.847 0 14 0c6.152 0 11.623 3.83 13.938 9.758a.89.89 0 01-.46 1.138.984.984 0 01-.315.057z" fill="currentColor"/><circle cx="14" cy="15.087" r="4" fill="currentColor"/></svg><svg fill="none" viewBox="0 0 21 21" id="icon-done" xmlns="http://www.w3.org/2000/svg"><path d="M15.123 8L9.62 13.503 7 10.883" stroke="currentColor" stroke-width="1.5" stroke-miterlimit="10" stroke-linecap="round" stroke-linejoin="round"/><circle cx="10.5" cy="10.5" r="9.75" stroke="currentColor" stroke-width="1.5"/></svg><svg fill="none" viewBox="0 0 37 37" id="icon-download" xmlns="http://www.w3.org/2000/svg"><path d="M18.37 0a18.37 18.37 0 100 36.74 18.37 18.37 0 000-36.74zm-3.933 17.777a.834.834 0 011.186 0l1.912 1.921V9.185a.835.835 0 111.67 0v10.513l1.913-1.92a.839.839 0 111.185 1.185l-3.34 3.34a.834.834 0 01-1.186 0l-3.34-3.34a.834.834 0 010-1.186zm12.284 8.108a.835.835 0 01-.835.835h-15.03a.835.835 0 01-.836-.834V21.71a.835.835 0 011.67 0v3.34h13.36v-3.34a.835.835 0 011.67 0v4.175z" fill="#DAB465"/></svg><svg fill="none" viewBox="0 0 21 22" id="icon-edit" xmlns="http://www.w3.org/2000/svg"><path d="M20.8 2.708A2.706 2.706 0 0016.18.794L3.495 13.48a.659.659 0 00-.173.303L2.267 17.91a.659.659 0 00.835.792l3.95-1.23a.66.66 0 00.271-.163L20.01 4.623a2.69 2.69 0 00.79-1.915zM6.507 16.263l-2.67.831.717-2.809L15.656 3.182l1.966 1.966L6.506 16.263zM19.078 3.691l-.524.525-1.966-1.966.525-.524a1.39 1.39 0 011.965 1.965zm-4.832 17.401H.66a.659.659 0 110-1.318h13.587a.66.66 0 110 1.318z" fill="currentColor"/></svg><svg fill="none" viewBox="0 0 18 20" id="icon-magic" xmlns="http://www.w3.org/2000/svg"><path d="M6.836 2.78l1.656-.987L9.404 0l.911 1.793 1.657.987-1.657.987-.911 1.793-.912-1.793-1.656-.987zM13.215 3.088l1.105-.653.604-1.197.604 1.197 1.105.653-1.105.654-.604 1.197-.604-1.197-1.105-.654zM14.582 8.023l1.105-.654.604-1.197.604 1.197L18 8.023l-1.105.653-.604 1.197-.604-1.197-1.105-.653zM11.985 5.533L.305 18.114c-.925 1.049.456 2.556 1.443 1.56l11.68-12.582c.926-1.053-.466-2.558-1.443-1.559z" fill="#DAB465"/></svg><svg fill="none" viewBox="0 0 24 29" id="icon-notification" xmlns="http://www.w3.org/2000/svg"><path d="M24 23.476v1.381H0v-1.38l2.667-2.763V12.43c0-4.281 2.706-8.051 6.666-9.267v-.4c0-.733.281-1.435.781-1.953A2.62 2.62 0 0112 0a2.62 2.62 0 011.886.809c.5.518.78 1.22.78 1.953v.4c3.96 1.216 6.667 4.986 6.667 9.267v8.285L24 23.476zm-9.333 2.762c0 .733-.281 1.435-.781 1.953S12.707 29 12 29a2.621 2.621 0 01-1.886-.809 2.813 2.813 0 01-.78-1.953" fill="#fff"/></svg><svg fill="none" viewBox="0 0 88 88" id="icon-play" xmlns="http://www.w3.org/2000/svg"><path d="M44 0C19.7 0 0 19.7 0 44s19.7 44 44 44 44-19.7 44-44S68.3 0 44 0zm15.208 46.332l-22 13.75A2.752 2.752 0 0133 57.75v-27.5a2.749 2.749 0 014.208-2.332l22 13.75a2.753 2.753 0 010 4.664z" fill="currentColor"/></svg><svg fill="none" viewBox="0 0 88 88" id="icon-play-accent" xmlns="http://www.w3.org/2000/svg"><path d="M44 0C19.7 0 0 19.7 0 44s19.7 44 44 44 44-19.7 44-44S68.3 0 44 0zm15.208 46.332l-22 13.75A2.752 2.752 0 0133 57.75v-27.5a2.749 2.749 0 014.208-2.332l22 13.75a2.753 2.753 0 010 4.664z" fill="#DAB465"/></svg><svg fill="none" viewBox="0 0 26 26" id="icon-time" xmlns="http://www.w3.org/2000/svg"><path d="M12.997 24.646A11.646 11.646 0 1124.643 13a11.66 11.66 0 01-11.646 11.646zm0-21.666A10.02 10.02 0 1023.018 13a10.031 10.031 0 00-10.02-10.02z" fill="currentColor"/><path d="M16.25 17.063a.81.81 0 01-.574-.238l-3.25-3.25a.813.813 0 01-.239-.575V5.417a.812.812 0 111.626 0v7.248l3.011 3.011a.812.812 0 01-.574 1.387z" fill="currentColor"/></svg><svg fill="none" viewBox="0 0 25 24" id="icon-unlock" xmlns="http://www.w3.org/2000/svg"><path d="M11 16a1.5 1.5 0 113 0 1.5 1.5 0 01-3 0z" fill="#1D1D1B"/><path fill-rule="evenodd" clip-rule="evenodd" d="M10.307 4.005a3.2 3.2 0 014.164 1.808l.075.192c.093.238.16.486.198.738l.217 1.423 1.483-.226-.217-1.423a4.964 4.964 0 00-.283-1.057l-.075-.193a4.7 4.7 0 00-9.024 2.418l.03.204c.056.362.151.717.284 1.058l.655 1.675-.382.03a2.36 2.36 0 00-2.142 1.972 20.891 20.891 0 000 6.752 2.36 2.36 0 002.142 1.972l1.496.12c2.376.19 4.762.19 7.138 0l1.496-.12a2.361 2.361 0 002.142-1.972 20.892 20.892 0 000-6.752 2.361 2.361 0 00-2.142-1.972l-1.496-.12a44.837 44.837 0 00-6.69-.033l-.82-2.098a3.46 3.46 0 01-.197-.738l-.032-.203a3.2 3.2 0 011.98-3.455zm5.64 8.023a43.358 43.358 0 00-6.9 0l-1.496.12a.86.86 0 00-.78.72 19.39 19.39 0 000 6.265.86.86 0 00.78.72l1.497.12c2.296.183 4.602.183 6.898 0l1.496-.12a.861.861 0 00.782-.72 19.39 19.39 0 000-6.266.86.86 0 00-.782-.72l-1.496-.12.001.001z" fill="#1D1D1B"/></svg><svg fill="none" viewBox="0 0 23 19" id="input-decor" xmlns="http://www.w3.org/2000/svg"><rect width="5" height="5" rx="1" transform="matrix(-1 0 0 1 5 14)" fill="#DAB465"/><path d="M0 .75h8.5a2 2 0 012 2l.001 2.75V8a2 2 0 002 2h5a2 2 0 012 2v4.25a2 2 0 002 2H23" stroke="#DAB465" stroke-width="1.5"/></svg></svg>