<?xml version="1.0" encoding="utf-8"?><svg viewBox="0 0 44 56" xmlns="http://www.w3.org/2000/svg" xmlns:xlink="http://www.w3.org/1999/xlink"><style>:root>svg{display:none}:root>svg:target{display:block}</style><svg fill="none" viewBox="0 0 25 25" id="btn-decor-left-bottom" xmlns="http://www.w3.org/2000/svg"><path d="M.75 7v6.015c0 .512.385.944.888 1.042 1.484.289 4.51 1.101 6.568 3.158 2.005 2.002 2.732 4.712 2.985 6.112.094.517.535.923 1.06.923H18.5" stroke="currentColor" stroke-width="1.5"/><path d="M0 24a1 1 0 001 1h3a1 1 0 001-1v-3a1 1 0 00-1-1H1a1 1 0 00-1 1v3z" fill="currentColor"/><path d="M.75 0v2.444c0 1.06.827 1.947 1.874 2.111 2.92.459 8.622 1.814 12.483 5.669 4.125 4.12 5.485 9.337 5.93 12.102.171 1.067 1.073 1.924 2.154 1.924H25" stroke="currentColor" stroke-width="1.5"/></svg><svg fill="none" viewBox="0 0 16 16" id="faq-decor-bottom-right" xmlns="http://www.w3.org/2000/svg"><path d="M-1.5 1A2.5 2.5 0 011-1.5h15v3H1.5l-3-.5zM16 16H0h16zm-17.5 0V1A2.5 2.5 0 011-1.5l.5 3V16h-3zM16 0v16V0zM10.92 8.282a2.353 2.353 0 11-4.705 0 2.353 2.353 0 014.706 0z" fill="currentColor"/></svg><svg fill="none" viewBox="0 0 35 28" id="icon-arrow-next" xmlns="http://www.w3.org/2000/svg"><path d="M11.415 27.381a.47.47 0 01-.123-.54l5.619-13.09L11.29.664c-.187-.39.299-.838.675-.593l22.8 13.274c.31.166.314.65 0 .816l-22.8 13.273a.466.466 0 01-.551-.052z" fill="#DAB465"/><path opacity=".5" d="M.078 20.567a.246.246 0 01-.058-.27l2.661-6.545L.02 7.207c-.089-.195.14-.419.32-.296l10.8 6.637c.146.083.148.325 0 .408L.34 20.593a.212.212 0 01-.262-.026z" fill="#DAB465"/></svg><svg fill="none" viewBox="0 0 35 28" id="icon-arrow-prev" xmlns="http://www.w3.org/2000/svg"><path d="M23.585 27.381a.47.47 0 00.123-.54L18.09 13.75 23.71.664c.187-.39-.299-.838-.675-.593L.234 13.344c-.31.166-.314.65 0 .816l22.8 13.273a.466.466 0 00.551-.052z" fill="#DAB465"/><path opacity=".5" d="M34.922 20.567a.247.247 0 00.059-.27l-2.662-6.545 2.661-6.545c.089-.195-.14-.419-.32-.296l-10.8 6.637c-.146.083-.148.325 0 .408l10.8 6.637a.212.212 0 00.262-.026z" fill="#DAB465"/></svg><svg fill="none" viewBox="0 0 44 56" id="icon-arrow-scroll" xmlns="http://www.w3.org/2000/svg"><path d="M43.81 18.264a.75.75 0 00-.865-.198l-20.942 8.991-20.943-8.99c-.625-.3-1.34.477-.948 1.078l21.239 36.48c.265.496 1.039.504 1.304 0l21.238-36.48a.746.746 0 00-.083-.881z" fill="#DAB465"/><path opacity=".5" d="M32.905.125a.394.394 0 00-.432-.094L22 4.291 11.531.03c-.313-.141-.671.227-.475.512l10.62 17.28c.132.234.519.238.652 0L32.947.543a.338.338 0 00-.042-.418z" fill="#DAB465"/></svg><svg fill="none" viewBox="0 0 29 19" id="icon-caret" xmlns="http://www.w3.org/2000/svg"><path d="M15.014 18.041L28.815 1.145c.337-.42.2-.612-.306-.428L15.32 5.203c-.506.184-1.326.182-1.832-.004L.492.72c-.505-.186-.644.005-.31.428l13.616 16.889c.335.422.879.424 1.216.003z" fill="currentColor"/></svg><svg fill="none" viewBox="0 0 18 20" id="icon-magic" xmlns="http://www.w3.org/2000/svg"><path d="M6.836 2.78l1.656-.987L9.404 0l.911 1.793 1.657.987-1.657.987-.911 1.793-.912-1.793-1.656-.987zM13.215 3.088l1.105-.653.604-1.197.604 1.197 1.105.653-1.105.654-.604 1.197-.604-1.197-1.105-.654zM14.582 8.023l1.105-.654.604-1.197.604 1.197L18 8.023l-1.105.653-.604 1.197-.604-1.197-1.105-.653zM11.985 5.533L.305 18.114c-.925 1.049.456 2.556 1.443 1.56l11.68-12.582c.926-1.053-.466-2.558-1.443-1.559z" fill="#DAB465"/></svg><svg fill="none" viewBox="0 0 24 29" id="icon-notification" xmlns="http://www.w3.org/2000/svg"><path d="M24 23.476v1.381H0v-1.38l2.667-2.763V12.43c0-4.281 2.706-8.051 6.666-9.267v-.4c0-.733.281-1.435.781-1.953A2.62 2.62 0 0112 0a2.62 2.62 0 011.886.809c.5.518.78 1.22.78 1.953v.4c3.96 1.216 6.667 4.986 6.667 9.267v8.285L24 23.476zm-9.333 2.762c0 .733-.281 1.435-.781 1.953S12.707 29 12 29a2.621 2.621 0 01-1.886-.809 2.813 2.813 0 01-.78-1.953" fill="#fff"/></svg><svg fill="none" viewBox="0 0 25 24" id="icon-unlock" xmlns="http://www.w3.org/2000/svg"><path d="M11 16a1.5 1.5 0 113 0 1.5 1.5 0 01-3 0z" fill="#1D1D1B"/><path fill-rule="evenodd" clip-rule="evenodd" d="M10.307 4.005a3.2 3.2 0 014.164 1.808l.075.192c.093.238.16.486.198.738l.217 1.423 1.483-.226-.217-1.423a4.964 4.964 0 00-.283-1.057l-.075-.193a4.7 4.7 0 00-9.024 2.418l.03.204c.056.362.151.717.284 1.058l.655 1.675-.382.03a2.36 2.36 0 00-2.142 1.972 20.891 20.891 0 000 6.752 2.36 2.36 0 002.142 1.972l1.496.12c2.376.19 4.762.19 7.138 0l1.496-.12a2.361 2.361 0 002.142-1.972 20.892 20.892 0 000-6.752 2.361 2.361 0 00-2.142-1.972l-1.496-.12a44.837 44.837 0 00-6.69-.033l-.82-2.098a3.46 3.46 0 01-.197-.738l-.032-.203a3.2 3.2 0 011.98-3.455zm5.64 8.023a43.358 43.358 0 00-6.9 0l-1.496.12a.86.86 0 00-.78.72 19.39 19.39 0 000 6.265.86.86 0 00.78.72l1.497.12c2.296.183 4.602.183 6.898 0l1.496-.12a.861.861 0 00.782-.72 19.39 19.39 0 000-6.266.86.86 0 00-.782-.72l-1.496-.12.001.001z" fill="#1D1D1B"/></svg><svg fill="none" viewBox="0 0 23 19" id="input-decor" xmlns="http://www.w3.org/2000/svg"><rect width="5" height="5" rx="1" transform="matrix(-1 0 0 1 5 14)" fill="#DAB465"/><path d="M0 .75h8.5a2 2 0 012 2l.001 2.75V8a2 2 0 002 2h5a2 2 0 012 2v4.25a2 2 0 002 2H23" stroke="#DAB465" stroke-width="1.5"/></svg></svg>