<?xml version="1.0" encoding="utf-8"?><svg viewBox="0 0 88 88" xmlns="http://www.w3.org/2000/svg" xmlns:xlink="http://www.w3.org/1999/xlink"><style>:root>svg{display:none}:root>svg:target{display:block}</style><svg fill="none" viewBox="0 0 25 25" id="btn-decor-left-bottom" xmlns="http://www.w3.org/2000/svg"><path d="M.75 7v6.015c0 .512.385.944.888 1.042 1.484.289 4.51 1.101 6.568 3.158 2.005 2.002 2.732 4.712 2.985 6.112.094.517.535.923 1.06.923H18.5" stroke="currentColor" stroke-width="1.5"/><path d="M0 24a1 1 0 001 1h3a1 1 0 001-1v-3a1 1 0 00-1-1H1a1 1 0 00-1 1v3z" fill="currentColor"/><path d="M.75 0v2.444c0 1.06.827 1.947 1.874 2.111 2.92.459 8.622 1.814 12.483 5.669 4.125 4.12 5.485 9.337 5.93 12.102.171 1.067 1.073 1.924 2.154 1.924H25" stroke="currentColor" stroke-width="1.5"/></svg><svg fill="none" viewBox="0 0 16 16" id="faq-decor-bottom-right" xmlns="http://www.w3.org/2000/svg"><path d="M-1.5 1A2.5 2.5 0 011-1.5h15v3H1.5l-3-.5zM16 16H0h16zm-17.5 0V1A2.5 2.5 0 011-1.5l.5 3V16h-3zM16 0v16V0zM10.92 8.282a2.353 2.353 0 11-4.705 0 2.353 2.353 0 014.706 0z" fill="currentColor"/></svg><svg fill="none" viewBox="0 0 21 18" id="icon-arrow-current-top" xmlns="http://www.w3.org/2000/svg"><path d="M20.91 17.875a.359.359 0 01-.413.094l-9.996-4.26-9.995 4.26c-.298.141-.64-.227-.452-.512L10.19.177c.127-.234.496-.238.623 0l10.136 17.28a.35.35 0 01-.04.418z" fill="#DAB465"/></svg><svg fill="none" viewBox="0 0 35 28" id="icon-arrow-next" xmlns="http://www.w3.org/2000/svg"><path d="M11.415 27.381a.47.47 0 01-.123-.54l5.619-13.09L11.29.664c-.187-.39.299-.838.675-.593l22.8 13.274c.31.166.314.65 0 .816l-22.8 13.273a.466.466 0 01-.551-.052z" fill="#DAB465"/><path opacity=".5" d="M.078 20.567a.246.246 0 01-.058-.27l2.661-6.545L.02 7.207c-.089-.195.14-.419.32-.296l10.8 6.637c.146.083.148.325 0 .408L.34 20.593a.212.212 0 01-.262-.026z" fill="#DAB465"/></svg><svg fill="none" viewBox="0 0 35 28" id="icon-arrow-prev" xmlns="http://www.w3.org/2000/svg"><path d="M23.585 27.381a.47.47 0 00.123-.54L18.09 13.75 23.71.664c.187-.39-.299-.838-.675-.593L.234 13.344c-.31.166-.314.65 0 .816l22.8 13.273a.466.466 0 00.551-.052z" fill="#DAB465"/><path opacity=".5" d="M34.922 20.567a.247.247 0 00.059-.27l-2.662-6.545 2.661-6.545c.089-.195-.14-.419-.32-.296l-10.8 6.637c-.146.083-.148.325 0 .408l10.8 6.637a.212.212 0 00.262-.026z" fill="#DAB465"/></svg><svg fill="none" viewBox="0 0 44 56" id="icon-arrow-scroll" xmlns="http://www.w3.org/2000/svg"><path d="M43.81 18.264a.75.75 0 00-.865-.198l-20.942 8.991-20.943-8.99c-.625-.3-1.34.477-.948 1.078l21.239 36.48c.265.496 1.039.504 1.304 0l21.238-36.48a.746.746 0 00-.083-.881z" fill="#DAB465"/><path opacity=".5" d="M32.905.125a.394.394 0 00-.432-.094L22 4.291 11.531.03c-.313-.141-.671.227-.475.512l10.62 17.28c.132.234.519.238.652 0L32.947.543a.338.338 0 00-.042-.418z" fill="#DAB465"/></svg><svg fill="none" viewBox="0 0 29 19" id="icon-caret" xmlns="http://www.w3.org/2000/svg"><path d="M15.014 18.041L28.815 1.145c.337-.42.2-.612-.306-.428L15.32 5.203c-.506.184-1.326.182-1.832-.004L.492.72c-.505-.186-.644.005-.31.428l13.616 16.889c.335.422.879.424 1.216.003z" fill="currentColor"/></svg><svg fill="none" viewBox="0 0 28 31" id="icon-check-circle" xmlns="http://www.w3.org/2000/svg"><path d="M13.998 7.764c-4.11 0-7.454 3.344-7.454 7.46 0 4.103 3.344 7.446 7.454 7.446 4.11 0 7.453-3.343 7.453-7.447 0-4.115-3.343-7.459-7.453-7.459zm0 16.584c-5.034 0-9.13-4.093-9.13-9.125s4.096-9.136 9.13-9.136c5.035 0 9.13 4.104 9.13 9.136 0 5.032-4.095 9.125-9.13 9.125z" fill="currentColor"/><path d="M14 30.435c-6.153 0-11.624-3.831-13.938-9.753-.175-.453.032-.963.46-1.137.428-.187.918.034 1.091.476C3.67 25.29 8.533 28.693 14 28.693c5.467 0 10.33-3.402 12.388-8.672a.832.832 0 011.09-.477c.428.175.634.685.46 1.138-2.315 5.922-7.786 9.753-13.938 9.753zM27.163 10.954a.841.841 0 01-.775-.546C24.329 5.152 19.467 1.741 14 1.741c-5.466 0-10.329 3.41-12.387 8.667a.83.83 0 01-1.09.488.888.888 0 01-.46-1.138C2.377 3.83 7.847 0 14 0c6.152 0 11.623 3.83 13.938 9.758a.89.89 0 01-.46 1.138.984.984 0 01-.315.057z" fill="currentColor"/><circle cx="14" cy="15.087" r="4" fill="currentColor"/></svg><svg fill="none" viewBox="0 0 21 21" id="icon-done" xmlns="http://www.w3.org/2000/svg"><path d="M15.123 8L9.62 13.503 7 10.883" stroke="currentColor" stroke-width="1.5" stroke-miterlimit="10" stroke-linecap="round" stroke-linejoin="round"/><circle cx="10.5" cy="10.5" r="9.75" stroke="currentColor" stroke-width="1.5"/></svg><svg fill="none" viewBox="0 0 37 37" id="icon-download" xmlns="http://www.w3.org/2000/svg"><path d="M18.37 0a18.37 18.37 0 100 36.74 18.37 18.37 0 000-36.74zm-3.933 17.777a.834.834 0 011.186 0l1.912 1.921V9.185a.835.835 0 111.67 0v10.513l1.913-1.92a.839.839 0 111.185 1.185l-3.34 3.34a.834.834 0 01-1.186 0l-3.34-3.34a.834.834 0 010-1.186zm12.284 8.108a.835.835 0 01-.835.835h-15.03a.835.835 0 01-.836-.834V21.71a.835.835 0 011.67 0v3.34h13.36v-3.34a.835.835 0 011.67 0v4.175z" fill="#DAB465"/></svg><svg fill="none" viewBox="0 0 21 22" id="icon-edit" xmlns="http://www.w3.org/2000/svg"><path d="M20.8 2.708A2.706 2.706 0 0016.18.794L3.495 13.48a.659.659 0 00-.173.303L2.267 17.91a.659.659 0 00.835.792l3.95-1.23a.66.66 0 00.271-.163L20.01 4.623a2.69 2.69 0 00.79-1.915zM6.507 16.263l-2.67.831.717-2.809L15.656 3.182l1.966 1.966L6.506 16.263zM19.078 3.691l-.524.525-1.966-1.966.525-.524a1.39 1.39 0 011.965 1.965zm-4.832 17.401H.66a.659.659 0 110-1.318h13.587a.66.66 0 110 1.318z" fill="currentColor"/></svg><svg fill="none" viewBox="0 0 18 20" id="icon-magic" xmlns="http://www.w3.org/2000/svg"><path d="M6.836 2.78l1.656-.987L9.404 0l.911 1.793 1.657.987-1.657.987-.911 1.793-.912-1.793-1.656-.987zM13.215 3.088l1.105-.653.604-1.197.604 1.197 1.105.653-1.105.654-.604 1.197-.604-1.197-1.105-.654zM14.582 8.023l1.105-.654.604-1.197.604 1.197L18 8.023l-1.105.653-.604 1.197-.604-1.197-1.105-.653zM11.985 5.533L.305 18.114c-.925 1.049.456 2.556 1.443 1.56l11.68-12.582c.926-1.053-.466-2.558-1.443-1.559z" fill="#DAB465"/></svg><svg fill="none" viewBox="0 0 24 29" id="icon-notification" xmlns="http://www.w3.org/2000/svg"><path d="M24 23.476v1.381H0v-1.38l2.667-2.763V12.43c0-4.281 2.706-8.051 6.666-9.267v-.4c0-.733.281-1.435.781-1.953A2.62 2.62 0 0112 0a2.62 2.62 0 011.886.809c.5.518.78 1.22.78 1.953v.4c3.96 1.216 6.667 4.986 6.667 9.267v8.285L24 23.476zm-9.333 2.762c0 .733-.281 1.435-.781 1.953S12.707 29 12 29a2.621 2.621 0 01-1.886-.809 2.813 2.813 0 01-.78-1.953" fill="#fff"/></svg><svg fill="none" viewBox="0 0 88 88" id="icon-play" xmlns="http://www.w3.org/2000/svg"><path d="M44 0C19.7 0 0 19.7 0 44s19.7 44 44 44 44-19.7 44-44S68.3 0 44 0zm15.208 46.332l-22 13.75A2.752 2.752 0 0133 57.75v-27.5a2.749 2.749 0 014.208-2.332l22 13.75a2.753 2.753 0 010 4.664z" fill="currentColor"/></svg><svg fill="none" viewBox="0 0 88 88" id="icon-play-accent" xmlns="http://www.w3.org/2000/svg"><path d="M44 0C19.7 0 0 19.7 0 44s19.7 44 44 44 44-19.7 44-44S68.3 0 44 0zm15.208 46.332l-22 13.75A2.752 2.752 0 0133 57.75v-27.5a2.749 2.749 0 014.208-2.332l22 13.75a2.753 2.753 0 010 4.664z" fill="#DAB465"/></svg><svg fill="none" viewBox="0 0 26 26" id="icon-time" xmlns="http://www.w3.org/2000/svg"><path d="M12.997 24.646A11.646 11.646 0 1124.643 13a11.66 11.66 0 01-11.646 11.646zm0-21.666A10.02 10.02 0 1023.018 13a10.031 10.031 0 00-10.02-10.02z" fill="currentColor"/><path d="M16.25 17.063a.81.81 0 01-.574-.238l-3.25-3.25a.813.813 0 01-.239-.575V5.417a.812.812 0 111.626 0v7.248l3.011 3.011a.812.812 0 01-.574 1.387z" fill="currentColor"/></svg><svg fill="none" viewBox="0 0 25 24" id="icon-unlock" xmlns="http://www.w3.org/2000/svg"><path d="M11 16a1.5 1.5 0 113 0 1.5 1.5 0 01-3 0z" fill="#1D1D1B"/><path fill-rule="evenodd" clip-rule="evenodd" d="M10.307 4.005a3.2 3.2 0 014.164 1.808l.075.192c.093.238.16.486.198.738l.217 1.423 1.483-.226-.217-1.423a4.964 4.964 0 00-.283-1.057l-.075-.193a4.7 4.7 0 00-9.024 2.418l.03.204c.056.362.151.717.284 1.058l.655 1.675-.382.03a2.36 2.36 0 00-2.142 1.972 20.891 20.891 0 000 6.752 2.36 2.36 0 002.142 1.972l1.496.12c2.376.19 4.762.19 7.138 0l1.496-.12a2.361 2.361 0 002.142-1.972 20.892 20.892 0 000-6.752 2.361 2.361 0 00-2.142-1.972l-1.496-.12a44.837 44.837 0 00-6.69-.033l-.82-2.098a3.46 3.46 0 01-.197-.738l-.032-.203a3.2 3.2 0 011.98-3.455zm5.64 8.023a43.358 43.358 0 00-6.9 0l-1.496.12a.86.86 0 00-.78.72 19.39 19.39 0 000 6.265.86.86 0 00.78.72l1.497.12c2.296.183 4.602.183 6.898 0l1.496-.12a.861.861 0 00.782-.72 19.39 19.39 0 000-6.266.86.86 0 00-.782-.72l-1.496-.12.001.001z" fill="#1D1D1B"/></svg><svg fill="none" viewBox="0 0 23 19" id="input-decor" xmlns="http://www.w3.org/2000/svg"><rect width="5" height="5" rx="1" transform="matrix(-1 0 0 1 5 14)" fill="#DAB465"/><path d="M0 .75h8.5a2 2 0 012 2l.001 2.75V8a2 2 0 002 2h5a2 2 0 012 2v4.25a2 2 0 002 2H23" stroke="#DAB465" stroke-width="1.5"/></svg></svg>