<?xml version="1.0" encoding="utf-8"?><svg viewBox="0 0 68 68" xmlns="http://www.w3.org/2000/svg" xmlns:xlink="http://www.w3.org/1999/xlink"><style>:root>svg{display:none}:root>svg:target{display:block}</style><svg fill="none" viewBox="0 0 68 68" id="icon-arrow-scroll" xmlns="http://www.w3.org/2000/svg"><g filter="url(#afilter0_d_782_933)"><path d="M55.81 18.264a.75.75 0 00-.865-.198l-20.942 8.991-20.943-8.99c-.625-.3-1.34.477-.948 1.078l21.238 36.48c.266.496 1.04.504 1.305 0l21.238-36.48a.746.746 0 00-.083-.881z" fill="#DAB465"/></g><path opacity=".5" d="M44.905.125a.394.394 0 00-.432-.094L34 4.291 23.531.03c-.313-.141-.671.227-.475.512l10.62 17.28c.132.234.519.238.652 0L44.947.543a.338.338 0 00-.042-.418z" fill="#DAB465"/><defs><filter id="afilter0_d_782_933" x="0" y="6" width="68" height="62" filterUnits="userSpaceOnUse" color-interpolation-filters="sRGB"><feFlood flood-opacity="0" result="BackgroundImageFix"/><feColorMatrix in="SourceAlpha" values="0 0 0 0 0 0 0 0 0 0 0 0 0 0 0 0 0 0 127 0" result="hardAlpha"/><feOffset/><feGaussianBlur stdDeviation="6"/><feComposite in2="hardAlpha" operator="out"/><feColorMatrix values="0 0 0 0 0.9375 0 0 0 0 0.842348 0 0 0 0 0.644531 0 0 0 0.25 0"/><feBlend in2="BackgroundImageFix" result="effect1_dropShadow_782_933"/><feBlend in="SourceGraphic" in2="effect1_dropShadow_782_933" result="shape"/></filter></defs></svg><svg fill="none" viewBox="0 0 29 29" id="icon-caret" xmlns="http://www.w3.org/2000/svg"><path d="M15.014 5.963l13.801 16.896c.337.42.2.612-.306.428L15.32 18.8c-.506-.184-1.326-.182-1.832.004L.492 23.283c-.505.186-.644-.005-.31-.428L13.798 5.966c.335-.422.879-.424 1.216-.003z" fill="currentColor"/></svg><svg fill="none" viewBox="0 0 18 20" id="icon-magic" xmlns="http://www.w3.org/2000/svg"><path d="M6.836 2.78l1.656-.987L9.404 0l.911 1.793 1.657.987-1.657.987-.911 1.793-.912-1.793-1.656-.987zM13.215 3.088l1.105-.653.604-1.197.604 1.197 1.105.653-1.105.654-.604 1.197-.604-1.197-1.105-.654zM14.582 8.023l1.105-.654.604-1.197.604 1.197L18 8.023l-1.105.653-.604 1.197-.604-1.197-1.105-.653zM11.985 5.533L.305 18.114c-.925 1.049.456 2.556 1.443 1.56l11.68-12.582c.926-1.053-.466-2.558-1.443-1.559z" fill="#DAB465"/></svg><svg fill="none" viewBox="0 0 25 24" id="icon-unlock" xmlns="http://www.w3.org/2000/svg"><path d="M11 16a1.5 1.5 0 113 0 1.5 1.5 0 01-3 0z" fill="#1D1D1B"/><path fill-rule="evenodd" clip-rule="evenodd" d="M10.307 4.005a3.2 3.2 0 014.164 1.808l.075.192c.093.238.16.486.198.738l.217 1.423 1.483-.226-.217-1.423a4.964 4.964 0 00-.283-1.057l-.075-.193a4.7 4.7 0 00-9.024 2.418l.03.204c.056.362.151.717.284 1.058l.655 1.675-.382.03a2.36 2.36 0 00-2.142 1.972 20.891 20.891 0 000 6.752 2.36 2.36 0 002.142 1.972l1.496.12c2.376.19 4.762.19 7.138 0l1.496-.12a2.361 2.361 0 002.142-1.972 20.892 20.892 0 000-6.752 2.361 2.361 0 00-2.142-1.972l-1.496-.12a44.837 44.837 0 00-6.69-.033l-.82-2.098a3.46 3.46 0 01-.197-.738l-.032-.203a3.2 3.2 0 011.98-3.455zm5.64 8.023a43.358 43.358 0 00-6.9 0l-1.496.12a.86.86 0 00-.78.72 19.39 19.39 0 000 6.265.86.86 0 00.78.72l1.497.12c2.296.183 4.602.183 6.898 0l1.496-.12a.861.861 0 00.782-.72 19.39 19.39 0 000-6.266.86.86 0 00-.782-.72l-1.496-.12.001.001z" fill="#1D1D1B"/></svg></svg>