<svg width="179" height="189" fill="none" xmlns="http://www.w3.org/2000/svg"><g filter="url(#filter0_d_622_327)"><path d="M127.878 28.026h.001l38.38 22.157-.002 44.317.002 44.317-38.38 22.156.374.65-.375-.649-38.378 22.16-38.379-22.16-.375.649.375-.65-38.38-22.156.002-44.317-.002-44.317 38.38-22.157h0L89.5 5.866l38.378 22.16z" stroke="#DAB465" stroke-width="1.5" shape-rendering="crispEdges"/></g><g filter="url(#filter1_d_622_327)"><path d="M124.821 32.274h0l35.33 20.542-.002 41.09.002 41.091-35.33 20.542.377.649-.377-.649-35.324 20.544-35.324-20.544-.377.649.377-.649-35.33-20.542.002-41.09-.002-41.09 35.33-20.543h0l35.324-20.543 35.324 20.543z" stroke="#DAB465" stroke-width="1.5" shape-rendering="crispEdges"/></g><defs><filter id="filter0_d_622_327" x="7.247" y=".255" width="164.506" height="188.491" filterUnits="userSpaceOnUse" color-interpolation-filters="sRGB"><feFlood flood-opacity="0" result="BackgroundImageFix"/><feColorMatrix in="SourceAlpha" values="0 0 0 0 0 0 0 0 0 0 0 0 0 0 0 0 0 0 127 0" result="hardAlpha"/><feOffset/><feGaussianBlur stdDeviation="2.373"/><feComposite in2="hardAlpha" operator="out"/><feColorMatrix values="0 0 0 0 0.937255 0 0 0 0 0.843137 0 0 0 0 0.643137 0 0 0 0.5 0"/><feBlend in2="BackgroundImageFix" result="effect1_dropShadow_622_327"/><feBlend in="SourceGraphic" in2="effect1_dropShadow_622_327" result="shape"/></filter><filter id="filter1_d_622_327" x="13.348" y="6.118" width="152.299" height="175.578" filterUnits="userSpaceOnUse" color-interpolation-filters="sRGB"><feFlood flood-opacity="0" result="BackgroundImageFix"/><feColorMatrix in="SourceAlpha" values="0 0 0 0 0 0 0 0 0 0 0 0 0 0 0 0 0 0 127 0" result="hardAlpha"/><feOffset/><feGaussianBlur stdDeviation="2.373"/><feComposite in2="hardAlpha" operator="out"/><feColorMatrix values="0 0 0 0 0.937255 0 0 0 0 0.843137 0 0 0 0 0.643137 0 0 0 0.5 0"/><feBlend in2="BackgroundImageFix" result="effect1_dropShadow_622_327"/><feBlend in="SourceGraphic" in2="effect1_dropShadow_622_327" result="shape"/></filter></defs></svg>