<svg width="163" height="163" fill="none" xmlns="http://www.w3.org/2000/svg"><mask id="a" style="mask-type:alpha" maskUnits="userSpaceOnUse" x="11" y="0" width="141" height="163"><path d="M116.378 20.9h0l34.881 20.137-.002 40.277.002 40.276-34.881 20.137.308.533-.308-.533-34.88 20.14-34.88-20.14-.307.533.308-.533-34.882-20.137.002-40.276-.002-40.277L46.62 20.901h0L81.499.76l34.879 20.14z" fill="#D9D9D9" stroke="#000" stroke-width="1.231"/></mask><g mask="url(#a)"><path d="M81.498.05l35.188 20.318 35.189 20.314-.002 40.632.002 40.632-35.189 20.314-35.188 20.318-35.187-20.318-35.19-20.314.003-40.632-.002-40.632 35.19-20.314L81.497.05z" fill="#D9D9D9"/></g></svg>